<svg id="Layer_2" data-name="Layer 2" xmlns="http://www.w3.org/2000/svg" xmlns:xlink="http://www.w3.org/1999/xlink" viewBox="0 0 400 300" data-imageid="artificial-intelligence-isometric-66dbc" imageName="Artificial intelligence" class="illustrations_image" style="width: 215px;"><defs><linearGradient id="linear-gradient" x1="102.01" y1="212.88" x2="152.48" y2="175.27" gradientUnits="userSpaceOnUse"><stop offset="0" stop-color="#ffc2a4"/><stop offset="1" stop-color="#f15a24"/></linearGradient><linearGradient id="linear-gradient-2" x1="167.88" y1="257.09" x2="255.99" y2="187.93" xlink:href="#linear-gradient"/><linearGradient id="linear-gradient-3" x1="254.87" y1="-23.99" x2="249.08" y2="141.99" gradientUnits="userSpaceOnUse"><stop offset="0" stop-color="#ffeed9" stop-opacity="0"/><stop offset="1" stop-color="#68e1fd"/></linearGradient></defs><title>PP</title><path d="M194.06,284.3,14.34,178.08c-5.72-3.21-10.63-8.49-5.05-11.94l180.37-104c2.71-1.68,6.82-2.78,9.57-1.18L387.88,170.5c5.72,3.32,6.75,12.6,1,15.93L217.75,284.13A23.9,23.9,0,0,1,194.06,284.3Z" fill="#ffc2a4"/><polyline points="151.45 202.5 105.3 231.84 69.47 210.67 132.11 188.93" fill="url(#linear-gradient)"/><polyline points="294.16 218.73 188.31 280.9 115.18 237.68 213.34 176.88" fill="url(#linear-gradient-2)"/><path d="M138.32,190.13s2.32,3,4,3.83,10.49,3,9.48,7.77-10,.61-12.37-.5-6.3-.91-7.91-1.82-.1-8.58.55-9.89S138.32,190.13,138.32,190.13Z" fill="#2d343c"/><path d="M120.08,119.54c.11.68,4.18,29.34,6.39,30.86s9.84.68,11.36-3.05,3.56-39.27-3.22-45.24S118.33,108.28,120.08,119.54Z" fill="#d7dcef"/><path d="M126.46,150.41a38.44,38.44,0,0,0-1.69,8c-.33,4,4,31.5,7.64,33.46s6.56.22,6.94-1.53-.14-37.93-1.15-39.95S129.35,148,126.46,150.41Z" fill="#d7dcef"/><circle cx="127.34" cy="105.92" r="10.64" fill="#2d343c"/><path d="M123.44,56.63c-3.87,4.21,4,10.68,6.79,12.6,10.24,7,27.83,15.2,30.89,13.47s5-4.63.41-9S131.45,48,123.44,56.63Z" fill="#d7dcef"/><path d="M162.68,80.95c.42,0,1.56-1.45,3.59-5.53s8.52-20.36,7.18-22.19-5.46-2.46-6.16-1.16c-2.67,5-5.36,10-7.83,15.05-1.61,3.31-4.57,8.66-1,11.77" fill="#d7dcef"/><path d="M172.16,54.67c.35-.06,6.05-3.6,6.89-4.87s2.21-3.09,2.09-4.39-1.2-6.3-2.11-6.78-1.45.17-1.69.93,1.19,3.23.23,4.18-3.23,3-4,2.5-1.06-1.32-.56-2.52,1.23-2.56.48-2.69-2.65,1.38-3,2.44-1.83,7.8-1.83,7.8" fill="#d7dcef"/><circle cx="130.81" cy="56.67" r="7.36" fill="#2d343c"/><path d="M105.58,75.9s2.58,32.51,4.63,33.8,7.24,5.17,12.29,5,11.27-4.76,11.6-8.52,5.06-32.39,3.88-38.42-2.9-15.53-7.47-16.82-7.4-2.8-15.88,0c-5.25,1.71-11.85,4.58-12.93,8.46S105.58,75.9,105.58,75.9Z" fill="#c4c4c4"/><path d="M122.79,24.56l-.27-.08a14.07,14.07,0,0,0-6.43.24c-12.37,3-10.75,24.45-.68,29.27,7.33,3.51,10.93,1,12.62-2.67a27.37,27.37,0,0,0,2.61-14.68C130.06,31.92,127.79,26.11,122.79,24.56Z" fill="#e9e8f6"/><path d="M124.53,54.26l.53-.17c.31-.14.61-.27.91-.43l.19-.1c2.63-7.52,2.14-19.34-1.1-24.31a11.08,11.08,0,0,0-7.12-5c-.84.17-1.67.36-2.49.6l0,0A11.7,11.7,0,0,1,123.95,30C127,34.66,127.15,47.2,124.53,54.26Z" fill="#c4c4c4"/><path d="M130.1,33.88c.2-.05.06,2.87-6,3.42-3,.27-9-1.36-9.65-.75s.3,4.9,2.64,6.11,7.77,1.51,10.18.75a7,7,0,0,0,3.58-2.56A29.25,29.25,0,0,0,130.1,33.88Z" fill="#2d343c"/><path d="M105.44,57.94c-5.19-2.4-8.95,7.08-9.92,10.32-3.57,11.9-6,31.15-3.37,33.53s6,3.37,8.73-2.38S116.15,62.91,105.44,57.94Z" fill="#d7dcef"/><path d="M94.09,103.42c.25.34,2.08.42,6.58-.32s21.5-5,22.2-7.16-1.2-5.87-2.67-5.67c-5.61.75-11.21,1.48-16.79,2.46-3.63.63-9.7,1.36-10.12,6.09" fill="#d7dcef"/><path d="M121,95.74c.25.25,6.47,2.8,8,2.74s3.8,0,4.78-.87S138.12,93,138,91.93s-1-1.08-1.74-.83S134.32,94,133,93.73s-4.31-.88-4.39-1.82.45-1.63,1.71-1.92,2.79-.5,2.47-1.19-2.67-1.34-3.72-1-7.4,3.08-7.4,3.08" fill="#d7dcef"/><circle cx="103.46" cy="63.66" r="7.36" fill="#2d343c"/><circle cx="114.1" cy="112.82" r="10.64" fill="#2d343c"/><path d="M100.9,148s1.9-28.58,3.7-35c1.12-4,4.36-8.52,9.08-8,6.18.68,8.51,5.74,8.69,10.36.25,6.44-10,36.82-11.93,37.19S102,154,100.9,148Z" fill="#d7dcef"/><path d="M105.22,148.82a9.41,9.41,0,0,0-5.83,4.3c-2.36,3.72-2.69,13.41-3.26,22s-1.46,17.32.85,19.47,5.36,2.78,6.31-.06,8.86-35.83,8.12-39.59S105.22,148.82,105.22,148.82Z" fill="#d7dcef"/><path d="M103.41,196.26s4.53,5.74,6.38,7.77,2.82,4.53,2.05,6.63-5.41,1.48-6.73,1S94,204,93.93,200.78s.36-7,1.56-7.45S100.8,196.69,103.41,196.26Z" fill="#2d343c"/><path d="M110.62,151.5a2,2,0,0,0-2.46-1.4,7.78,7.78,0,0,1-4.7-.74c-2.3-1.14-4.33,2.31-2,3.45a12.43,12.43,0,0,0,7.78,1.14A2,2,0,0,0,110.62,151.5Z" fill="#2d343c"/><path d="M134.71,147.16a17.06,17.06,0,0,1-6.85,1.06c-2.57-.12-2.57,3.88,0,4a20.07,20.07,0,0,0,7.92-1.2C138.16,150.14,137.13,146.27,134.71,147.16Z" fill="#2d343c"/><path d="M99.63,94.07c-1.49,2.63-4,4.27-6.56,5.7-1.69.93-.18,3.52,1.51,2.59,3-1.67,5.9-3.7,7.64-6.77A1.5,1.5,0,0,0,99.63,94.07Z" fill="#2d343c"/><path d="M162.17,78.51A13.53,13.53,0,0,1,160,71.78c-.1-1.92-3.1-1.93-3,0A16.64,16.64,0,0,0,159.58,80C160.62,81.64,163.22,80.14,162.17,78.51Z" fill="#2d343c"/><path d="M303.38,186.89c-9.8-9.06-29.66-15.25-52.58-15.25s-42.78,6.2-52.58,15.25h-6.49v12.8c0,15.49,26.45,28.05,59.07,28.05s59.07-12.56,59.07-28.05v-12.8Z" fill="#68e1fd" class="target-color"/><path d="M303.38,186.89c-9.8-9.06-29.66-15.25-52.58-15.25s-42.78,6.2-52.58,15.25h-6.49v12.8c0,15.49,26.45,28.05,59.07,28.05s59.07-12.56,59.07-28.05v-12.8Z" fill="#1b4075" opacity="0.47"/><ellipse cx="250.8" cy="186.89" rx="59.07" ry="28.05" fill="#68e1fd" class="target-color"/><ellipse cx="250.23" cy="185.7" rx="19.45" ry="8.82" fill="#6d6d9b"/><path d="M250.66,212.19c-27.81,0-50.44-11.35-50.44-25.29s22.63-25.29,50.44-25.29S301.1,173,301.1,186.9,278.47,212.19,250.66,212.19Zm0-50c-27.52,0-49.91,11.1-49.91,24.74s22.39,24.74,49.91,24.74,49.91-11.1,49.91-24.74S278.18,162.17,250.66,162.17Z" fill="#6d6d9b"/><path d="M225,203.28c-10.52-3.71-17.34-9.63-17.34-16.29,0-5.78,5.14-11,13.36-14.69l-.33-.32c-8.3,3.79-13.49,9.12-13.49,15,0,6.83,6.95,12.91,17.64,16.7Z" fill="#6d6d9b"/><path d="M280.76,201.49c-7.77,3.59-18.39,5.81-30.1,5.81-1.35,0-2.67,0-4-.1,0,.15,0,.3,0,.46,1.31.06,2.63.1,4,.1,11.89,0,22.67-2.29,30.53-6Z" fill="#6d6d9b"/><path d="M293.71,187a11.1,11.1,0,0,1-2.29,6.52l.41.18a11.45,11.45,0,0,0,2.34-6.71c0-9.78-14.21-18-33.29-20.2l-.12.44C279.63,169.38,293.71,177.42,293.71,187Z" fill="#6d6d9b"/><path d="M250.66,200.34c-16.87,0-30.59-6.57-30.59-14.64s13.72-14.64,30.59-14.64,30.59,6.57,30.59,14.64S267.53,200.34,250.66,200.34Zm0-28.65c-16.52,0-30,6.29-30,14s13.44,14,30,14,30-6.29,30-14S267.18,171.68,250.66,171.68Z" fill="#6d6d9b"/><ellipse cx="291.6" cy="193.43" rx="2.56" ry="1.36" fill="#1b4075"/><ellipse cx="246.75" cy="207.14" rx="2.56" ry="1.36" fill="#1b4075"/><ellipse cx="225.39" cy="203.29" rx="1.91" ry="0.98" fill="#1b4075"/><ellipse cx="280.8" cy="201.49" rx="1.68" ry="0.95" fill="#1b4075"/><path d="M293.74,5.71c-33.85,11.14-70,7-102-7.53V187.25c0,15.49,26.45,28.05,59.07,28.05s59.07-12.56,59.07-28.05V-.83A132.43,132.43,0,0,1,293.74,5.71Z" opacity="0.38" fill="url(#linear-gradient-3)"/><circle cx="254.76" cy="148.17" r="6.69" transform="translate(-21.6 250.55) rotate(-50.51)" fill="#284356"/><circle cx="284.6" cy="141.83" r="6.69" transform="translate(-5.84 271.28) rotate(-50.51)" fill="#284356"/><circle cx="271.18" cy="113.43" r="6.69" transform="translate(11.19 250.58) rotate(-50.51)" fill="#284356"/><polygon points="254.93 149.16 254.59 147.19 282.01 142.49 271.35 116.78 273.2 116.01 284.82 144.04 254.93 149.16" fill="#284356"/><circle cx="249.37" cy="65.22" r="6.69" transform="translate(48.23 226.4) rotate(-53.36)" fill="#284356"/><circle cx="219.88" cy="73.04" r="6.69" transform="translate(30.06 205.89) rotate(-53.36)" fill="#284356"/><circle cx="234.69" cy="100.73" r="6.69" transform="translate(13.81 228.95) rotate(-53.36)" fill="#284356"/><polygon points="249.15 64.24 249.59 66.19 222.43 72.25 234.36 97.4 232.55 98.26 219.55 70.84 249.15 64.24" fill="#284356"/></svg>