<svg id="Layer_1" data-name="Layer 1" xmlns="http://www.w3.org/2000/svg" xmlns:xlink="http://www.w3.org/1999/xlink" viewBox="0 0 400 300" data-imageid="cpu-2" imageName="Data Process" class="illustrations_image" style="width: 214px;"><defs><linearGradient id="linear-gradient" x1="279.16" y1="180.1" x2="298.82" y2="161.38" gradientUnits="userSpaceOnUse"><stop offset="0" stop-color="#bf5a00" stop-opacity="0.03"/><stop offset="0.84" stop-color="#bf5a00" stop-opacity="0.84"/><stop offset="1" stop-color="#bf5a00"/></linearGradient><linearGradient id="linear-gradient-2" x1="200.36" y1="222.71" x2="214.04" y2="209.68" xlink:href="#linear-gradient"/><linearGradient id="linear-gradient-3" x1="87.76" y1="229.13" x2="105.91" y2="213.08" xlink:href="#linear-gradient"/></defs><title>81-90</title><polygon points="391.88 142.23 250.53 59.31 29.85 187.44 171.74 269.53 391.88 142.23" fill="#f3dde2"/><path d="M293.21,180.63c9.4-5.06,18.34-11.16,27.67-16.34l-33-1.19-34.36,17.52C263.31,185.78,271.51,189.27,293.21,180.63Z" opacity="0.32" fill="url(#linear-gradient)"/><path d="M208.47,235.13c9.4-5.06,18.34-11.16,27.67-16.34l-33.84-18.71L175.74,216C185.57,221.16,194.87,226.71,208.47,235.13Z" opacity="0.32" fill="url(#linear-gradient-2)"/><path d="M105.94,231.13c8.51-4.58,16.61-10.1,25.06-14.8l-30.64-16.94L76.29,213.82C85.19,218.49,93.61,223.51,105.94,231.13Z" opacity="0.32" fill="url(#linear-gradient-3)"/><line x1="159.76" y1="150.52" x2="233.87" y2="107.42" fill="none" stroke="#e0bc94" stroke-miterlimit="10" stroke-width="2"/><polyline points="167.48 75.59 167.48 145.71 127.62 168.8" fill="none" stroke="#e0bc94" stroke-miterlimit="10" stroke-width="2"/><polyline points="268.84 126.2 309.8 149.7 241.26 189.27" fill="#f3dde2" stroke="#e0bc94" stroke-miterlimit="10" stroke-width="2"/><path d="M126.47,214.41c1,.56,35.92,19.76,35.92,19.76l54.28-29.81" fill="none" stroke="#e0bc94" stroke-miterlimit="10" stroke-width="2"/><polyline points="154 156.81 154 203.05 118.19 223.73 89.02 206.39 89.02 163.42" fill="#4a42a4"/><polygon points="118.19 223.73 118.19 178.1 89.02 161.02 89.02 206.39 118.19 223.73" fill="#312f89"/><polygon points="124.52 139.34 154 156.81 118.19 178.1 89.02 161.02 124.52 139.34" fill="#5d5bc4"/><polygon points="149.33 164.42 149.33 173.99 122.5 189.3 122.5 179.91 149.33 164.42" fill="#7374b7"/><ellipse cx="125.54" cy="183.02" rx="1.14" ry="0.72" transform="matrix(0.29, -0.96, 0.96, 0.29, -86.26, 249.33)" fill="#f7931e"/><ellipse cx="127.83" cy="181.68" rx="1.14" ry="0.72" transform="matrix(0.29, -0.96, 0.96, 0.29, -83.36, 250.57)" fill="#d9e021"/><line x1="130.36" y1="180.62" x2="146.95" y2="171.1" fill="none" stroke="#f2f2f2" stroke-miterlimit="10" stroke-width="0.25"/><polygon points="149.96 177.83 149.96 187.41 123.13 202.71 123.13 193.33 149.96 177.83" fill="#7374b7"/><ellipse cx="126.18" cy="196.43" rx="1.14" ry="0.72" transform="matrix(0.29, -0.96, 0.96, 0.29, -98.63, 259.42)" fill="#f7931e"/><ellipse cx="128.46" cy="195.09" rx="1.14" ry="0.72" transform="matrix(0.29, -0.96, 0.96, 0.29, -95.73, 260.65)" fill="#d9e021"/><line x1="130.99" y1="194.03" x2="147.58" y2="184.51" fill="none" stroke="#f2f2f2" stroke-miterlimit="10" stroke-width="0.25"/><polygon points="149.96 191.23 149.96 200.8 123.13 216.11 123.13 206.72 149.96 191.23" fill="#7374b7"/><ellipse cx="126.18" cy="209.83" rx="1.14" ry="0.72" transform="matrix(0.29, -0.96, 0.96, 0.29, -111.44, 268.88)" fill="#f7931e"/><ellipse cx="128.46" cy="208.49" rx="1.14" ry="0.72" transform="matrix(0.29, -0.96, 0.96, 0.29, -108.54, 270.12)" fill="#d9e021"/><line x1="130.99" y1="207.43" x2="147.58" y2="197.91" fill="none" stroke="#f2f2f2" stroke-miterlimit="10" stroke-width="0.25"/><polyline points="89.02 176.9 118.05 194.03 154 173.16" fill="none" stroke="#1b1464" stroke-miterlimit="10" stroke-width="0.25"/><polyline points="89.02 190.3 118.05 207.43 154 186.55" fill="none" stroke="#1b1464" stroke-miterlimit="10" stroke-width="0.25"/><path d="M193.71,55.45c-.54-.68-8.05-5.14-8.05-5.14v0c-1.54-1.7-4.4-1.11-8.12,2.13,0,0-.13-3.55-4.38-4.12s-5.47,1.36-5.47,1.36-1.43-6.73-10-4.2c-7.74,2.3-6.65,10.08-6.65,10.08s-4.81-1.21-8.66,4.09a20,20,0,0,0-3.55,11.49s-8.09,2.93-9.12,10.29a18,18,0,0,0-.16,1.92l0,.19A22,22,0,0,0,130,88.3a3.08,3.08,0,0,0,1.51,2.14l8.58,4.9a12.25,12.25,0,0,0-.88-6.28L181.69,64.4a18.53,18.53,0,0,0,4.62-6.65l3.27-.85S194.25,56.13,193.71,55.45Z" fill="#312f89"/><path d="M193.71,55.45c-.54-.68-8.05-5.14-8.05-5.14v0c-1.54-1.7-4.4-1.11-8.12,2.13,0,0-.13-3.55-4.38-4.12s-5.47,1.36-5.47,1.36-1.43-6.73-10-4.2c-7.74,2.3-6.65,10.08-6.65,10.08s-4.81-1.21-8.66,4.09a20,20,0,0,0-3.55,11.49s-8.09,2.93-9.12,10.29a18,18,0,0,0-.16,1.92l0,.19A22,22,0,0,0,130,88.3a3.08,3.08,0,0,0,1.51,2.14l8.58,4.9a12.25,12.25,0,0,0-.88-6.28L181.69,64.4a18.53,18.53,0,0,0,4.62-6.65l3.27-.85S194.25,56.13,193.71,55.45Z" fill="#c65c14"/><path d="M144.75,95.92l45.18-26.23s5.54-4.86,5.2-10.3-3.94-6.33-9.35-1.62c0,0-.11-4.56-4.38-4.12a7.71,7.71,0,0,0-5.89,3.24s.85-8.11-7.68-5.59a11.86,11.86,0,0,0-8.51,9.59s-4.81-1.21-8.66,4.09a20,20,0,0,0-3.55,11.49S139,79.4,138,86.76,140.49,97.42,144.75,95.92Z" fill="#e08141"/><path d="M162.06,151.25c.08.16.48,1.68.8,1.36s2,.4,2,.4l4.69-6-.62-1.95H164.7" fill="#68e1fd" class="target-color"/><path d="M184.71,125.55l.44-1.55,4.93-2.69v-8.4c0-.16-4.77,2.8-4.77,2.8l-.22-.47a11.27,11.27,0,0,0-1.45-3.63l3.47-6.41-4.41-3.35-3.3,6.61,0,0a7.51,7.51,0,0,0-3.64.06v-6.35l-6.31,3.5v6.64a27.92,27.92,0,0,0-3.37,3.88l-3.81-2.43-4.3,8.18,3.4,2.71-.29,1.37a37.48,37.48,0,0,0-1.05,4.42L155,133.23v8.37l4.82-2.87a10.84,10.84,0,0,0,1.56,4.29l-3.61,6.13,4.58,3.46,3.22-6.31h4v6.31l6-3.67v-6.2a24.88,24.88,0,0,0,3.63-4.5l3.62,2.48,4.37-8.35-3.63-2.68.36-1.25C184.21,127.46,184.49,126.5,184.71,125.55Z" fill="#68e1fd" class="target-color"/><polyline points="196.15 116.4 190.57 113.03 189.18 115.09 191.34 119.61" fill="#68e1fd" class="target-color"/><polyline points="188.85 144.21 184.72 142.5 184.72 140" fill="#68e1fd" class="target-color"/><polygon points="175.58 156.1 169.51 152.61 171.05 148.02 176.51 149.63 175.58 156.1" fill="#68e1fd" class="target-color"/><polygon points="182.71 101.84 188.77 105.34 185.44 111.97 181.8 112.03 180.96 105.34 182.71 101.84" fill="#68e1fd" class="target-color"/><ellipse cx="178.99" cy="130.78" rx="4.7" ry="2.73" transform="translate(-8.19 249.54) rotate(-68.55)" fill="#68e1fd" class="target-color"/><polygon points="169.43 105.69 175.5 109.19 181.8 105.69 175.74 102.19 169.43 105.69" fill="#68e1fd" class="target-color"/><polygon points="168.32 117.27 162.26 113.77 157.96 121.95 164.03 125.44 168.32 117.27" fill="#68e1fd" class="target-color"/><polygon points="157.72 149.14 163.79 152.64 168.36 156.1 162.3 152.61 157.72 149.14" fill="#68e1fd" class="target-color"/><path d="M162.06,151.25c.08.16.48,1.68.8,1.36s2,.4,2,.4l4.69-6-.62-1.95H164.7" fill="#053855" opacity="0.44"/><path d="M184.71,125.55l.44-1.55,4.93-2.69v-8.4c0-.16-4.77,2.8-4.77,2.8l-.22-.47a11.27,11.27,0,0,0-1.45-3.63l3.47-6.41-4.41-3.35-3.3,6.61,0,0a7.51,7.51,0,0,0-3.64.06v-6.35l-6.31,3.5v6.64a27.92,27.92,0,0,0-3.37,3.88l-3.81-2.43-4.3,8.18,3.4,2.71-.29,1.37a37.48,37.48,0,0,0-1.05,4.42L155,133.23v8.37l4.82-2.87a10.84,10.84,0,0,0,1.56,4.29l-3.61,6.13,4.58,3.46,3.22-6.31h4v6.31l6-3.67v-6.2a24.88,24.88,0,0,0,3.63-4.5l3.62,2.48,4.37-8.35-3.63-2.68.36-1.25C184.21,127.46,184.49,126.5,184.71,125.55Z" fill="#68e1fd" class="target-color"/><polyline points="196.15 116.4 190.57 113.03 189.18 115.09 191.34 119.61" fill="#053855" opacity="0.44"/><polyline points="188.85 144.21 184.72 142.5 184.72 140" fill="#68e1fd" class="target-color"/><polygon points="175.58 156.1 169.51 152.61 171.05 148.02 176.51 149.63 175.58 156.1" fill="#68e1fd" class="target-color"/><polygon points="182.71 101.84 188.77 105.34 185.44 111.97 181.8 112.03 180.96 105.34 182.71 101.84" fill="#68e1fd" class="target-color"/><ellipse cx="178.99" cy="130.78" rx="4.7" ry="2.73" transform="translate(-8.19 249.54) rotate(-68.55)" fill="#68e1fd" class="target-color"/><polygon points="168.32 117.27 162.26 113.77 157.96 121.95 164.03 125.44 168.32 117.27" fill="#68e1fd" class="target-color"/><polygon points="157.72 149.14 163.79 152.64 168.36 156.1 162.3 152.61 157.72 149.14" fill="#68e1fd" class="target-color"/><path d="M184.71,125.55l.44-1.55,4.93-2.69v-8.4c0-.16-4.77,2.8-4.77,2.8l-.22-.47a11.27,11.27,0,0,0-1.45-3.63l3.47-6.41-4.41-3.35-3.3,6.61,0,0a7.51,7.51,0,0,0-3.64.06v-6.35l-6.31,3.5v6.64a27.92,27.92,0,0,0-3.37,3.88l-3.81-2.43-4.3,8.18,3.4,2.71-.29,1.37a37.48,37.48,0,0,0-1.05,4.42L155,133.23v8.37l4.82-2.87a10.84,10.84,0,0,0,1.56,4.29l-3.61,6.13,4.58,3.46,3.22-6.31h4v6.31l6-3.67v-6.2a24.88,24.88,0,0,0,3.63-4.5l3.62,2.48,4.37-8.35-3.63-2.68.36-1.25C184.21,127.46,184.49,126.5,184.71,125.55Z" fill="#053855" opacity="0.44"/><polyline points="188.85 144.21 184.72 142.5 184.72 140" fill="#053855" opacity="0.1"/><polygon points="175.58 156.1 169.51 152.61 171.05 148.02 176.51 149.63 175.58 156.1" fill="#053855" opacity="0.1"/><ellipse cx="178.99" cy="130.78" rx="4.7" ry="2.73" transform="translate(-8.19 249.54) rotate(-68.55)" fill="#053855" opacity="0.1"/><polygon points="168.32 117.27 162.26 113.77 157.96 121.95 164.03 125.44 168.32 117.27" fill="#053855" opacity="0.1"/><polygon points="157.72 149.14 163.79 152.64 168.36 156.1 162.3 152.61 157.72 149.14" fill="#053855" opacity="0.1"/><polyline points="188.85 144.21 184.72 142.5 184.72 140" fill="#053855" opacity="0.1"/><polygon points="175.58 156.1 169.51 152.61 171.05 148.02 176.51 149.63 175.58 156.1" fill="#053855" opacity="0.44"/><path d="M190.78,129l.44-1.55,4.93-2.69v-8.4c0-.16-4.77,2.8-4.77,2.8l-.22-.47a11.27,11.27,0,0,0-1.45-3.63l3.47-6.41-4.41-3.35-3.3,6.61,0,0a7.51,7.51,0,0,0-3.64.06v-6.35l-6.31,3.5v6.64a27.92,27.92,0,0,0-3.37,3.88l-3.81-2.43-4.3,8.18,3.4,2.71-.29,1.37a37.48,37.48,0,0,0-1.05,4.42L161,136.73v8.37l4.82-2.87a10.84,10.84,0,0,0,1.56,4.29l-3.61,6.13,4.58,3.46,3.22-6.31h4v6.31l6-3.67v-6.2a24.88,24.88,0,0,0,3.63-4.5l3.62,2.48,4.37-8.35-3.63-2.68.36-1.25C190.28,131,190.55,130,190.78,129Z" fill="#68e1fd" class="target-color"/><ellipse cx="178.99" cy="130.78" rx="4.7" ry="2.73" transform="translate(-8.19 249.54) rotate(-68.55)" fill="#053855" opacity="0.44"/><polygon points="157.72 149.14 163.79 152.64 168.36 156.1 162.3 152.61 157.72 149.14" fill="#053855" opacity="0.44"/><polygon points="169.43 105.69 175.5 109.19 181.8 105.69 175.74 102.19 169.43 105.69" fill="#68e1fd" class="target-color"/><polygon points="169.43 105.67 175.48 109.18 181.8 105.71 175.75 102.19 169.43 105.67" fill="#053855" opacity="0.44"/><polygon points="154.96 133.23 161.03 136.73 161.03 145.1 154.96 141.6 154.96 133.23" fill="#68e1fd" class="target-color"/><polygon points="154.96 133.23 161.03 136.73 161.03 145.1 154.96 141.6 154.96 133.23" fill="#053855" opacity="0.44"/><polygon points="172.51 224.52 168.9 231.62 182.34 230.56 172.51 224.52" fill="#312f89"/><polygon points="168.9 228.84 168.9 231.62 173 230.58 173 227.85 168.9 228.84" fill="#312f89"/><polygon points="172.51 221.74 168.9 228.84 182.34 227.78 172.51 221.74" fill="#4a42a4"/><polygon points="182.34 227.78 182.34 230.56 176.21 230.56 176.52 228.24 182.34 227.78" fill="#312f89"/><polygon points="186.6 217.1 183 224.2 196.43 223.13 186.6 217.1" fill="#312f89"/><polygon points="183 221.42 183 224.2 187.09 223.15 187.09 220.43 183 221.42" fill="#312f89"/><polygon points="186.6 214.32 183 221.42 196.43 220.35 186.6 214.32" fill="#4a42a4"/><polygon points="196.43 220.35 196.43 223.13 190.31 223.13 190.62 220.81 196.43 220.35" fill="#312f89"/><path d="M292.13,91.4c3.58,2.81,7.87.58,10.92-1.85,2.48-2,5-4.88,7.82-6.93,0,.57-.08,1.15-.14,1.69l-.61,5.5L309,99.56c0,.17,0,.69-.09.83-4.7,6.08-19.45,3.65-19.45,3.65-.68-1.76.53-3.28,0-5.1s-3-7.32-.65-8.79a1.81,1.81,0,0,1,1.8.09A11.88,11.88,0,0,1,292.13,91.4Z" fill="#68e1fd" class="target-color"/><path d="M280.23,152.3s1.36,7.56-.85,8.45-11.19,7.9-9.85,10.71c3.08,6.45,21.48-7.58,21.48-7.58l-2.28-16" fill="#1d3f75"/><path d="M291.84,123.38c0,1.45,1.29,26.62,1.29,26.62s-10.22,9.43-17.85,8.84l-3.77-24.42" fill="#fff7e1"/><path d="M309.82,143.78s-13.58,1.56-21.58-6.7c-4.65-4.81-13.43-13-13.43-13l32.39-2.37" fill="#fff7e1"/><path d="M341.54,131.39s4.14-3,5.69-2.57,2.15,17.72,1.08,18.77-4.7,5-6.77,4.16-3.27-4.16-3.27-4.16" fill="#1d3f75"/><path d="M303.51,120.81l24.65,1.51-4.65,17.33,15.89-12c3.09,3.3,2.58,6.82,2.74,11.16a25.51,25.51,0,0,1-.83,8.41c-.09.29-.19.58-.29.87-1.48,1.36-3.21,2.56-4.39,3.49-2.86,2.26-5.62,4.61-8.43,6.93-4,3.26-7.74,6.39-12.75,7.89s-13.81-2.25-14.83-8.11C298.79,147.81,302,131.27,303.51,120.81Z" fill="#fff7e1"/><path d="M325.71,78.94c.94-1.65,3.89-3.82,5.6-1.92a2,2,0,0,1-.29,2.81c-.89.84-2.33,1.07-3.45,1.41a.91.91,0,0,1-1.17-.89A1,1,0,0,1,325.71,78.94Z" fill="#fbb5ad"/><path d="M304.67,110.26,329.93,104s-.79,11-1.77,18.28c-4.52,2-10,2-14.83,1.29a31.66,31.66,0,0,1-9.83-2.8,22.15,22.15,0,0,1-2.89-1.79C301,116.37,304.36,112.93,304.67,110.26Z" fill="#68e1fd" class="target-color"/><path d="M298.87,115.57c0,2,.53,6.87.64,8.85,10.64-2.84,33.7-10.54,35.24-26.4a14.43,14.43,0,0,0-.75-6.38c-1.34-2.16-3.53-3.92-5.31-5.58-2.71-2.53-6.08-5.07-9.82-5.74-4.6-.82-8.23,2.16-11.53,5.28-1.24,2.87,2.34,5.69,1.87,8.62l-6.43,19.32-3.92,2" fill="#68e1fd" class="target-color"/><path d="M318.78,73.57s-2.8,13,1.49,14.62,8.64-1.34,9.39-3.79a18.45,18.45,0,0,0,.3-6.19S326.77,73.62,318.78,73.57Z" fill="#fbb5ad"/><path d="M318.33,71.26c-.14-3.15,4.27-5.15,6.3-2.48a4.57,4.57,0,0,1,3.73-1.06c1.87.32,2.52,1.64,2.36,3.4a3.42,3.42,0,0,1,2.78,1.36,3.07,3.07,0,0,1,0,3.53,3.14,3.14,0,0,1,1.93,3.41,3.82,3.82,0,0,1-.67,1.83,2.93,2.93,0,0,1,.18.62,3,3,0,0,1-1.4,3,3.47,3.47,0,0,1-2,.59,2.67,2.67,0,0,1-2.46,1.44,2.58,2.58,0,0,1-2.47-2.38,2.51,2.51,0,0,1,.14-1,6.08,6.08,0,0,1-.31-4.16,2.23,2.23,0,0,1-.54-.26,2.54,2.54,0,0,1-1-1.5,3.59,3.59,0,0,1-1.85.16,1.71,1.71,0,0,1-1.27-1.14A4.2,4.2,0,0,1,317.37,75,3,3,0,0,1,318.33,71.26Z" fill="#d86212"/><path d="M325.66,82.48a3.1,3.1,0,0,1,1.35-2,1.63,1.63,0,0,1,2.33.22,1.87,1.87,0,0,1-.11,2.17c-.57.75-1.51.75-2.32,1.09-.48.2-.78-.29-.67-.7A.63.63,0,0,1,325.66,82.48Z" fill="#fbb5ad"/><path d="M319.66,79.23c.06-.3.52-.17.46.13l-.4,2a5.48,5.48,0,0,0-.18.94c0,.56.28.67.7.92a.24.24,0,0,1-.24.41c-.55-.33-1-.5-1-1.19A26.61,26.61,0,0,1,319.66,79.23Z" fill="#56403d"/><path d="M318.56,78.67a.24.24,0,0,1,0,.48A.24.24,0,0,1,318.56,78.67Z" fill="#56403d"/><path d="M323.17,80.23a.24.24,0,0,1,0,.48A.24.24,0,0,1,323.17,80.23Z" fill="#56403d"/><path d="M320.73,84.58a1.64,1.64,0,0,0,2.06-.67.24.24,0,0,1,.41.24,2.13,2.13,0,0,1-2.71.85C320.21,84.87,320.45,84.46,320.73,84.58Z" fill="#56403d"/><path d="M301.54,127.57c.14-.75,1.28-.43,1.14.32a156.08,156.08,0,0,0-2.27,16.93c-.06.76-1.25.76-1.19,0A159,159,0,0,1,301.54,127.57Z" fill="#1d3f75"/><path d="M318.66,156.26a126.3,126.3,0,0,0,4.17-15.77c.15-.75,1.29-.43,1.14.32a126.3,126.3,0,0,1-4.17,15.77C319.56,157.29,318.42,157,318.66,156.26Z" fill="#1d3f75"/><path d="M307.72,122.19a49.88,49.88,0,0,0,22.21-13.79c.39-.42,1,.21.63.63A50.78,50.78,0,0,1,308,123,.44.44,0,0,1,307.72,122.19Z" fill="#1d3f75"/><path d="M298.38,115.06A75.85,75.85,0,0,0,315,105.78c.46-.34.9.43.45.77a76.71,76.71,0,0,1-16.79,9.37C298.09,116.13,297.86,115.27,298.38,115.06Z" fill="#1d3f75"/><path d="M303.92,107.18,308,94.7c.18-.54,1-.31.86.24l-4.11,12.48C304.6,108,303.74,107.73,303.92,107.18Z" fill="#1d3f75"/><polyline points="290.67 83.53 290.67 129.77 254.86 150.45 225.69 133.11 225.69 90.14" fill="#4a42a4"/><polygon points="254.86 150.45 254.86 104.82 225.69 87.74 225.69 133.11 254.86 150.45" fill="#312f89"/><polygon points="261.18 66.06 290.67 83.53 254.86 104.82 225.69 87.74 261.18 66.06" fill="#5d5bc4"/><polygon points="286 91.14 286 100.71 259.17 116.02 259.17 106.63 286 91.14" fill="#7374b7"/><ellipse cx="262.21" cy="109.74" rx="1.14" ry="0.72" transform="matrix(0.29, -0.96, 0.96, 0.29, 80.37, 328.21)" fill="#f7931e"/><ellipse cx="264.5" cy="108.39" rx="1.14" ry="0.72" transform="matrix(0.29, -0.96, 0.96, 0.29, 83.27, 329.45)" fill="#d9e021"/><line x1="267.03" y1="107.34" x2="283.62" y2="97.81" fill="none" stroke="#f2f2f2" stroke-miterlimit="10" stroke-width="0.25"/><polygon points="286.63 104.55 286.63 114.12 259.8 129.43 259.8 120.04 286.63 104.55" fill="#7374b7"/><ellipse cx="262.84" cy="123.15" rx="1.14" ry="0.72" transform="matrix(0.29, -0.96, 0.96, 0.29, 67.99, 338.29)" fill="#f7931e"/><ellipse cx="265.13" cy="121.81" rx="1.14" ry="0.72" transform="matrix(0.29, -0.96, 0.96, 0.29, 70.89, 339.53)" fill="#d9e021"/><line x1="267.66" y1="120.75" x2="284.25" y2="111.23" fill="none" stroke="#f2f2f2" stroke-miterlimit="10" stroke-width="0.25"/><polygon points="286.63 117.95 286.63 127.52 259.8 142.83 259.8 133.44 286.63 117.95" fill="#7374b7"/><ellipse cx="262.84" cy="136.55" rx="1.14" ry="0.72" transform="matrix(0.29, -0.96, 0.96, 0.29, 55.18, 347.76)" fill="#f7931e"/><ellipse cx="265.13" cy="135.21" rx="1.14" ry="0.72" transform="matrix(0.29, -0.96, 0.96, 0.29, 58.08, 348.99)" fill="#d9e021"/><line x1="267.66" y1="134.15" x2="284.25" y2="124.63" fill="none" stroke="#f2f2f2" stroke-miterlimit="10" stroke-width="0.25"/><polyline points="225.69 103.62 254.72 120.75 290.67 99.87" fill="none" stroke="#1b1464" stroke-miterlimit="10" stroke-width="0.25"/><polyline points="225.69 117.02 254.72 134.15 290.67 113.27" fill="none" stroke="#1b1464" stroke-miterlimit="10" stroke-width="0.25"/><path d="M291.38,112.76a2.94,2.94,0,0,1,2.67,1.72c.38.66.64,1.37,1.07,2,.71,1,1.28.62,2.3.14s2.08,1.13,1,1.65a6.64,6.64,0,0,1-2.85,1,2.35,2.35,0,0,1-1.52-1.09.88.88,0,0,1-1.52.36c-.84-1-2.05-2.18-2.39-3.48A1.69,1.69,0,0,1,291.38,112.76Z" fill="#fbb5ad"/><path d="M285.61,120.42q6.61-2.23,13.24-4.41c.27,2.24.41,4.49.59,6.73a32.36,32.36,0,0,1-6.51,6,1.07,1.07,0,0,1-1.59-.91,3.49,3.49,0,0,1,.35-1.2,14.44,14.44,0,0,1-2.88,1.48,1.07,1.07,0,0,1-1-1.77l.88-.72a8.9,8.9,0,0,1-2.25.1c-1.12-.1-1.53-1.8-.28-2.08.5-.11,1-.26,1.47-.41a5.13,5.13,0,0,1-2.45-1C284.47,121.66,284.93,120.65,285.61,120.42Z" fill="#fbb5ad"/><polyline points="266.71 198.97 266.71 200.34 266.02 201.19" fill="#adcee1"/><path d="M239.15,182.27l26.77,16.59a1.66,1.66,0,0,1-.06,2.85l-40.63,23a3.72,3.72,0,0,1-3.72,0L194.87,209c-1.94-1.59-1.79-4.59,0-4.71l40.39-22.08A3.78,3.78,0,0,1,239.15,182.27Z" fill="#88d3d8"/><path d="M239.15,181.13l26.77,16.59a1.66,1.66,0,0,1-.06,2.85l-40.63,23a3.72,3.72,0,0,1-3.72,0l-26.65-15.67a2.06,2.06,0,0,1,0-3.57l40.39-23.23A3.78,3.78,0,0,1,239.15,181.13Z" fill="#fff"/><path d="M238.06,178.86S226.94,143,227,143s-.35-1.59-2.33-.69L182,167.4s-2.07.84-1.67,2.77,10.87,35.11,10.87,35.11a1.8,1.8,0,0,0,2,.69c1.3-.4,43.83-25.11,43.83-25.11A1.63,1.63,0,0,0,238.06,178.86Z" fill="#053855"/><polygon points="226.3 145.58 182.61 171.06 191.67 201.48 235.93 176.77 226.3 145.58" fill="#68e1fd" class="target-color"/><path d="M240.8,184.93l9.79,6.1a1.18,1.18,0,0,1,0,2l-35.13,20a3.46,3.46,0,0,1-3.45,0c-2.26-1.32-6.15-3.69-8.53-5.15a1.44,1.44,0,0,1,0-2.47l35.36-20.56A1.91,1.91,0,0,1,240.8,184.93Z" fill="#68e1fd" class="target-color"/><path d="M240.27,201.48,228,208.38a1.23,1.23,0,0,0,0,2.13l7.22,4.22a1.63,1.63,0,0,0,1.63,0l12.56-7.16a1,1,0,0,0,0-1.78l-7.51-4.31A1.63,1.63,0,0,0,240.27,201.48Z" fill="#68e1fd" class="target-color"/><path d="M240.8,184.93l9.79,6.1a1.18,1.18,0,0,1,0,2l-35.13,20a3.46,3.46,0,0,1-3.45,0c-2.26-1.32-6.15-3.69-8.53-5.15a1.44,1.44,0,0,1,0-2.47l35.36-20.56A1.91,1.91,0,0,1,240.8,184.93Z" fill="#053855" opacity="0.1"/><path d="M240.27,201.48,228,208.38a1.23,1.23,0,0,0,0,2.13l7.22,4.22a1.63,1.63,0,0,0,1.63,0l12.56-7.16a1,1,0,0,0,0-1.78l-7.51-4.31A1.63,1.63,0,0,0,240.27,201.48Z" fill="#053855" opacity="0.1"/><path d="M192.24,100.33c0,.09.27.95.45.77s1.13.23,1.13.23L196.47,98l-.35-1.1h-2.39" fill="#68e1fd" class="target-color"/><path d="M205,85.8l.25-.88,2.79-1.52V78.66c0-.09-2.69,1.58-2.69,1.58l-.13-.26a6.37,6.37,0,0,0-.82-2.05l2-3.62-2.49-1.9L202,76.15h0a4.24,4.24,0,0,0-2.06,0V72.61l-3.56,2v3.75a15.77,15.77,0,0,0-1.9,2.19l-2.15-1.37-2.43,4.62,1.92,1.53-.16.78a21.18,21.18,0,0,0-.6,2.5l-2.86,1.57v4.73L191,93.25a6.13,6.13,0,0,0,.88,2.42l-2,3.46,2.59,2,1.82-3.56h2.26v3.56l3.4-2.07v-3.5A14.06,14.06,0,0,0,201.91,93l2,1.4,2.47-4.72-2-1.51.2-.71C204.76,86.89,204.91,86.34,205,85.8Z" fill="#68e1fd" class="target-color"/><polyline points="211.5 80.64 208.35 78.73 207.57 79.9 208.79 82.45" fill="#68e1fd" class="target-color"/><polyline points="207.38 96.35 205.05 95.38 205.05 93.97" fill="#68e1fd" class="target-color"/><polygon points="199.88 103.07 196.46 101.09 197.32 98.5 200.41 99.41 199.88 103.07" fill="#68e1fd" class="target-color"/><polygon points="203.91 72.41 207.34 74.39 205.46 78.13 203.4 78.17 202.92 74.39 203.91 72.41" fill="#68e1fd" class="target-color"/><ellipse cx="201.81" cy="88.76" rx="2.66" ry="1.54" transform="translate(45.39 244.12) rotate(-68.55)" fill="#68e1fd" class="target-color"/><polygon points="196.41 74.58 199.84 76.56 203.4 74.58 199.97 72.61 196.41 74.58" fill="#68e1fd" class="target-color"/><polygon points="195.78 81.13 192.35 79.15 189.93 83.77 193.35 85.75 195.78 81.13" fill="#68e1fd" class="target-color"/><polygon points="189.79 99.14 193.22 101.11 195.81 103.07 192.38 101.09 189.79 99.14" fill="#68e1fd" class="target-color"/><path d="M192.24,100.33c0,.09.27.95.45.77s1.13.23,1.13.23L196.47,98l-.35-1.1h-2.39" fill="#053855" opacity="0.44"/><path d="M205,85.8l.25-.88,2.79-1.52V78.66c0-.09-2.69,1.58-2.69,1.58l-.13-.26a6.37,6.37,0,0,0-.82-2.05l2-3.62-2.49-1.9L202,76.15h0a4.24,4.24,0,0,0-2.06,0V72.61l-3.56,2v3.75a15.77,15.77,0,0,0-1.9,2.19l-2.15-1.37-2.43,4.62,1.92,1.53-.16.78a21.18,21.18,0,0,0-.6,2.5l-2.86,1.57v4.73L191,93.25a6.13,6.13,0,0,0,.88,2.42l-2,3.46,2.59,2,1.82-3.56h2.26v3.56l3.4-2.07v-3.5A14.06,14.06,0,0,0,201.91,93l2,1.4,2.47-4.72-2-1.51.2-.71C204.76,86.89,204.91,86.34,205,85.8Z" fill="#68e1fd" class="target-color"/><polyline points="211.5 80.64 208.35 78.73 207.57 79.9 208.79 82.45" fill="#053855" opacity="0.44"/><polyline points="207.38 96.35 205.05 95.38 205.05 93.97" fill="#68e1fd" class="target-color"/><polygon points="199.88 103.07 196.46 101.09 197.32 98.5 200.41 99.41 199.88 103.07" fill="#68e1fd" class="target-color"/><polygon points="203.91 72.41 207.34 74.39 205.46 78.13 203.4 78.17 202.92 74.39 203.91 72.41" fill="#68e1fd" class="target-color"/><ellipse cx="201.81" cy="88.76" rx="2.66" ry="1.54" transform="translate(45.39 244.12) rotate(-68.55)" fill="#68e1fd" class="target-color"/><polygon points="195.78 81.13 192.35 79.15 189.93 83.77 193.35 85.75 195.78 81.13" fill="#68e1fd" class="target-color"/><polygon points="189.79 99.14 193.22 101.11 195.81 103.07 192.38 101.09 189.79 99.14" fill="#68e1fd" class="target-color"/><path d="M205,85.8l.25-.88,2.79-1.52V78.66c0-.09-2.69,1.58-2.69,1.58l-.13-.26a6.37,6.37,0,0,0-.82-2.05l2-3.62-2.49-1.9L202,76.15h0a4.24,4.24,0,0,0-2.06,0V72.61l-3.56,2v3.75a15.77,15.77,0,0,0-1.9,2.19l-2.15-1.37-2.43,4.62,1.92,1.53-.16.78a21.18,21.18,0,0,0-.6,2.5l-2.86,1.57v4.73L191,93.25a6.13,6.13,0,0,0,.88,2.42l-2,3.46,2.59,2,1.82-3.56h2.26v3.56l3.4-2.07v-3.5A14.06,14.06,0,0,0,201.91,93l2,1.4,2.47-4.72-2-1.51.2-.71C204.76,86.89,204.91,86.34,205,85.8Z" fill="#053855" opacity="0.44"/><polyline points="207.38 96.35 205.05 95.38 205.05 93.97" fill="#053855" opacity="0.1"/><polygon points="199.88 103.07 196.46 101.09 197.32 98.5 200.41 99.41 199.88 103.07" fill="#053855" opacity="0.1"/><ellipse cx="201.81" cy="88.76" rx="2.66" ry="1.54" transform="translate(45.39 244.12) rotate(-68.55)" fill="#053855" opacity="0.1"/><polygon points="195.78 81.13 192.35 79.15 189.93 83.77 193.35 85.75 195.78 81.13" fill="#053855" opacity="0.1"/><polygon points="189.79 99.14 193.22 101.11 195.81 103.07 192.38 101.09 189.79 99.14" fill="#053855" opacity="0.1"/><polyline points="207.38 96.35 205.05 95.38 205.05 93.97" fill="#053855" opacity="0.1"/><polygon points="199.88 103.07 196.46 101.09 197.32 98.5 200.41 99.41 199.88 103.07" fill="#053855" opacity="0.44"/><path d="M208.47,87.78l.25-.88,2.79-1.52V80.64c0-.09-2.69,1.58-2.69,1.58l-.13-.26a6.37,6.37,0,0,0-.82-2.05l2-3.62-2.49-1.9-1.86,3.74h0a4.24,4.24,0,0,0-2.06,0V74.58l-3.56,2v3.75a15.77,15.77,0,0,0-1.9,2.19l-2.15-1.37-2.43,4.62,1.92,1.53-.16.78a21.18,21.18,0,0,0-.6,2.5l-2.86,1.57v4.73l2.72-1.62a6.13,6.13,0,0,0,.88,2.42l-2,3.46,2.59,2,1.82-3.56h2.26v3.56l3.4-2.07v-3.5A14.06,14.06,0,0,0,205.34,95l2,1.4,2.47-4.72-2-1.51.2-.71C208.19,88.86,208.34,88.32,208.47,87.78Z" fill="#68e1fd" class="target-color"/><ellipse cx="201.81" cy="88.76" rx="2.66" ry="1.54" transform="translate(45.39 244.12) rotate(-68.55)" fill="#053855" opacity="0.44"/><polygon points="189.79 99.14 193.22 101.11 195.81 103.07 192.38 101.09 189.79 99.14" fill="#053855" opacity="0.44"/><polygon points="196.41 74.58 199.84 76.56 203.4 74.58 199.97 72.61 196.41 74.58" fill="#68e1fd" class="target-color"/><polygon points="196.41 74.57 199.83 76.56 203.4 74.59 199.98 72.61 196.41 74.57" fill="#053855" opacity="0.44"/><polygon points="188.23 90.15 191.66 92.12 191.66 96.85 188.23 94.87 188.23 90.15" fill="#68e1fd" class="target-color"/><polygon points="188.23 90.15 191.66 92.12 191.66 96.85 188.23 94.87 188.23 90.15" fill="#053855" opacity="0.44"/></svg>