<svg xmlns="http://www.w3.org/2000/svg" xmlns:xlink="http://www.w3.org/1999/xlink" viewBox="0 0 400 300" data-imageid="data-maintenance-7" imageName="Data Visualization" class="illustrations_image" style="width: 214px;"><defs><linearGradient id="linear-gradient" x1="266.7" y1="230.61" x2="252.46" y2="206.88" gradientUnits="userSpaceOnUse"><stop offset="0" stop-color="#fff" stop-opacity="0"/><stop offset="0.99" stop-color="#2e7c5f"/></linearGradient></defs><title>151-160</title><g style="isolation:isolate"><g id="Layer_2" data-name="Layer 2"><path d="M383.25,160.7,247.64,81.84a6.41,6.41,0,0,0-6.41,0L38.45,197.89a6.41,6.41,0,0,0,0,11.12l129.68,74.87a20.93,20.93,0,0,0,20.93,0L383.23,171.8A6.41,6.41,0,0,0,383.25,160.7Z" fill="#afdbbd"/><path d="M194.33,271.12c17.05,9.76-8.14-5.64,8.51,4.79,13.73-6.67,134.74-76.93,151.32-89.11-23.87-12.44-16.91-11.39-31.65-20.61L167.22,254.39C176.68,259.35,185.55,266.1,194.33,271.12Z" opacity="0.63" fill="url(#linear-gradient)" style="mix-blend-mode:multiply"/><path d="M159.68,103v51.6" fill="none" stroke="#42210b" stroke-miterlimit="10" stroke-width="2"/><polygon points="66.06 203.04 163.06 258.45 334.65 158.38 238.68 103 66.06 203.04" fill="none" stroke="#42210b" stroke-miterlimit="10" stroke-width="2"/><path d="M217.37,52.34C216.26,50.93,200.7,41.7,200.7,41.7l0,.08c-3.19-3.53-9.11-2.29-16.8,4.4,0,0-.27-7.35-9.07-8.53s-11.32,2.82-11.32,2.82-3-13.93-20.62-8.7c-16,4.75-13.77,20.87-13.77,20.87s-10-2.5-17.93,8.47-7.36,23.8-7.36,23.8S87,91,84.9,106.22a37.36,37.36,0,0,0-.33,4l0,.39a45.58,45.58,0,0,0,.88,9.78,6.37,6.37,0,0,0,3.12,4.44l17.77,10.14a25.37,25.37,0,0,0-1.81-13l88-51.08s6.73-5.92,9.56-13.76l6.77-1.75S218.48,53.76,217.37,52.34Z" fill="#68e1fd" class="target-color"/><path d="M217.37,52.34C216.26,50.93,200.7,41.7,200.7,41.7l0,.08c-3.19-3.53-9.11-2.29-16.8,4.4,0,0-.27-7.35-9.07-8.53s-11.32,2.82-11.32,2.82-3-13.93-20.62-8.7c-16,4.75-13.77,20.87-13.77,20.87s-10-2.5-17.93,8.47-7.36,23.8-7.36,23.8S87,91,84.9,106.22a37.36,37.36,0,0,0-.33,4l0,.39a45.58,45.58,0,0,0,.88,9.78,6.37,6.37,0,0,0,3.12,4.44l17.77,10.14a25.37,25.37,0,0,0-1.81-13l88-51.08s6.73-5.92,9.56-13.76l6.77-1.75S218.48,53.76,217.37,52.34Z" opacity="0.15"/><path d="M116,136.13l93.56-54.32S221,71.76,220.32,60.48s-8.17-13.1-19.37-3.35c0,0-.23-9.45-9.07-8.53s-12.19,6.7-12.19,6.7,1.76-16.8-15.9-11.57a24.56,24.56,0,0,0-17.63,19.86s-10-2.5-17.93,8.47-7.36,23.8-7.36,23.8-16.76,6.07-18.89,21.3S107.15,139.25,116,136.13Z" fill="#68e1fd" class="target-color"/><path d="M259.33,183.9l18,8.65a4.14,4.14,0,0,1,.29,7.3L235,224.71a4.14,4.14,0,0,1-5.57-1.34l-10.35-16.1" fill="#606060"/><path d="M161.53,142.27,304.9,59.67a6.47,6.47,0,0,1,9.7,5.6V151.2a5.38,5.38,0,0,1-2.69,4.66L159.09,244.06a3.47,3.47,0,0,1-5.2-3V155.49A15.26,15.26,0,0,1,161.53,142.27Z" fill="#68e1fd" class="target-color"/><path d="M304.88,66.16l-139,80A9.75,9.75,0,0,0,161,154.6V219a3.52,3.52,0,0,0,5.27,3.05L308,140.7a3.47,3.47,0,0,0,1.74-3V69A3.27,3.27,0,0,0,304.88,66.16Z" fill="#003a7f"/><ellipse cx="247.04" cy="184.25" rx="3.45" ry="3.02" transform="translate(19.39 391.98) rotate(-79.1)" fill="#ab643c"/><line x1="271.48" y1="99.12" x2="271.48" y2="154.31" fill="none" stroke="#29abe2" stroke-miterlimit="10"/><line x1="257.77" y1="107.7" x2="257.77" y2="162.88" fill="none" stroke="#29abe2" stroke-miterlimit="10"/><line x1="236.35" y1="120.44" x2="236.35" y2="175.62" fill="none" stroke="#29abe2" stroke-miterlimit="10"/><line x1="220.87" y1="128.84" x2="220.87" y2="184.03" fill="none" stroke="#29abe2" stroke-miterlimit="10"/><line x1="207.01" y1="137.81" x2="207.01" y2="193" fill="none" stroke="#29abe2" stroke-miterlimit="10"/><path d="M270.25,146.08s-3.51-17.14-10.54-14c-7.46,3.29-.67,17.42-8.76,21.63-7.83,4.07-5.56-25.74-14.62-22.22-8.09,3.14-5.07,15.18-5.08,21.34,0,2.84,1,13.38-4.57,15-9.69,2.82-5.67-26.19-18.15-19.6" fill="none" stroke="#fff" stroke-miterlimit="10"/><ellipse cx="270.25" cy="146.19" rx="1.52" ry="1.83" fill="#fff"/><ellipse cx="208.53" cy="148.58" rx="1.52" ry="1.83" fill="#fff"/><ellipse cx="243.13" cy="137.81" rx="1.52" ry="1.83" fill="#fff"/><ellipse cx="231.2" cy="150.41" rx="1.52" ry="1.83" fill="#fff"/></g></g></svg>