<svg xmlns="http://www.w3.org/2000/svg" xmlns:xlink="http://www.w3.org/1999/xlink" viewBox="0 0 400 300" data-imageid="ar-a" imageName="Data organization" class="illustrations_image" style="width: 214px;"><defs><linearGradient id="linear-gradient" x1="183.15" y1="251.33" x2="268.31" y2="185.61" gradientUnits="userSpaceOnUse"><stop offset="0" stop-color="#fff" stop-opacity="0"/><stop offset="1"/></linearGradient><linearGradient id="linear-gradient-2" x1="118.94" y1="149.34" x2="164.97" y2="113.81" xlink:href="#linear-gradient"/><linearGradient id="linear-gradient-3" x1="47.09" y1="194.8" x2="93.13" y2="159.27" xlink:href="#linear-gradient"/></defs><title>PP</title><g style="isolation:isolate"><g id="Layer_2" data-name="Layer 2"><path d="M194.28,289.5,14.56,183.29c-5.72-3.21-10.63-8.49-5.05-11.94l180.37-104c2.71-1.68,6.82-2.78,9.57-1.18L388.11,175.7c5.72,3.32,6.75,12.6,1,15.93L218,289.34A23.9,23.9,0,0,1,194.28,289.5Z" fill="#16a79e"/><polygon points="222.89 176.91 144.47 227.8 199.08 274.81 285.76 225.51 222.89 176.91" opacity="0.5" fill="url(#linear-gradient)" style="mix-blend-mode:multiply"/><polygon points="137.02 119.65 102.42 142.31 121.14 157.19 170.02 129.69 137.02 119.65" opacity="0.5" fill="url(#linear-gradient-2)" style="mix-blend-mode:multiply"/><polyline points="131.45 61.8 187.06 30.28 207.16 42.9 182.02 68.24 149.76 82.88" fill="#68e1fd" class="target-color"/><polyline points="131.45 61.8 187.06 30.28 207.16 42.9 182.02 68.24 149.76 82.88" fill="#fff" opacity="0.5"/><polygon points="153.47 74.42 207.16 42.9 207.16 50.88 207.16 54.85 207.16 108.82 153.47 138.7 153.47 138.44 153.01 138.7 131.45 125.57 131.45 73.08 131.45 61.8 153.47 74.42" fill="#68e1fd" class="target-color"/><polygon points="149.63 79.21 149.63 106.81 134.07 97.66 134.07 70.38 149.63 79.21" fill="#ffecb3"/><polygon points="153.47 74.42 153.47 138.7 207.16 108.82 207.16 42.9 153.47 74.42" opacity="0.2"/><ellipse cx="140.67" cy="114.1" rx="3.54" ry="5.2" transform="translate(-22.24 34.94) rotate(-13.13)" fill="#ffecb3"/><polygon points="191.53 194.89 196.78 197.49 199.85 194.56 204.23 189.54 195.7 187.93 191.53 194.89" fill="#467ec1"/><path d="M260.94,79.37,232,93.08l-4.15,12.56-42.6,23.18a3.56,3.56,0,0,0-1.83,3.58l8.12,62.5,79-46.17L265.8,95.4c-.11-2.22-1.21-10.09-1.82-14.41A2.14,2.14,0,0,0,260.94,79.37Z" fill="#2c2cb5"/><path d="M272.94,84.6l-31.41,16.24-4.19,10.32L198.7,133.38a3.82,3.82,0,0,0-1.92,3.32v60.8l79-46.17V88.22l-.1-2.06A1.87,1.87,0,0,0,272.94,84.6Z" fill="#68e1fd" class="target-color"/><polygon points="216.82 206.49 222.07 209.09 225.14 206.16 229.53 201.14 220.99 199.52 216.82 206.49" fill="#467ec1"/><path d="M286.23,91l-29,13.71-4.15,12.56-42.6,23.18A3.56,3.56,0,0,0,208.7,144l8.12,62.5,79-46.17L291.09,107c-.11-2.22-1.21-10.09-1.82-14.41A2.14,2.14,0,0,0,286.23,91Z" fill="#2c2cb5"/><path d="M298.23,96.19l-31.41,16.24-4.19,10.32L224,145a3.82,3.82,0,0,0-1.92,3.32v60.8l79-46.17V99.82l-.1-2.06A1.87,1.87,0,0,0,298.23,96.19Z" fill="#68e1fd" class="target-color"/><polygon points="65.18 165.11 30.57 187.77 49.3 202.65 98.17 175.15 65.18 165.11" opacity="0.5" fill="url(#linear-gradient-3)" style="mix-blend-mode:multiply"/><path d="M65.3,136.32v35.84s34.45,1.91,34.45,0V136.32" fill="#68e1fd" class="target-color"/><ellipse cx="82.52" cy="171.86" rx="17.23" ry="7.87" fill="#68e1fd" class="target-color"/><ellipse cx="82.52" cy="136.32" rx="17.23" ry="7.87" fill="#3129a3"/><path d="M71.79,142.44l.12.06c.66.23,1.33.44,2,.61l-4.69-39.25a2.35,2.35,0,0,0-2.4.44l4.81,38.06Z" fill="#f78b72"/><path d="M77.14,143.65l1.46-36.84a2.35,2.35,0,0,0-2.44.06L75,143.35A19.31,19.31,0,0,0,77.14,143.65Z" fill="#f78b72"/><path d="M82.52,144.19l4.74-38.41,9.59,5.07L93,143.11A29.3,29.3,0,0,1,82.52,144.19Z" fill="#fcb749"/><polygon points="234.77 223.26 240.03 225.86 243.1 222.93 247.48 217.91 238.94 216.3 234.77 223.26" fill="#467ec1"/><path d="M304.18,107.74l-29,13.71L271.08,134l-42.6,23.18a3.56,3.56,0,0,0-1.83,3.58l8.12,62.5,79-46.17L309,123.78c-.11-2.22-1.21-10.09-1.82-14.41A2.14,2.14,0,0,0,304.18,107.74Z" fill="#2c2cb5"/><path d="M316.18,113l-31.41,16.24-4.19,10.32-38.64,22.22a3.82,3.82,0,0,0-1.92,3.32v60.8l79-46.17V116.59l-.1-2.06A1.87,1.87,0,0,0,316.18,113Z" fill="#68e1fd" class="target-color"/><polygon points="260.06 234.86 265.32 237.46 268.39 234.53 272.77 229.51 264.24 227.9 260.06 234.86" fill="#467ec1"/><path d="M329.47,119.34l-29,13.71-4.15,12.56-42.6,23.18a3.56,3.56,0,0,0-1.83,3.58l8.12,62.5,79-46.17-4.73-53.32c-.11-2.22-1.21-10.09-1.82-14.41A2.14,2.14,0,0,0,329.47,119.34Z" fill="#2c2cb5"/><path d="M341.47,124.57l-31.41,16.24-4.19,10.32-38.64,22.22a3.82,3.82,0,0,0-1.92,3.32v60.8l79-46.17V128.19l-.1-2.06A1.87,1.87,0,0,0,341.47,124.57Z" fill="#68e1fd" class="target-color"/><path d="M219.4,116.77q4.74-2.41,9.34-5.08a37.36,37.36,0,0,1,1.82-3.44c1.08-1.77,2.76-3,4.91-2.61a1.65,1.65,0,0,1-.12,3.26l-.25.3c3.81.17,10.68.74,9.13,4.49a2.89,2.89,0,0,1,.38.37,2.41,2.41,0,0,1-.23,3.3,2.79,2.79,0,0,1-2.6.7,2.62,2.62,0,0,1-3.35,1.25l-.94-.29a1.48,1.48,0,0,1-1.78,1.64c-1-.21-2.1-.41-3.14-.61-7.14,2.28-10.69,3.1-13.38,4.93-1.11.76,0,1,0,0a1.49,1.49,0,0,1,.34-2.15l.31-.22a1.52,1.52,0,0,1-.26-2.21c.12-.15.25-.29.38-.44C218.5,120,217.77,117.6,219.4,116.77Z" fill="#ff7d09"/><path d="M182.82,226.48,181.08,251l3.08,2.66,3.41-.89s-.44-6.5.76-7.93,3.25,5.63,4.41,5.59S207.82,246.73,208,245c.27-2.27-2.86-4.86-8.76-3.43-6.39,1.55-7.51-5.65-8.51-12.55" fill="#f8997c"/><path d="M192.81,231.39s-6.06,2.57-16.49-4.09c0,0,3.6-32.57,3.29-38.19s-6.58-46.12,1.16-55,21.62,77,21,77.44" fill="#a1c3fc"/><path d="M187.75,245.84l.58-1s1.71-1.58,3.38-.81,1.43,6.61,1.43,6.61l-5.8-2.17A6.33,6.33,0,0,1,187.75,245.84Z" fill="#9e005d"/><path d="M201.74,238.52l.6,24.61,3.31,2.36,3.32-1.21s-1.05-6.43,0-8,3.77,5.3,4.92,5.15,14.66-5.17,14.7-6.89c.05-2.29-3.31-4.57-9-2.58-6.21,2.15-8-4.91-9.67-11.68" fill="#f8997c"/><path d="M208.48,257.33l.49-1s1.55-1.74,3.29-1.12,2.05,6.44,2.05,6.44l-6-1.61A6.33,6.33,0,0,1,208.48,257.33Z" fill="#9e005d"/><path d="M203.76,143.67s10.3,27.78,12.64,39.82,2.43,57.15,1.59,58.37-10.85,3.35-17.6,3.23-5.83-53.34-5.83-53.34-18.4-46.62-13.48-51.74S203.76,143.67,203.76,143.67Z" fill="#a1c3fc"/><path d="M204.17,144.2c-9.35,3-21.22-.59-26.94-8.62,1.08-13.15,3.34-34.89,6.71-38.15,4.88-4.71,15.45,2,19.28,8.56,2,3.4,5.7,15.48,5.7,15.48l14.4-8.2,4.37,10.24s-9.86,18.59-23.2,14.36Z" fill="#f8997c"/><path d="M195.17,120.07a.55.55,0,0,1,1.1,0c0,4.18.13,8.64,2.15,12.41,1.65,3.08,4.66,5.67,8.27,5.85.7,0,.71,1.13,0,1.1-3.85-.19-7.11-2.74-9-6C195.36,129.43,195.14,124.6,195.17,120.07Z" fill="#fff"/><path d="M200.21,73.53c.76.16,2,1.37,3.8,5.66S201.46,89,199.56,90.1s-4.66,5.62-4.66,5.62-7,1.69-11.67-6.86S188.88,71.06,200.21,73.53Z" fill="#ffb468"/><path d="M202.18,78.31s3.52,14.29-1.66,17.56-12.18-5.4-12.85-8.86S190.79,76,202.18,78.31Z" fill="#ff7d09"/><path d="M202.18,78.31s.87,9.34-4,11.39-4.93,5-4.93,5-8.84-4.73-9.76-8.91S195.41,74.56,202.18,78.31Z" fill="#ffb468"/><path d="M185.93,89.53c1.76,14-1.78,31.92,4,45.06.36.8,1.13,4.45,1.73,4.44l-14.12-7.7c-5.66-3.51-9.78-5.77-7.76-14.66s13.41-27.82,13.41-27.82Z" fill="#ffb468"/><path d="M207.47,114.47a107.86,107.86,0,0,1,2.09,11.26c.09.7-1,.7-1.11,0a105.13,105.13,0,0,0-2.05-11C206.23,114.07,207.3,113.78,207.47,114.47Z" fill="#fff"/><path d="M187.59,95.85,188.91,93A62.64,62.64,0,0,0,197,96.48c3.32,1,2.39,4.85,2.39,4.85S191.66,101.34,187.59,95.85Z" fill="#5fad00"/><path d="M302.68,193.9l.26-.91,2.91-1.59v-5c0-.1-2.82,1.66-2.82,1.66l-.13-.28a6.66,6.66,0,0,0-.86-2.14l2.05-3.79-2.61-2-1.95,3.9h0a4.43,4.43,0,0,0-2.15,0v-3.75l-3.73,2.07v3.92a16.49,16.49,0,0,0-2,2.29l-2.25-1.44-2.54,4.83,2,1.6-.17.81a22.13,22.13,0,0,0-.62,2.61l-3,1.65v4.94l2.84-1.7a6.4,6.4,0,0,0,.92,2.53l-2.13,3.62,2.7,2,1.9-3.73h2.36v3.73l3.55-2.17v-3.66a14.69,14.69,0,0,0,2.15-2.66l2.14,1.46,2.58-4.93L302,196.35l.21-.74C302.39,195,302.55,194.46,302.68,193.9Z" fill="#fff"/><ellipse cx="295.49" cy="195.35" rx="6.53" ry="4.29" transform="translate(-8.21 377.68) rotate(-64.45)" fill="#68e1fd" class="target-color"/><path d="M329.45,167.76l.31-1.08,3.45-1.88v-5.87c0-.12-3.34,2-3.34,2l-.16-.33a7.88,7.88,0,0,0-1-2.54l2.43-4.48-3.08-2.35-2.31,4.62h0a5.25,5.25,0,0,0-2.54,0v-4.44l-4.41,2.45v4.64a19.52,19.52,0,0,0-2.36,2.71l-2.66-1.7-3,5.72,2.38,1.89-.2,1a26.21,26.21,0,0,0-.74,3.09l-3.54,1.95V179l3.37-2a7.58,7.58,0,0,0,1.09,3l-2.53,4.29,3.2,2.42,2.25-4.41h2.8v4.41l4.21-2.57v-4.34a17.39,17.39,0,0,0,2.54-3.15l2.53,1.73,3.06-5.84-2.54-1.87.25-.88C329.1,169.1,329.29,168.42,329.45,167.76Z" fill="#fff"/><ellipse cx="320.93" cy="169.48" rx="7.73" ry="5.08" transform="translate(29.6 385.92) rotate(-64.45)" fill="#68e1fd" class="target-color"/></g></g></svg>