<svg xmlns="http://www.w3.org/2000/svg" xmlns:xlink="http://www.w3.org/1999/xlink" viewBox="0 0 400 300" data-imageid="yoga-position-isometric-9e541" imageName="Yoga position" class="illustrations_image" style="width: 215px;"><defs><linearGradient id="linear-gradient" x1="251.16" y1="132.85" x2="195.86" y2="185.43" gradientUnits="userSpaceOnUse"><stop offset="0" stop-color="#00a99d"/><stop offset="1" stop-color="#fff"/></linearGradient><linearGradient id="linear-gradient-2" x1="170.31" y1="192.86" x2="151.57" y2="210.68" xlink:href="#linear-gradient"/><linearGradient id="linear-gradient-3" x1="143.46" y1="177.74" x2="124.72" y2="195.56" xlink:href="#linear-gradient"/><linearGradient id="linear-gradient-4" x1="335.89" y1="176.09" x2="296.77" y2="213.29" xlink:href="#linear-gradient"/></defs><title>PP_</title><g style="isolation:isolate"><g id="Layer_2" data-name="Layer 2"><path d="M192.34,288.42l-165.77-98c-5.28-3-9.8-7.83-4.66-11L188.28,83.55c2.5-1.55,6.29-2.56,8.82-1.09l174,101c5.28,3.06,6.22,11.63.94,14.69L214.19,288.26A22,22,0,0,1,192.34,288.42Z" fill="#547a87"/><path d="M99.29,200.76l61.3,33.9a11.38,11.38,0,0,0,11.2-.1l115-66.39a5.61,5.61,0,0,0-.09-9.76l-59.41-32.79a7.6,7.6,0,0,0-7.47.07L99.23,195.29A3.14,3.14,0,0,0,99.29,200.76Z" fill="#385c66"/><polyline points="129.37 34.08 126.85 32.62 81.37 59.47 81.39 108.62 83.53 109.79" fill="#68e1fd" class="target-color"/><polyline points="129.37 34.08 126.85 32.62 81.37 59.47 81.39 108.62 83.53 109.79" opacity="0.27"/><polygon points="83.53 60.54 83.53 109.79 129.37 82.45 129.37 34.08 83.53 60.54" fill="#68e1fd" class="target-color"/><polygon points="89.13 61.88 125.04 40.9 125.26 81.47 89.13 102.96 89.13 61.88" fill="#fff"/><path d="M118,69.23a4.26,4.26,0,0,0-.6-5,4.4,4.4,0,0,0-5-.85l-.18.1c0-2.18-.55-4.09-3.15-4.29A4.26,4.26,0,0,0,105.44,61c-1.59,2-.48,3.64-.65,5.84-.09,1.14,0,.41-1.55-.1a6.94,6.94,0,0,0-3.39-.59,3.79,3.79,0,0,0-3.16,2.41c-1.28,3.41,1.87,5.43,4.87,5.72-1.84,3.06-2.64,6.57.85,8.44a5.24,5.24,0,0,0,6-1.22,7.69,7.69,0,0,0,1.75-3,3.44,3.44,0,0,0,.11-.64l.12.11a4.3,4.3,0,0,0,5,.3,4,4,0,0,0,1.74-3.78,5.23,5.23,0,0,0-.72-2.21,4.09,4.09,0,0,0-.75-.87A5,5,0,0,0,118,69.23Z" fill="#ffa245"/><path d="M99.23,197.57l61.3,33.9a11.38,11.38,0,0,0,11.2-.1l115-66.39a5.61,5.61,0,0,0-.09-9.76l-59.41-32.79a7.6,7.6,0,0,0-7.47.07L99.18,192.1A3.14,3.14,0,0,0,99.23,197.57Z" fill="#68e1fd" class="target-color"/><path d="M197.61,193.68c16.73-10.59,62.57-34.26,62.57-34.26l-22.91-13.89-65.09,27.25C181.1,177.91,188.68,188.62,197.61,193.68Z" opacity="0.68" fill="url(#linear-gradient)" style="mix-blend-mode:multiply"/><path d="M167.53,198.14a1.88,1.88,0,0,1-.6.18,71.37,71.37,0,0,1-9.07.82L144,206.84c3.57,2.05,7.29,3.85,10.86,5.87,6.7-4.24,18.11-11.29,18.11-11.29Z" opacity="0.68" fill="url(#linear-gradient-2)" style="mix-blend-mode:multiply"/><path d="M140.68,183a1.88,1.88,0,0,1-.6.18c-3,.37-1.63-1.36-4.67-1.37l-18.29,9.89c3.57,2.05,7.29,3.85,10.86,5.87,6.7-4.24,18.11-11.29,18.11-11.29Z" opacity="0.68" fill="url(#linear-gradient-3)" style="mix-blend-mode:multiply"/><path d="M147.37,149.83s-.77,14.71-.77,17.34-1,11.24-1.66,12.2-4.84,1.42-8.1,2-4,3.8-3.87,6.27,5.56.31,7.19.77-2.55,1.24-1.62,2.32,9.29-5.73,11-7,6.35-26.17,6.66-28.64S152.32,147.82,147.37,149.83Z" fill="#ffc8af"/><path d="M175.42,150.75s5.46,6.67,4,12.74-7.28,9.3-7.28,9.3,14,3.64,24.87,1,20.22-7.34,24.47-11,21.64-13.22,24.87-14.23c0,0,2-5.46-1.82-7.89,0,0-21.84,5.05-27.9,10.92S191.6,144.68,175.42,150.75Z" fill="#11aa7e"/><path d="M245.14,149h2s-.8,1.8-1,2.59.57,2.13,3.81,2.58,4-.34,4.36-1.34-.78-6.27,0-8.39,1.9-6.71-2.24-6.27a28.64,28.64,0,0,0-8.77,2.95Z" fill="#f7b89f"/><path d="M251,155.11h2s-.8,1.8-1,2.59.57,2.13,3.81,2.58,4-.34,4.36-1.34-.78-6.27,0-8.39,1.9-6.71-2.24-6.27a28.64,28.64,0,0,0-8.77,2.95Z" fill="#ffc8af"/><path d="M180,157.33s5.46,6.67,4,12.74-7.28,9.3-7.28,9.3,14,3.64,24.87,1,20.22-7.34,24.47-11,21.64-13.22,24.87-14.23c0,0,2-5.46-1.82-7.89,0,0-21.84,5.05-27.9,10.92S196.22,151.26,180,157.33Z" fill="#15c899"/><path d="M251,155.11l4.82-1.66S255.93,154.75,251,155.11Z" fill="#d36922"/><path d="M176.81,179.37S165.48,171.5,159,166.24s-11.61-11.3-11.61-16.41,3.08-12.85,5.33-13.93,19.49,3.72,19.49,3.72l5.19,12.51s8.24,7.31,8.08,11.49S183.34,177.63,176.81,179.37Z" fill="#f68b5f"/><path d="M165.94,161.13c-1-4.62-3.21-9.23-2.47-13.91.62-3.89,4.27-8.23,8.72-7.61s4.34,13.93,4.62,16.41,1.11,19.45,0,23.35-2.87,21.86-4.62,23.41-9.65,3.72-12.59,3.72-7.59-1.55-6.81-2.94,9.44-3.41,8.67-4-5.26,1.39-5,.46,3.87-3.1,5.26-3.1,5.73.77,6-.15.31-13.78-.46-17.34c-1.15-5.28-.56-10.71-1.06-16.05A20.19,20.19,0,0,0,165.94,161.13Z" fill="#ffc8af"/><path d="M158.1,130.2l-7.86,3.18q.54,4.33.93,8.67c4.48.09,9-2.45,9-2.45Z" fill="#f4b9a2"/><path d="M146.17,123.85c0-.46-3.25-3.41-1.86-7.28s7.3-8.52,15.88-5,6.88,12.85,5.95,15.95-5.88,7.11-11.3,7.12" fill="#353557"/><path d="M145.86,119.36c-.42.46-2.51,18.07,1.39,19.14,7,1.92,10.37-6.6,10.84-8.3s3.72-3.87,1.08-5-3.41,1.08-3.41,1.08,2.63-4.49-1.39-7S147.41,117.66,145.86,119.36Z" fill="#ffc8af"/><circle cx="167.31" cy="116.03" r="4.88" fill="#353557"/><path d="M298,219.12c11.84-7.49,44.27-24.24,44.27-24.24l-16.21-9.82-46,19.28C286.33,208,291.69,215.54,298,219.12Z" opacity="0.68" fill="url(#linear-gradient-4)" style="mix-blend-mode:multiply"/><path d="M341.93,178.12c-1.28-1.26-1.18-1.7-1.33-3.36-1.72-.61-4.37-2-6.93-1.86-1.83.13-4.29,1.39-5.7,1.86-.78,2.6-1.29,3.92-3.78,5.23a15.88,15.88,0,0,1-1.77.77,3.3,3.3,0,0,0-2.1,3.6c.74,4.77,3.52,12.89,13.8,12.89,11.2,0,13-9.44,13.17-13.95a2.4,2.4,0,0,0-1.16-2.17A22,22,0,0,1,341.93,178.12Z" fill="#a5dd73"/><ellipse cx="334.29" cy="174.76" rx="6.31" ry="2.36" fill="#200904"/><path d="M327.55,167.59c.74,2.84,1.26,5.75,1.71,8.64q.3.17.61.32l.91.29.4.09a97.07,97.07,0,0,0-1.94-9.86c0-.17.08-.34.11-.51.83-.92,2-2.52.77-3.28-.77-.46-1.35,0-1.77.76a33,33,0,0,0-5.54-10.69c.66-1.23.5-3.21.35-4.47s-.56-3-1.81-3.56a.94.94,0,0,0-1.08.14c-.71.67-.62,1.89-.63,2.77,0,.62,0,1.25,0,1.87-.44-.39-.9-.77-1.38-1.13,0,0,0,0,0,0a7.49,7.49,0,0,0-2.78-4.24c-1-.68-2.83-1.45-3.82-.37-2.32,2.53,3.57,5.41,5.21,6a.85.85,0,0,0,.36.06,23.35,23.35,0,0,1,1.85,1.55,8.1,8.1,0,0,0-3.09-.25c-1.2.15-3.11.72-3.35,2.15-.57,3.4,7.3,1.82,8.84,1.4a.84.84,0,0,0,.4-.24,27.14,27.14,0,0,1,2.45,3.94,7.62,7.62,0,0,0-3-.86c-1.12-.07-3.2,0-3.77,1.15-.68,1.38,1,2.2,2,2.54a15.57,15.57,0,0,0,5.62.45.85.85,0,0,0,.58-.26c.41,1,.77,2.07,1.1,3.13-1.81-1.28-5.06-1.81-6.39,0a.89.89,0,0,0,0,.9c.4.81,1.66.94,2.44,1.15a36.47,36.47,0,0,0,3.76.79A.92.92,0,0,0,327.55,167.59Z" fill="#f67770"/><path d="M329.91,156.81a.87.87,0,0,0,.2,0c.15.61.25,1.22.39,1.83-.09-.06-.17-.13-.27-.19a2,2,0,0,0-2.8.53c-.53,1,.34,2.22,1,3a13.26,13.26,0,0,0,3,2l.06,0a101.93,101.93,0,0,1,1.32,13.13c.29,0,.58,0,.87.05s.61,0,.92,0a103.54,103.54,0,0,0-1.77-15.89.84.84,0,0,0,.7-.25c1.25-1.48,5.74-6.83,2.34-8.37-2.42-1.1-3.43,2-3.88,4.66-.27-1.16-.51-2.33-.82-3.49a.8.8,0,0,0,.25-.17c2.12-2.15,4-4.46,4.27-7.57h0a.88.88,0,0,0-.55-1.19c-1.69-.53-2.9.85-3.77,2.12a9.36,9.36,0,0,0-1.3,2.91c-.33-1.07-.67-2.14-1-3.21a4,4,0,0,0-3.59-7.1c-2.2.73-2.75,3.3-2.26,5.33a3.31,3.31,0,0,0,4.17,2.38c.65,1.89,1.22,3.8,1.76,5.71a6.38,6.38,0,0,0-1.64-1.43c-.92-.56-2.65-1.4-3.48-.31s.37,2.58,1.27,3.31A11,11,0,0,0,329.91,156.81Zm-2-11.42a.85.85,0,0,0-.33.05c-1.09.41-2.26.35-2.6-.95s-.09-3,1.39-3.22C328.8,140.84,329.72,144.06,327.86,145.39Z" fill="#f67770"/><path d="M360.83,148.23a5.14,5.14,0,0,0-5.33,2.2.72.72,0,0,0-.51.44c-.44.22-.84.47-1.26.71a6.53,6.53,0,0,0,.51-5.07.89.89,0,0,0-.77-.59.81.81,0,0,0-.61.12l-.12.07,0,0a7.31,7.31,0,0,0-1.86,6.51.91.91,0,0,0,.28.54c-7.7,5.53-11.74,14.51-14,23.77a9.27,9.27,0,0,0,2-.64c2.2-8.47,6-16.55,13.05-21.65,1.1,2.18,3.47,2.91,5.75,3.1a.75.75,0,0,0,.65-.24,1,1,0,0,0,.48-1.26,5.82,5.82,0,0,0-2.49-2.14,7.44,7.44,0,0,0-2.22-.9q1-.56,2-1a6.42,6.42,0,0,0,5-2.64A.9.9,0,0,0,360.83,148.23Z" fill="#f67770"/><path d="M347.25,150.22a.84.84,0,0,0-.35-.23.9.9,0,0,0-1.21.28c-1.31,2-1.08,5.55.15,7.49a.92.92,0,0,0,1.6-.12.9.9,0,0,0,.33-.4C348.72,154.91,349.06,152.19,347.25,150.22Z" fill="#f67770"/><path d="M342.32,156a.84.84,0,0,0-.35-.23.9.9,0,0,0-1.21.28c-1.31,2-1.08,5.55.15,7.49a.92.92,0,0,0,1.6-.12.9.9,0,0,0,.33-.4C343.78,160.65,344.12,157.93,342.32,156Z" fill="#f67770"/><path d="M354.41,160.47a.84.84,0,0,0,.3-.3.9.9,0,0,0,0-1.24c-1.68-1.66-5.24-2.12-7.38-1.28a.92.92,0,0,0-.18,1.59.9.9,0,0,0,.33.41C349.52,161,352.13,161.86,354.41,160.47Z" fill="#f67770"/><path d="M350.58,164.36a.84.84,0,0,0,.19-.38.9.9,0,0,0-.43-1.17c-2.11-1.06-5.64-.38-7.41,1.09a.92.92,0,0,0,.32,1.57.9.9,0,0,0,.44.28C346.11,166.39,348.85,166.39,350.58,164.36Z" fill="#f67770"/><path d="M346.45,181.39c-2.21,1.66-4.76,2.18-7.65,2.58-1.64.23-5,1.53-4.23,3.34.16.4,1,.72,1.26,1a3.62,3.62,0,0,1,1.1,1.64c.38,1.84-1.33,3.17-2.93,3.55-1.4.34-2.89-.15-4.26-.4-.86-.15-3.29-.93-4-.33a3.07,3.07,0,0,0-.89,1,12.88,12.88,0,0,0,9.3,3.39c11.2,0,13-9.44,13.17-13.95A2.38,2.38,0,0,0,346.45,181.39Z" fill="#98d15d"/></g></g></svg>