<svg id="Layer_2" data-name="Layer 2" xmlns="http://www.w3.org/2000/svg" xmlns:xlink="http://www.w3.org/1999/xlink" viewBox="0 0 400 300" data-imageid="html-3" imageName="Javascript" class="illustrations_image" style="width: 214px;"><defs><linearGradient id="linear-gradient" x1="133.07" y1="242.32" x2="148.64" y2="220.17" gradientUnits="userSpaceOnUse"><stop offset="0" stop-color="#fff" stop-opacity="0"/><stop offset="1" stop-color="#d43500"/></linearGradient><linearGradient id="linear-gradient-2" x1="120.51" y1="216.75" x2="186.39" y2="174.35" gradientTransform="matrix(-1, 0, 0, 1, 255.36, 0)" gradientUnits="userSpaceOnUse"><stop offset="0" stop-opacity="0"/><stop offset="0.99" stop-color="#1a1a1a"/></linearGradient><linearGradient id="linear-gradient-3" x1="35.3" y1="276.33" x2="101.17" y2="233.93" xlink:href="#linear-gradient-2"/><linearGradient id="linear-gradient-4" x1="-16.53" y1="216.08" x2="64.81" y2="163.72" xlink:href="#linear-gradient-2"/></defs><title>OK</title><path d="M37,197c34.24,18.38,135,76.52,166.72,94.87a19.25,19.25,0,0,0,19.35,0L343.8,221.34c4.8-2.8,3.26-8.11-1.58-10.85L173.72,112.59a5.77,5.77,0,0,0-5.69,0L36.86,187.18A5.62,5.62,0,0,0,37,197Z" fill="#ed6128"/><path d="M206.43,156.29,186.1,166.81a5.21,5.21,0,0,0-.33,8.88L234,205.91a4.49,4.49,0,0,0,6.3-1.63L252,184.71" fill="#56403d"/><path d="M317.06,105.67,154.88,5.25c-4.88-3-11,.76-11,6.81V116.53a6.64,6.64,0,0,0,3,5.66L319.82,229.44c2.62,1.62,5.89-.41,5.89-3.65v-104A18.85,18.85,0,0,0,317.06,105.67Z" fill="#68e1fd" class="target-color"/><path d="M154.9,13.14l157.24,97.25a12,12,0,0,1,5.53,10.27V199c0,3.29-3.31,5.35-6,3.71L151.34,103.77a4.29,4.29,0,0,1-2-3.66V16.58A3.7,3.7,0,0,1,154.9,13.14Z" fill="#00275e"/><path d="M223.69,156c.41,2.28-.76,4.44-2.62,4.82s-3.69-1.15-4.1-3.43.76-4.44,2.62-4.82S223.28,153.75,223.69,156Z" fill="#ab643c"/><polyline points="159.95 76.77 162.38 75.07 165.15 78.85 164.71 84.44 164.18 94.72 161.28 96.72 156.5 92.73 152.39 90.63 154.82 88.94 159.13 90.69 160.95 91.66" fill="#ef680c"/><path d="M166.07,77.38l-.52,13.69c-.08,2.05-.69,3.38-1.85,4s-2.63.32-4.43-.8a10.27,10.27,0,0,1-2.42-2.15,12.08,12.08,0,0,1-1.56-2.23l-.47-.91,2.31-1.22q.07.16.22.46a6.28,6.28,0,0,0,.69,1,4.7,4.7,0,0,0,1.13,1,2,2,0,0,0,1.92.38c.48-.25.74-.84.78-1.79l.52-13.69Z" fill="#ef680c"/><path d="M178.59,85.2l6,24.4-3.93-2.46-1.29-5.67-6.63-4.14-1.66,3.83-3.93-2.46,7.53-15.94Zm-4.5,9.14L178.28,97,176.44,89l-2.35,5.31" fill="#ef680c"/><g style="isolation:isolate"><polygon points="200.82 99.09 193.67 115.27 189.73 112.81 184.11 88.65 188.05 91.11 191.9 108.85 196.89 96.64 200.82 99.09" fill="#ef680c"/><path d="M210.26,105l6,24.4-3.93-2.46L211,121.26l-6.63-4.14-1.65,3.83-3.93-2.46,7.53-15.94Zm-4.49,9.14,4.18,2.61-1.84-7.93-2.35,5.32" fill="#ef680c"/></g><path d="M224.53,113.47a13.49,13.49,0,0,1,2,1.56,15,15,0,0,1,1.59,1.69c.41.52.77,1,1.07,1.48a9.48,9.48,0,0,1,.65,1.12l.2.42-2.31,1.36c-.09-.19-.22-.44-.38-.74a11.37,11.37,0,0,0-1.06-1.45,7,7,0,0,0-1.69-1.54,2.09,2.09,0,0,0-1.72-.43,1.11,1.11,0,0,0-.7,1.14,3.49,3.49,0,0,0,.81,2.17,19,19,0,0,0,2.07,2.35q1.22,1.2,2.46,2.54a12,12,0,0,1,2.06,3.19,8.43,8.43,0,0,1,.75,3.83c-.07,1.86-.71,3-1.9,3.49s-2.82.05-4.85-1.22a14.79,14.79,0,0,1-2.31-1.8,16.73,16.73,0,0,1-1.82-2q-.71-.94-1.24-1.77a12.59,12.59,0,0,1-.76-1.32l-.27-.52,2.32-1.2c.11.22.26.51.45.88a13.6,13.6,0,0,0,1.33,1.82,9,9,0,0,0,2.18,2,2.63,2.63,0,0,0,2.11.57c.52-.17.79-.64.82-1.39a3.54,3.54,0,0,0-.81-2.17,18.24,18.24,0,0,0-2.09-2.36q-1.24-1.2-2.46-2.54a11.87,11.87,0,0,1-2-3.18,8.41,8.41,0,0,1-.75-3.82q.09-2.45,1.83-3.14T224.53,113.47Z" fill="#ef680c"/><path d="M242.58,124.76a15.09,15.09,0,0,1,2.56,2,16.33,16.33,0,0,1,2,2.26q.76,1.08,1.35,2.05a14.18,14.18,0,0,1,.83,1.54l.26.6-2.44,1.28-.19-.44c-.08-.19-.26-.53-.53-1a14.49,14.49,0,0,0-.92-1.46,13.66,13.66,0,0,0-1.33-1.53,9.39,9.39,0,0,0-1.7-1.39q-2.41-1.51-4.1-.62t-1.8,3.72a12.34,12.34,0,0,0,5.4,10.16,6.75,6.75,0,0,0,1.8.82,4.06,4.06,0,0,0,1.45.17,5,5,0,0,0,1-.21,1.85,1.85,0,0,0,.65-.35l.2-.17,2.12,4.13a1.94,1.94,0,0,1-.31.26,4.41,4.41,0,0,1-.91.43,5,5,0,0,1-1.5.32,6.75,6.75,0,0,1-2.06-.31,9.82,9.82,0,0,1-2.61-1.19,18.86,18.86,0,0,1-6.52-7.24,17.76,17.76,0,0,1-2.43-9.12q.16-4.35,3-5.74T242.58,124.76Z" fill="#ef680c"/><path d="M262.73,150.6l3.39,9.94-3.93-2.46-3-9.12-3.19-2-.27,7.06L252,151.71l.76-20.17,7.62,4.76a11.88,11.88,0,0,1,4.16,4.56,11.19,11.19,0,0,1,1.5,5.75,5.91,5.91,0,0,1-.41,2.06,3.18,3.18,0,0,1-.83,1.22,3.62,3.62,0,0,1-.94.55,1.78,1.78,0,0,1-.8.14Zm-1.12-4.86a1.5,1.5,0,0,0,.73-1.43,4.61,4.61,0,0,0-.59-2.37,4.69,4.69,0,0,0-1.65-1.82l-3.8-2.38-.2,5.33,3.8,2.38a1.74,1.74,0,0,0,1.7.29" fill="#ef680c"/><polygon points="273.88 144.75 273.12 164.92 269.43 162.61 270.19 142.44 273.88 144.75" fill="#ef680c"/><path d="M289.85,156.72a11.3,11.3,0,0,1,1.57,5.92q-.11,2.87-1.92,3.74t-4.47-.81l-3.55-2.22-.25,6.63-3.7-2.31.76-20.17,7.25,4.53A12.47,12.47,0,0,1,289.85,156.72Zm-2.93,5.2a1.65,1.65,0,0,0,.81-1.58,4.84,4.84,0,0,0-.66-2.51,5.22,5.22,0,0,0-1.81-2l-3.43-2.14-.22,5.75L285,161.6a1.93,1.93,0,0,0,1.87.32" fill="#ef680c"/><polygon points="306.77 165.3 306.63 169.2 301.72 166.13 301.11 182.41 297.43 180.1 298.04 163.84 293.12 160.76 293.27 156.86 306.77 165.3" fill="#ef680c"/><polyline points="172.24 84.44 174.66 82.75 177.86 88.05 179.09 93.37 181.21 103.53 184.59 109.59 182.16 111.29 179.38 104.38 177.59 101.65 172.24 98.21 171.07 101.15 168.64 102.84 168.64 99.24" fill="#ef680c"/><polyline points="181.69 90.35 184.11 88.65 187.9 92 189.59 101.59 190.18 107.42 193.25 105.49 194.46 98.33 196.89 96.64 199.12 100.66 197.98 104.91 193.67 115.27 191.24 116.97" fill="#ef680c"/><polyline points="203.91 104.24 206.34 102.54 209.87 106.69 210.69 112.01 213.13 121.64 216.12 129.07 213.84 131.09 211.74 126.12 204.96 119.57 202.48 117.66 202.75 120.94 200.32 122.64" fill="#ef680c"/><polyline points="227.65 121.43 230.07 119.74 226.8 117.47 224.13 116.73 221.78 116.96 221.37 119.08 223.13 123.03 228.66 132.56 228.98 135.38 226.04 137.34 222.58 132.83 220.93 129.65 217.23 127.04 214.8 128.74 223.8 134.9" fill="#ef680c"/><polyline points="247.13 134.93 249.56 133.23 246.37 131.1 242.44 128.64 244.26 132.5" fill="#ef680c"/><polyline points="233.68 136.7 237.99 140.53 244.81 144.74 249.19 146.27 246.76 147.97 242.26 146.47 237.65 144.09 235.14 140.74" fill="#ef680c"/><polyline points="250.32 133.24 252.75 131.54 264.03 141.89 264.44 146.86 261.75 150.7 262.48 152.77 266.12 160.54 263.69 162.24 259.05 152.61 257.66 149.19 254.19 148.26 255.68 154.02 253.25 155.71" fill="#ef680c"/><polyline points="267.76 144.14 270.19 142.44 273.54 146.46 271.66 158.56 273.12 164.92 270.7 166.61" fill="#ef680c"/><polyline points="275.86 149.19 278.29 147.5 280.23 151.34 284.24 155.38 289 160.16 289.4 164.92 289.5 166.38 287.07 168.07 282.3 166.44 280.81 165.79 281.22 169.98 278.8 171.67" fill="#ef680c"/><polyline points="290.84 158.56 293.27 156.86 305.98 166.37 306.63 169.2 304.2 170.89" fill="#ef680c"/><polyline points="298.68 184.1 301.11 182.41 298.2 179.33" fill="#ef680c"/><path d="M163.65,79.08l-.52,13.69c-.08,2.05-.69,3.38-1.85,4s-2.63.32-4.43-.8a10.27,10.27,0,0,1-2.42-2.15,12.08,12.08,0,0,1-1.56-2.23l-.47-.91,2.31-1.22q.07.16.22.46a6.28,6.28,0,0,0,.69,1,4.7,4.7,0,0,0,1.13,1,2,2,0,0,0,1.92.38c.48-.25.74-.84.78-1.79L160,76.77Z" fill="#ffd899"/><path d="M176.16,86.89l6,24.4-3.93-2.46-1.29-5.67L170.3,99l-1.66,3.83-3.93-2.46,7.53-15.94ZM171.66,96l4.19,2.62L174,90.72,171.66,96" fill="#ffd899"/><g style="isolation:isolate"><polyline points="186.35 96.17 189.47 110.54 194.46 98.33 198.39 100.79 191.24 116.97 187.31 114.51 181.69 90.35 185.62 92.81 186.35 96.17" fill="#ffd899"/><path d="M207.84,106.69l6,24.4-3.93-2.46L208.61,123,202,118.81l-1.65,3.83-3.93-2.46,7.53-15.94Zm-4.49,9.14,4.18,2.61-1.84-7.93-2.35,5.32" fill="#ffd899"/></g><path d="M222.1,115.17a13.49,13.49,0,0,1,2,1.56,15,15,0,0,1,1.59,1.69c.41.52.77,1,1.07,1.48a9.48,9.48,0,0,1,.65,1.12l.2.42-2.31,1.36c-.09-.19-.22-.44-.38-.74a11.37,11.37,0,0,0-1.06-1.45,7,7,0,0,0-1.69-1.54,2.09,2.09,0,0,0-1.72-.43,1.11,1.11,0,0,0-.7,1.14,3.49,3.49,0,0,0,.81,2.17,19,19,0,0,0,2.07,2.35q1.22,1.2,2.46,2.54a12,12,0,0,1,2.06,3.19,8.43,8.43,0,0,1,.75,3.83c-.07,1.86-.71,3-1.9,3.49s-2.82.05-4.85-1.22a14.79,14.79,0,0,1-2.31-1.8,16.73,16.73,0,0,1-1.82-2q-.71-.94-1.24-1.77a12.59,12.59,0,0,1-.76-1.32l-.27-.52,2.32-1.2c.11.22.26.51.45.88a13.6,13.6,0,0,0,1.33,1.82,9,9,0,0,0,2.18,2,2.63,2.63,0,0,0,2.11.57c.52-.17.79-.64.82-1.39a3.54,3.54,0,0,0-.81-2.17,18.24,18.24,0,0,0-2.09-2.36q-1.24-1.2-2.46-2.54a11.87,11.87,0,0,1-2-3.18,8.41,8.41,0,0,1-.75-3.82q.09-2.45,1.83-3.14T222.1,115.17Z" fill="#ffd899"/><path d="M240.16,126.45a15.09,15.09,0,0,1,2.56,2,16.33,16.33,0,0,1,2,2.26q.76,1.08,1.35,2.05a14.18,14.18,0,0,1,.83,1.54l.26.6-2.44,1.28-.19-.44c-.08-.19-.26-.53-.53-1a14.49,14.49,0,0,0-.92-1.46,13.66,13.66,0,0,0-1.33-1.53,9.39,9.39,0,0,0-1.7-1.39q-2.41-1.51-4.1-.62t-1.8,3.72a12.34,12.34,0,0,0,5.4,10.16,6.75,6.75,0,0,0,1.8.82,4.06,4.06,0,0,0,1.45.17,5,5,0,0,0,1-.21,1.85,1.85,0,0,0,.65-.35l.2-.17,2.12,4.13a1.94,1.94,0,0,1-.31.26,4.41,4.41,0,0,1-.91.43,5,5,0,0,1-1.5.32,6.75,6.75,0,0,1-2.06-.31,9.82,9.82,0,0,1-2.61-1.19,18.86,18.86,0,0,1-6.52-7.24,17.76,17.76,0,0,1-2.43-9.12q.16-4.35,3-5.74T240.16,126.45Z" fill="#ffd899"/><path d="M260.3,152.3l3.39,9.94-3.93-2.46-3-9.12-3.19-2-.27,7.06-3.69-2.31.76-20.17,7.62,4.76a11.88,11.88,0,0,1,4.16,4.56,11.19,11.19,0,0,1,1.5,5.75,5.91,5.91,0,0,1-.41,2.06,3.18,3.18,0,0,1-.83,1.22,3.62,3.62,0,0,1-.94.55,1.78,1.78,0,0,1-.8.14Zm-1.12-4.86a1.5,1.5,0,0,0,.73-1.43,4.61,4.61,0,0,0-.59-2.37,4.69,4.69,0,0,0-1.65-1.82l-3.8-2.38-.2,5.33,3.8,2.38a1.74,1.74,0,0,0,1.7.29" fill="#ffd899"/><polygon points="271.46 146.44 270.7 166.61 267 164.31 267.76 144.14 271.46 146.44" fill="#ffd899"/><path d="M287.43,158.42a11.3,11.3,0,0,1,1.57,5.92q-.11,2.87-1.92,3.74t-4.47-.81L279,165l-.25,6.63-3.7-2.31.76-20.17,7.25,4.53A12.47,12.47,0,0,1,287.43,158.42Zm-2.93,5.2a1.65,1.65,0,0,0,.81-1.58,4.84,4.84,0,0,0-.66-2.51,5.22,5.22,0,0,0-1.81-2l-3.43-2.14-.22,5.75,3.43,2.14a1.93,1.93,0,0,0,1.87.32" fill="#ffd899"/><polygon points="304.35 167 304.2 170.89 299.3 167.83 298.68 184.1 295 181.8 295.61 165.53 290.69 162.45 290.84 158.56 304.35 167" fill="#ffd899"/><polygon points="206.44 61.84 206.44 65.22 178.21 48.81 178.21 45.52 206.44 61.84" fill="#f7931e"/><polygon points="209.25 63.47 288.82 109.47 288.82 113.1 209.25 66.85 209.25 63.47" fill="#00a99d"/><polygon points="276.38 113.26 288.82 120.45 288.82 124.08 276.38 116.85 276.38 113.26" fill="#8cc63f"/><polygon points="273.57 111.64 273.57 115.22 229.01 89.32 229.01 85.87 273.57 111.64" fill="#f7931e"/><polygon points="226.2 84.25 226.2 87.69 197.05 70.75 197.05 67.4 226.2 84.25" fill="#f15a24"/><polygon points="194.25 65.78 194.25 69.12 178.21 59.8 178.21 56.51 194.25 65.78" fill="#8cc63f"/><polygon points="208.35 84.83 287.93 130.83 287.93 134.46 208.35 88.22 208.35 84.83" fill="#00a99d"/><polyline points="189.58 224.54 143.91 253.4 98.25 229.25 150.51 203.36" opacity="0.32" fill="url(#linear-gradient)"/><polyline points="59.7 190.11 137.88 236.59 166.68 215.51 80.13 163.39" opacity="0.32" fill="url(#linear-gradient-2)"/><polyline points="104.91 109.74 91.61 102.67 59.7 121.09 59.7 190.11 72.85 197.71" fill="#ea6a4b"/><path d="M72.85,197.71c1-.08,0-69.46,0-69.46l32.06-18.51v70Z" fill="#ff7f5c"/><polyline points="104.91 122.8 73 140.75 59.7 133.97" fill="none" stroke="#f2f2f2" stroke-miterlimit="10" stroke-width="0.25"/><polyline points="104.91 140.75 73 158.7 59.7 151.93" fill="none" stroke="#f2f2f2" stroke-miterlimit="10" stroke-width="0.25"/><polyline points="104.91 156.91 73 174.86 59.7 168.09" fill="none" stroke="#f2f2f2" stroke-miterlimit="10" stroke-width="0.25"/><polyline points="104.91 173.22 73 191.17 59.7 184.4" fill="none" stroke="#f2f2f2" stroke-miterlimit="10" stroke-width="0.25"/><polygon points="72.85 128.25 59.7 121.09 91.61 102.67 104.91 109.74 72.85 128.25" fill="#ff886c"/><ellipse cx="78.9" cy="130.54" rx="2.34" ry="1.94" transform="translate(-71.81 154.04) rotate(-67.72)" fill="#fff"/><path d="M100.66,118.56l-17,9.37c-.42.23,0,.88.38.65l17-9.37c.42-.23,0-.88-.38-.65Z" fill="#f2f2f2"/><ellipse cx="78.9" cy="146.24" rx="2.34" ry="1.94" transform="translate(-86.34 163.79) rotate(-67.72)" fill="#fff"/><path d="M100.66,134.25l-17,9.37c-.42.23,0,.88.38.65l17-9.37c.42-.23,0-.88-.38-.65Z" fill="#f2f2f2"/><ellipse cx="78.9" cy="163.39" rx="2.34" ry="1.94" transform="translate(-102.21 174.44) rotate(-67.72)" fill="#fff"/><path d="M100.66,151.41l-17,9.37c-.42.23,0,.88.38.65l17-9.37c.42-.23,0-.88-.38-.65Z" fill="#f2f2f2"/><ellipse cx="78.9" cy="178.96" rx="2.34" ry="1.94" transform="translate(-116.62 184.11) rotate(-67.72)" fill="#fff"/><path d="M100.66,167l-17,9.37c-.42.23,0,.88.38.65l17-9.37c.42-.23,0-.88-.38-.65Z" fill="#f2f2f2"/><path d="M227.88,276.19a110,110,0,0,1,11.74-9l-47.48-30.61-47.23,13.12L211.06,289C216.73,284.84,222.44,280.68,227.88,276.19Z" opacity="0.32" fill="url(#linear-gradient-3)"/><path d="M268.44,207c3.75-3.09,5.79-1.34,10-3.93L222.35,169l-37.75,5.68,91.26,61.18C281.53,231.63,263,211.49,268.44,207Z" opacity="0.32" fill="url(#linear-gradient-4)"/><path d="M179,243.08l-.91-.69.81-10.83,4.77.17s-.24,4.63.78,5.76,3.88.58,4.15.69,2.18-.3,3,.63-3.1,3.15-5.09,3.47a12.7,12.7,0,0,1-4.09-.14s-.23-2.8-.93-2.58-1,3.15-1,3.15Z" fill="#9c4100"/><path d="M177.07,209c-.39,11.33-.81,26.1-.81,26.1s2.59,3.52,9.61,2c.75-.16,2.43-18.22,3.25-27.62A27,27,0,0,0,177.07,209Z" fill="#efb420"/><path d="M191.45,252.38l-.91-.69.81-10.83,4.77.17s-.24,4.63.78,5.76,3.88.58,4.15.69,2.18-.3,3,.63-3.1,3.15-5.09,3.47a12.7,12.7,0,0,1-4.09-.14s-.23-2.8-.93-2.58-1,3.15-1,3.15Z" fill="#653200"/><path d="M193.5,211a28.4,28.4,0,0,0-9.93-2.47c.58,4.24,1.12,7.18,1.21,7.4.23.54,4.59,27.46,4.59,27.46,5.15,2.08,11.24.34,11.24.34s-2.1-21-2.27-24.51q0-.57-.06-1.13A8.26,8.26,0,0,0,193.5,211Z" fill="#efb420"/><path d="M161.84,217.29s8.73-7.9,15.23-8.32,15.76,6.32,15,10.24-13.17,12.34-13.17,12.34" fill="#efb420"/><path d="M179.68,203.19l-7-4.91a1.48,1.48,0,0,1-.49-1.81l4.93-11a1.48,1.48,0,0,1,2.13-.65l7.77,4.84a1.48,1.48,0,0,1,.53,1.94l-5.74,11A1.48,1.48,0,0,1,179.68,203.19Z" fill="#1784aa"/><path d="M179.06,202.81l-7-4.91a1.48,1.48,0,0,1-.49-1.81l4.93-11a1.48,1.48,0,0,1,2.13-.65l7.77,4.84a1.48,1.48,0,0,1,.53,1.94l-5.74,11A1.48,1.48,0,0,1,179.06,202.81Z" fill="#29abe2"/><polygon points="180.22 202.14 172.4 196.61 177.53 185.2 186.22 190.62 180.22 202.14" fill="#00275e"/><path d="M176.6,190c-2.59,1.42-6.64,3-9.36,4.91-.44.3-1.09,1.34-.66,1.19-.18.21,1.6.91,1.43,1.14-.06.08,1.15-.59,1.22-.56h0a4.66,4.66,0,0,0,3.34.4l.45-.33,0,0,.11-.07a.26.26,0,0,1,.08-.08l.07,0a.27.27,0,0,1,.1-.16c.6-.47,1.91-.72,2.05-1.51a1.63,1.63,0,0,0-.19-.6.23.23,0,0,1,0-.31,1.82,1.82,0,0,0-.27-1.38l0,0,.15-.18a17.51,17.51,0,0,0,2-1.64.41.41,0,0,0,.13-.25v0a.38.38,0,0,0,0-.08A.49.49,0,0,0,176.6,190Z" fill="#e85454"/><path d="M175.28,192.84c-.19-.5-.48-.52-.93-.33a15.59,15.59,0,0,0-2.58,1.47c-.14.09,0,.31.14.22.51-.35,2.69-2,3.13-1.25s-1,1.2-1.43,1.41l-1.58.84c-.15.08,0,.3.14.22l1-.52a.13.13,0,0,0,0,.08,1.53,1.53,0,0,0,.3.3,1,1,0,0,0-.11.9l0,.06a2.81,2.81,0,0,1-3.44.5c-.13-.1-.31.09-.18.19a3,3,0,0,0,3.86-.59,1.4,1.4,0,0,0,.46-.15,3,3,0,0,0,1.22-.8,1,1,0,0,0,0-1l0,0a.64.64,0,0,0,0-.92A1,1,0,0,0,175.28,192.84Zm-.11,2.32a1.63,1.63,0,0,1-.66.54c-.17.1-.57.38-.74.34-.33-.08-.13-.52,0-.71h0a1.8,1.8,0,0,0,.51-.3l.63-.4.21-.16A.79.79,0,0,1,175.17,195.17Zm-.8-.48c-.36.22-.65.5-1,.11.5-.26,1-.52,1.48-.81a1.2,1.2,0,0,0,.37-.33C175.5,194.1,174.63,194.52,174.37,194.69Z" fill="#653200"/><path d="M168.86,193s1.75.39,1.88,4.06l-1.31,3.25-7.11-3.69S164,194.48,168.86,193Z" fill="#ff9292"/><path d="M185.71,194.71c-.53,1.17-1.06,2.23-1.5,3.43-.33-.79-.63-1.44-1-2.2a.58.58,0,0,0-.06-.07.61.61,0,0,0-1.13.38,5,5,0,0,0,.83,2,.63.63,0,0,0-.16.12c-1,1.14-.78,2.88-.66,4.28a.54.54,0,0,0,.81.43.55.55,0,0,0,.28-.07,4.6,4.6,0,0,0,1.85-2.67C185.57,198.57,186.31,196.6,185.71,194.71Z" fill="#e85454"/><path d="M159.17,194.63l2.57-.76c.64.09,6.2,2.36,8.51,6.32a24.74,24.74,0,0,1,.57,3.67c.21,1.65.38,3.3.46,5a36.15,36.15,0,0,1-.08,5.42c-.08.77-.13,1.16-.26,1.92a3.42,3.42,0,0,1-1,.61c-7.71,2.68-13.37-1.66-13.6-2.28s-.6-9.52-.78-14.81A5.09,5.09,0,0,1,159.17,194.63Z" fill="#ff9292"/><path d="M166,185.46s1.73,8.71-1.48,9.65-7-2.69-7.26-4.48S161.47,182.56,166,185.46Z" fill="#e85454"/><path d="M164.73,188.95c.1-.15,1.94-.63,2.33-2.19s-1-3.59-4.23-3.89-8.6,1.46-7.77,9.91,9.34,4.82,9.89,2.12A16.18,16.18,0,0,0,164.73,188.95Z" fill="#653200"/><path d="M164.73,188.95s.54,2.89,1.71,4.13,2.12,3.5.68,5.22,0,2.66,2,4.31.78,8.35-6.54,6.71a19.69,19.69,0,0,1-10.77-6.06s1.88-13.16,3.87-16.25" fill="#653200"/><path d="M170.27,200.31s1.66,5.55,3.31,5.72,4.17-2.28,5.93-5.48A4.65,4.65,0,0,1,184.6,205s-5.83,11.82-14.33,8.93" fill="#ff9292"/><path d="M139.73,242.63a36.22,36.22,0,0,1-7.52-23.2,26.43,26.43,0,0,1,7.39-18.11c4.31-4.42,10.82-6.6,16.59-3.6,4.79,2.49,7.11,7.26,8.78,12.15,2,5.85,2.68,13.36,9.81,15.17,2.77.7,5.67.22,8.52,0,5-.34,10.21,1.27,11.75,6.57,2.77,9.48-10,17.57-17.15,20.63a33.11,33.11,0,0,1-36.71-7.94Q140.43,243.51,139.73,242.63Z" fill="#68e1fd" class="target-color"/><path d="M194.81,231.76c-5.07,9.17-21.58,13.31-30.58,12.85-8.17-.42-13.33-5.41-12.78-13.68.31-4.54,1.75-9.07,1.34-13.64-.69-7.79-8.09-14.18-15.64-12.66a26.65,26.65,0,0,0-5,15.33,36.22,36.22,0,0,0,7.52,23.2q.7.87,1.46,1.7a33.11,33.11,0,0,0,36.71,7.94c7.17-3.06,19.92-11.15,17.15-20.63C194.91,232,194.86,231.9,194.81,231.76Z" fill="#00275e" opacity="0.36"/></svg>