<svg id="Layer_2" data-name="Layer 2" xmlns="http://www.w3.org/2000/svg" viewBox="0 0 400 300" data-imageid="revenue-isometric-d46b2" imageName="Revenue" class="illustrations_image" style="width: 215px;"><title>0</title><path d="M25.37,160.46,161,81.6a6.41,6.41,0,0,1,6.41,0L370.18,197.65a6.41,6.41,0,0,1,0,11.12L240.52,283.64a20.93,20.93,0,0,1-20.93,0L25.39,171.56A6.41,6.41,0,0,1,25.37,160.46Z" fill="#e5770a"/><path d="M262.39,45.08A60.5,60.5,0,0,0,241,50.19c-10.74,4.9,21.43,13.6,21.43,13.6" fill="#f2ae16"/><ellipse cx="266.06" cy="81.29" rx="33.4" ry="36.58" transform="translate(-11.93 92.16) rotate(-19.23)" fill="#ea8b24"/><ellipse cx="256.07" cy="83.5" rx="33.4" ry="36.58" transform="translate(-13.21 88.99) rotate(-19.23)" fill="#ffd008"/><ellipse cx="256.07" cy="83.5" rx="29.27" ry="32.05" transform="translate(-13.21 88.99) rotate(-19.23)" fill="none" stroke="#f7931e" stroke-miterlimit="10"/><path d="M263.08,66.26a11.49,11.49,0,0,1,2.67,1.85l.77.82-4.29,4.57q-.28-.33-.79-.8a9.61,9.61,0,0,0-2.12-1.27,7.43,7.43,0,0,0-3.32-.78,5,5,0,0,0-3.3,1.06,3.22,3.22,0,0,0-1.24,2.55,3.06,3.06,0,0,0,1.7,2.69,17.43,17.43,0,0,0,4.12,1.71q2.42.69,4.87,1.62a9.62,9.62,0,0,1,4.16,3.07A8.49,8.49,0,0,1,268,88.79a9.72,9.72,0,0,1-2.38,6.6A11.45,11.45,0,0,1,259,99v4.65l-6.24,0V99.19a17.22,17.22,0,0,1-3.59-.92,15.9,15.9,0,0,1-2.84-1.36,21.28,21.28,0,0,1-2-1.41,11.19,11.19,0,0,1-1.24-1.12l-.4-.49L247,89.57q.33.37.93,1a11.26,11.26,0,0,0,2.66,1.59,9.68,9.68,0,0,0,4.3,1,6.16,6.16,0,0,0,4.05-1.23,3.84,3.84,0,0,0,1.45-3.09,3.08,3.08,0,0,0-1.7-2.71,16.74,16.74,0,0,0-4.14-1.71q-2.44-.68-4.87-1.61a9.65,9.65,0,0,1-4.13-3.07,8.49,8.49,0,0,1-1.72-5.44,9,9,0,0,1,2.38-6.13,10.91,10.91,0,0,1,6.45-3.43v-4.6l6.24,0v4.65A14.65,14.65,0,0,1,263.08,66.26Z" fill="#ea8b24"/><polyline points="260.81 174.43 260.81 177.23 259.39 178.97" fill="#adcee1"/><path d="M204.39,140.25l54.81,34a3.4,3.4,0,0,1-.12,5.84l-83.17,47a7.62,7.62,0,0,1-7.61-.06L113.74,195c-4-3.26-3.67-9.39,0-9.65l82.69-45.21A7.73,7.73,0,0,1,204.39,140.25Z" fill="#88d3d8"/><path d="M204.39,137.91l54.81,34a3.4,3.4,0,0,1-.12,5.84l-83.17,47a7.62,7.62,0,0,1-7.61-.06l-54.56-32.07a4.23,4.23,0,0,1,0-7.31l82.69-47.55A7.73,7.73,0,0,1,204.39,137.91Z" fill="#fff"/><path d="M202.16,133.26S179.4,59.8,179.54,59.8s-.71-3.26-4.78-1.42L87.42,109.8s-4.24,1.72-3.41,5.66,22.25,71.88,22.25,71.88a3.69,3.69,0,0,0,4.13,1.42c2.66-.83,89.73-51.4,89.73-51.4A3.34,3.34,0,0,0,202.16,133.26Z" fill="#053855"/><polygon points="178.09 65.14 88.64 117.29 107.19 179.58 197.79 128.98 178.09 65.14" fill="#68e1fd" class="target-color"/><path d="M207.76,145.69l20,12.48a2.42,2.42,0,0,1-.08,4.15l-71.93,41a7.08,7.08,0,0,1-7.07,0c-4.63-2.69-12.58-7.55-17.46-10.54a2.94,2.94,0,0,1,.06-5.05c14.55-8.46,62-36.06,72.4-42.09A3.92,3.92,0,0,1,207.76,145.69Z" fill="#68e1fd" class="target-color"/><path d="M206.68,179.58l-25.13,14.13a2.51,2.51,0,0,0,0,4.35l14.78,8.65a3.34,3.34,0,0,0,3.34,0l25.71-14.66a2.1,2.1,0,0,0,0-3.65L210,179.59A3.34,3.34,0,0,0,206.68,179.58Z" fill="#68e1fd" class="target-color"/><path d="M207.76,145.69l20,12.48a2.42,2.42,0,0,1-.08,4.15l-71.93,41a7.08,7.08,0,0,1-7.07,0c-4.63-2.69-12.58-7.55-17.46-10.54a2.94,2.94,0,0,1,.06-5.05c14.55-8.46,62-36.06,72.4-42.09A3.92,3.92,0,0,1,207.76,145.69Z" fill="#053855" opacity="0.1"/><path d="M206.68,179.58l-25.13,14.13a2.51,2.51,0,0,0,0,4.35l14.78,8.65a3.34,3.34,0,0,0,3.34,0l25.71-14.66a2.1,2.1,0,0,0,0-3.65L210,179.59A3.34,3.34,0,0,0,206.68,179.58Z" fill="#053855" opacity="0.1"/><path d="M68,61.47a28.46,28.46,0,0,1,10.16-1.91c5.55,0-6.59,10-6.59,10" fill="#f2ae16"/><ellipse cx="73.4" cy="77.72" rx="15.71" ry="17.21" transform="translate(-6.34 6.52) rotate(-4.88)" fill="#f2ae16"/><ellipse cx="78.11" cy="76.75" rx="15.71" ry="17.21" transform="translate(-6.24 6.92) rotate(-4.88)" fill="#ffd008"/><ellipse cx="78.11" cy="76.75" rx="13.77" ry="15.08" transform="translate(-6.24 6.92) rotate(-4.88)" fill="none" stroke="#f7931e" stroke-miterlimit="10"/><path d="M84.59,75.33c-1.6-1.34-3.75-1.27-5.66-.76Q77.83,72.29,76.7,70A6.39,6.39,0,0,1,78,69.78c1.36-.1,1-2.19-.31-2.1a6.68,6.68,0,0,0-1.95.48c-.42-.84-.84-1.68-1.27-2.51-.62-1.21-2.56-.36-1.94.86.45.88.9,1.77,1.34,2.66C71.39,71,69.71,74,71.62,76.85c1.41,2.06,3.67,1.34,5.62.59l.58-.23q1,2.18,2,4.37a17.77,17.77,0,0,1-2.8.4c-1.36.09-1,2.18.31,2.1a16.57,16.57,0,0,0,3.36-.55L81.42,85a1.06,1.06,0,0,0,1.94-.86l-.63-1.4a6.88,6.88,0,0,0,2.64-2.13A3.86,3.86,0,0,0,84.59,75.33Zm-9.1.52c-2.05,0-2.87-1.33-2.07-3.09A4.81,4.81,0,0,1,74.82,71Q75.9,73.16,77,75.36A4.29,4.29,0,0,1,75.5,75.85Zm8.14,3.55a3.86,3.86,0,0,1-1.77,1.49q-1-2.19-2-4.37c.19,0,.37-.09.56-.12C82,76.18,85,77,83.64,79.4Z" fill="#f7931e"/><ellipse cx="140.74" cy="104.06" rx="34.04" ry="31.08" transform="translate(2.62 211.58) rotate(-74.38)" fill="#f2ae16"/><ellipse cx="144.61" cy="104.06" rx="34.04" ry="31.08" transform="translate(5.45 215.31) rotate(-74.38)" fill="#ffd008"/><ellipse cx="144.61" cy="104.06" rx="29.83" ry="27.24" transform="translate(5.45 215.31) rotate(-74.38)" fill="none" stroke="#f7931e" stroke-miterlimit="10"/><path d="M157.6,105.93c-2-3.59-6.06-4.95-10-5.32q-.45-5-1-10a12.65,12.65,0,0,1,2.61.47c2.59.76,3.44-3.35.87-4.1a13.21,13.21,0,0,0-3.94-.47c-.2-1.84-.39-3.68-.61-5.53-.31-2.67-4.5-2.43-4.18.25.23,2,.43,3.91.65,5.86-5.89,1.57-11.16,6.13-9.55,12.65,1.18,4.8,5.88,5,10,5l1.24,0q.4,4.75.73,9.51A35.15,35.15,0,0,1,139,113c-2.59-.79-3.43,3.32-.87,4.1a32.77,32.77,0,0,0,6.61,1.3c.07,1.09.15,2.19.22,3.28.16,2.69,4.34,2.45,4.18-.25-.06-1-.14-2-.2-3a13.61,13.61,0,0,0,6.37-2.13A7.64,7.64,0,0,0,157.6,105.93Zm-17.21-5.34c-3.79-1.47-4.39-4.44-1.69-7.16a9.5,9.5,0,0,1,3.81-2.34q.5,4.79.92,9.59A8.48,8.48,0,0,1,140.39,100.6ZM153,112.81a7.64,7.64,0,0,1-4.31,1.53q-.33-4.76-.73-9.5c.37,0,.75.09,1.12.17C152.3,105.73,157.18,109.26,153,112.81Z" fill="#f7931e"/><polygon points="118.24 137.47 177.53 103.03 172.47 126.06 162.04 137.47 151.95 141.54 143.48 143.73 118.24 137.47" fill="#68e1fd" class="target-color"/><path d="M119.86,136.53l58-33.75a2,2,0,0,1,3,1.34h0a2,2,0,0,1-1,2.19L122.08,140.4a2,2,0,0,1-2.9-.9l-.15-.33A2,2,0,0,1,119.86,136.53Z" fill="#3f9baa"/><path d="M204.09,247.85s14,7.67,64.85-11,72.24-87.54,72.24-87.54l14.53,8.64-13.89-42.18-29.67,16.86,12.9,7.62s-11.9,48.85-45.27,71.91-92.55,25.93-92.55,25.93Z" fill="#68e1fd" class="target-color"/><path d="M47.17,157.1a16.1,16.1,0,0,1,.79-7.72c1.48-4,7.91,6.69,7.91,6.69" fill="#f2ae16"/><path d="M67,144.78c9.35,1.25,15.7,7.45,14.17,13.84s-10.35,10.56-19.7,9.31-15.7-7.45-14.17-13.84S57.67,143.53,67,144.78Z" fill="#f2ae16"/><path d="M67.31,141.18c9.35,1.25,15.7,7.45,14.17,13.84s-10.35,10.56-19.7,9.31-15.7-7.45-14.17-13.84S58,139.93,67.31,141.18Z" fill="#ffd008"/><path d="M67,142.62c8.2,1.1,13.76,6.53,12.42,12.13s-9.07,9.26-17.27,8.16-13.76-6.53-12.42-12.13S58.77,141.52,67,142.62Z" fill="none" stroke="#f7931e" stroke-miterlimit="10"/><path d="M64.86,147.8a4.15,4.15,0,0,0-2.2,3.95l-5,.72a3.62,3.62,0,0,1,.11-1c.26-1-1.85-1.18-2.11-.18a3.76,3.76,0,0,0,0,1.5l-2.75.43c-1.33.21-1,1.78.33,1.57l2.92-.46A5.86,5.86,0,0,0,63,157.47c2.36-.62,2.25-2.4,2-4,0-.16,0-.31-.07-.47l4.75-.62a10.14,10.14,0,0,1-.34,2.1c-.27,1,1.84,1.17,2.11.18a9.41,9.41,0,0,0,.33-2.54l1.64-.2c1.35-.16,1-1.73-.33-1.57l-1.52.19a4.65,4.65,0,0,0-1.38-2.32A4.8,4.8,0,0,0,64.86,147.8ZM63,154.48c-.56,1.48-2,1.82-3.52.9A3.92,3.92,0,0,1,58.12,154l4.78-.69A2.43,2.43,0,0,1,63,154.48Zm5.54-5.2a2.66,2.66,0,0,1,1,1.57l-4.75.62a3.37,3.37,0,0,1,0-.43C65,149.81,66.55,147.84,68.54,149.28Z" fill="#f7931e"/><path d="M185.14,88.93a24.59,24.59,0,0,1,7.16,10.5c2.52,6.94-3.77,18.3-3.77,18.3L178.75,110" fill="#9b3119"/><path d="M186.22,180.77l2.65-1.47-.67-3.79s-4,.37-4.3,1.78" fill="#2f0e4c"/><path d="M185.22,180.71c-.6-.37-1.22-.69-1.84-1-1.54-.84-3.75-1.71-4.69-3.28a1.83,1.83,0,0,1,.12-2.06c1.4-1.68,4.43,1.08,6-.78.31-.37.45-6.21.45-6.21l5.92,1.6s1,11.74.89,12.46-2.15,1.42-2.15,1.42a5.24,5.24,0,0,1-1.71-.66c-.62-.45-.06-6-.85-5.19s-1.14,3.79-1.14,3.79A4.07,4.07,0,0,1,185.22,180.71Z" fill="#662d91"/><path d="M174.89,186.44l2.65-1.47-.67-3.79s-4,.37-4.3,1.78" fill="#2f0e4c"/><path d="M173.9,186.38c-.6-.37-1.22-.69-1.84-1-1.54-.84-3.75-1.71-4.69-3.28a1.83,1.83,0,0,1,.12-2.06c1.4-1.68,4.43,1.08,6-.78.31-.37.45-6.21.45-6.21l5.92,1.6s1,11.74.89,12.46-2.15,1.42-2.15,1.42a5.24,5.24,0,0,1-1.71-.66c-.62-.45-.06-6-.85-5.19s-1.14,3.79-1.14,3.79A4.07,4.07,0,0,1,173.9,186.38Z" fill="#662d91"/><path d="M194.18,148.28l1.71,23.32s-2.77,3.83-12.09,1.7h0l-.09-15.72" fill="#3e2928"/><path d="M183.38,152.89c.2,2,0,24.15,0,24.15s-2.57,4.82-13.8,0l.16-18.81" fill="#3e2928"/><path d="M193.22,154.26a45.45,45.45,0,0,1-9.2,4.06l-.07,0a.63.63,0,0,0-.85.32,48.59,48.59,0,0,1-6,1.37c-2.62.42-4.79-1.52-7.47-1.66,0-10.29,0-39.62,4.34-45.82l13-4.34c.06,1.07,6.29,8.3,6.14,17.1a189.5,189.5,0,0,0,1.18,23.43" fill="#3e2928"/><path d="M172.73,100.68l1.2,11.81s9.68.39,13.85-2.49V100" fill="#9b3119"/><path d="M160.42,92.91l1,1.35A32.41,32.41,0,0,1,160,90.89c-.27-.79,1-1.1,1.26-.32l.14.4q-.18-.62-.34-1.26a.65.65,0,0,1,1.26-.32,33.67,33.67,0,0,0,1,3.23,23,23,0,0,1-.46-2.85c-.08-.83,1.21-.79,1.29,0a20.51,20.51,0,0,0,.58,3.23q0-.55.1-1.11a.65.65,0,0,1,.27-.47c0-.14.08-.29.13-.43a.65.65,0,0,1,1.27.2l.08,4.89a5.82,5.82,0,0,0,.91,1.39,22.57,22.57,0,0,0-1.81,1.41,18.61,18.61,0,0,0-1.47,1.41q-.62-.78-1.21-1.58a.7.7,0,0,1-.12-.14q-1.74-2.57-3.59-5.05C158.8,92.88,159.93,92.25,160.42,92.91Z" fill="#ffb5a9"/><path d="M178.87,89.91s-4.57,1.23-6.42,4.19a52.26,52.26,0,0,0-3.06,6.32L166,95.18s-4.1,1.26-5.73,3.27c0,0,4.87,10.63,9.1,11.54s8.73-6.29,8.73-6.29.93,3,.75-.2" fill="#9b3119"/><path d="M176,101.27a9.26,9.26,0,0,0,2.89-4.12c.55-1.87-.14-3.51-.78-5.25a16.9,16.9,0,0,1-1.19-5.4c-.05-1.82.15-3.64.28-5.45a.52.52,0,0,0,0-.23c.61-2,1.86-3.78,4.33-4,6.38-.54,6.74,6.53,6.7,9.4s-.35,4.82,1.76,6,3.65,4.35,1.63,6.9-.21,1.62,1.14,3.88,1,5.09-1.77,6.11-15.61-.9-16.8-2.09a2.45,2.45,0,0,1-.6-1.74A6.73,6.73,0,0,1,176,101.27Z" fill="#f15a24"/><path d="M305.85,202.45c-15,11.65-32.56,18-50.8,22.17-31.66,11.69-67.62,13.43-67.62,13.43l16.85,9.77s14,7.67,64.85-11c27-9.93,45.75-34,57.34-54.46A146.51,146.51,0,0,1,305.85,202.45Z" fill="#053855" opacity="0.1"/><path d="M113.12,98s.57,8.86-6.32,9.4c0,0,5.83,2.42,6.8,7.06,0,0,.72-6.47,6.64-7.14A9.11,9.11,0,0,1,113.12,98Z" fill="#fff"/></svg>