<svg xmlns="http://www.w3.org/2000/svg" xmlns:xlink="http://www.w3.org/1999/xlink" viewBox="0 0 400 300" data-imageid="security-isometric" imageName="Security" class="illustrations_image" style="width: 215px;"><defs><linearGradient id="linear-gradient" x1="153.56" y1="244.76" x2="341.67" y2="109.44" gradientUnits="userSpaceOnUse"><stop offset="0" stop-opacity="0"/><stop offset="1"/></linearGradient><linearGradient id="linear-gradient-2" x1="100.62" y1="204.93" x2="237.06" y2="106.04" xlink:href="#linear-gradient"/></defs><title>#11-20</title><g style="isolation:isolate"><g id="Layer_1" data-name="Layer 1"><path d="M74.23,206.29l114.65,66.19a14.58,14.58,0,0,0,14.57,0l120.18-69.17a6.15,6.15,0,0,0,.1-10.59L205.5,121.58a6.15,6.15,0,0,0-6.3,0l-125,74.12A6.15,6.15,0,0,0,74.23,206.29Z" fill="#68e1fd" class="target-color"/><path d="M266,49.52,192.18,7.59a4.81,4.81,0,0,0-4.71,0h0l-5,2.65L185,11a5,5,0,0,0-.08.82L183.5,160a11.62,11.62,0,0,0,5.91,10.23l74.14,41.86a5,5,0,0,0,.46.22l-.93,2.31,4.64-2.25a4.94,4.94,0,0,0,.88-.46l0,0h0a4.8,4.8,0,0,0,2.17-4V57.74A9.45,9.45,0,0,0,266,49.52Z" fill="#2c2cb5"/><path d="M170.92,204.73l-52.19,27.06s31.75,20.64,52.54,30.33l64.19-38.25" opacity="0.62" fill="url(#linear-gradient)" style="mix-blend-mode:multiply"/><path d="M184.69,172.48l74.14,41.86a4.86,4.86,0,0,0,7.25-4.23V60a9.45,9.45,0,0,0-4.78-8.22L187.45,9.86A4.86,4.86,0,0,0,180.19,14l-1.41,148.2A11.62,11.62,0,0,0,184.69,172.48Z" fill="#5f5cea"/><polygon points="183.99 163.62 260.1 206.59 260.1 63.79 185.34 21.35 183.99 163.62" fill="#e2f2ee"/><polygon points="239.68 125.77 239.68 156.88 252.77 165.13 252.77 133.65 239.68 125.77" fill="#68e1fd" class="target-color"/><polygon points="240.71 132.87 240.71 139.08 243.54 140.95 243.54 134.67 240.71 132.87" fill="#5f5cea"/><polygon points="244.69 135.06 244.69 141.27 247.51 143.14 247.51 136.86 244.69 135.06" fill="#5f5cea"/><polygon points="248.66 137.39 248.66 143.6 251.49 145.47 251.49 139.19 248.66 137.39" fill="#5f5cea"/><polygon points="240.71 140.95 240.71 147.16 243.54 149.04 243.54 142.75 240.71 140.95" fill="#5f5cea"/><polygon points="244.69 143.14 244.69 149.35 247.51 151.23 247.51 144.94 244.69 143.14" fill="#5f5cea"/><polygon points="248.66 145.47 248.66 151.69 251.49 153.56 251.49 147.27 248.66 145.47" fill="#5f5cea"/><polygon points="240.71 149.01 240.71 155.22 243.54 157.09 243.54 150.81 240.71 149.01" fill="#5f5cea"/><polygon points="244.69 151.2 244.69 157.41 247.51 159.28 247.51 153 244.69 151.2" fill="#5f5cea"/><polygon points="248.66 153.53 248.66 159.74 251.49 161.62 251.49 155.33 248.66 153.53" fill="#5f5cea"/><path d="M225.12,146.74a11.26,11.26,0,0,1,5.44,9.21q0,.18,0,.35a7.3,7.3,0,0,1-4.27,6.46,7.76,7.76,0,0,1-4.84.06c-3.7-1-8.28-3.47-10-7.07a7.6,7.6,0,0,1-.24-6c1.15-3,4.27-4.62,7.35-4.84A10.91,10.91,0,0,1,225.12,146.74Z" fill="#f8951d"/><path d="M228.9,150.48l-1.66.7a4.11,4.11,0,0,1-2.84-2.4c-.16-.39-.81-.22-.64.18a4.8,4.8,0,0,0,2.53,2.59l-.55.2c-1.8.64-4,1.41-5.92,1a2.28,2.28,0,0,1-1.83-3.16c.73-1.53,2.74-2.24,4.22-2.75.68-.23,1.36-.44,2.06-.61a10.67,10.67,0,0,0-5.73-1.29c-3.08.22-6.2,1.86-7.35,4.84a7.6,7.6,0,0,0,.24,6c1.74,3.6,6.32,6,10,7.07a7.76,7.76,0,0,0,4.84-.06,7.3,7.3,0,0,0,4.27-6.46q0-.18,0-.35A10.08,10.08,0,0,0,228.9,150.48Z" fill="#393b5b"/><path d="M214.79,157.93c-.32-.24-20.88.31-24.09,44.65l-12-6.9a11.86,11.86,0,0,0-6.83,11.84c.61,8.8,27.68,23.45,39.29,19.51s6.48-31.71,6.48-31.71l6.76-15.89" fill="#393b5b"/><path d="M213.77,216.18s12.43,4.18,14.34,1.69,10.93-22.21,5.65-28.62-16.65,0-20.34,3" fill="#393b5b"/><path d="M226.58,218.46c1.53-.58,8.19,2,9.27,1.38s1.35,7.5-6.71,5.56a61.59,61.59,0,0,1-14.35-5.51s2.08-6,5.3-6.38" fill="#393b5b"/><path d="M248,150.48l-.44.49,0-.37a9.19,9.19,0,0,1,1-1.44,1.28,1.28,0,0,0-.46-2l.09-.08c1.15-1.07-.58-2.79-1.72-1.72l-.92.83a1.33,1.33,0,0,0-1.75-.11c-.63.49-1.41.94-1.7,1.72a8.36,8.36,0,0,0-.1,2.81l0,2.13c-.21-.38-.43-.76-.66-1.12-.84-1.31-2.93-.12-2.11,1.23a20.72,20.72,0,0,1,1.63,3.24l.1.27c-.14.75-.29,1.49-.46,2.24a17.7,17.7,0,0,1-.48,2.27,1.07,1.07,0,0,0-.24,1.48,1.16,1.16,0,0,0,1.76.4,1.32,1.32,0,0,0,1.64-.09,1.21,1.21,0,0,0,.79,0,1.18,1.18,0,0,0,1.57.37c1.11-.6,1.36-2.32,1.64-3.43a14.19,14.19,0,0,0,.48-4.58s0-.07,0-.11a14.85,14.85,0,0,1,2-2.64C250.81,151.06,249.09,149.33,248,150.48Z" fill="#f8951d"/><path d="M243.14,150.77l.36.1a8.05,8.05,0,0,1,.1-1.51c.21-1.19,1.33-2.24,2.16-3.07a.22.22,0,0,0-.31-.31,8.69,8.69,0,0,0-2.19,2.86,5.53,5.53,0,0,0-.23,1.9Z" fill="#393b5b"/><path d="M247.91,146.8c-.65,1-1.56,1.73-2.2,2.68a4.86,4.86,0,0,0-.64,2.11q.22.14.42.3a4.87,4.87,0,0,1,1-2.63,23,23,0,0,0,1.81-2.24C248.45,146.78,248.07,146.56,247.91,146.8Z" fill="#393b5b"/><path d="M247.25,151q-.43.93-.78,1.89l.16.23a.66.66,0,0,1,.11.32c.26-.75.56-1.49.89-2.22C247.75,151,247.37,150.78,247.25,151Z" fill="#393b5b"/><path d="M226.29,162.77a4.83,4.83,0,0,0,2,4.54c2.43,1.5,12.72-10.42,12.72-10.42s4.73-.38,5.68,5.4-14.31,19.9-22.29,20.89-13.72-7.58-13.72-7.58,1.07-16.57,5.94-17.68" fill="#393b5b"/><polygon points="74.08 144.49 78.63 146.74 81.29 144.2 85.09 139.85 77.69 138.45 74.08 144.49" fill="#467ec1"/><path d="M134.27,44.31,109.16,56.19l-3.59,10.89L68.62,87.19A3.09,3.09,0,0,0,67,90.3l7,54.2,68.51-40-4.1-46.24c-.1-1.92-1-8.75-1.58-12.49A1.86,1.86,0,0,0,134.27,44.31Z" fill="#2c2cb5"/><path d="M144.68,48.84,117.44,62.92l-3.63,9L80.3,91.14A3.32,3.32,0,0,0,78.63,94v52.73l68.51-40V52L147,50.2A1.62,1.62,0,0,0,144.68,48.84Z" fill="#68e1fd" class="target-color"/><path d="M164.81,212.31a12.15,12.15,0,0,0,4.25.89,2.09,2.09,0,0,0,1.79-3.15h0a3.52,3.52,0,0,1,1.09-3.56c.67-.49,2.4.24,3.56.82a2.08,2.08,0,0,0,2.17-.2l3.16-2.35a2.07,2.07,0,0,0-.23-3.47c-3.84-2.14-10.45-5.64-11.6-5-1.64,1-6.61,9.79-6.63,12.05A5,5,0,0,0,164,211.8,2.12,2.12,0,0,0,164.81,212.31Z" fill="#393b5b"/><path d="M226.8,148.73a1.47,1.47,0,0,0-.75-.34c-.11,0-.25,0-.27.15a.74.74,0,0,0,0,.25.21.21,0,0,0,0,.19,1.38,1.38,0,0,0,.58.58.49.49,0,0,0,.68-.12C227.2,149.17,227,148.89,226.8,148.73Z" fill="#393b5b"/><path d="M223,150.37a1.39,1.39,0,0,0-.74-.51.34.34,0,0,0-.36.51h0a1,1,0,0,0,.3.82.64.64,0,0,0,.75,0A.59.59,0,0,0,223,150.37Z" fill="#393b5b"/><path d="M227.31,124.13s6.68-4.34,6.74-4.39-4.45-3.49-4.45-3.49L227,121.2" fill="#3d65af"/><polyline points="201.38 71.8 207.34 67.91 208.82 75.78 202.78 74.56" fill="#3d65af"/><path d="M209.65,67.72a2.12,2.12,0,0,0-3.18,1.79l-.66,33.59a3,3,0,0,0,1.47,2.58l23.63,14.09a3,3,0,0,0,4.55-2.58V84.35a3,3,0,0,0-1.56-2.64Z" fill="#2c2cb5"/><path d="M203.3,71.9a2.12,2.12,0,0,0-3.18,1.79l-.66,33.59a3,3,0,0,0,1.47,2.58L224.56,124a3,3,0,0,0,4.55-2.58V88.53a3,3,0,0,0-1.56-2.64Z" fill="#5f5cea"/><ellipse cx="213.23" cy="92.14" rx="5.09" ry="8.08" transform="translate(-6.65 17.23) rotate(-4.56)" fill="#68e1fd" class="target-color"/><rect x="210.6" y="93.27" width="3.84" height="15.95" rx="1.42" ry="1.42" fill="#68e1fd" class="target-color"/><ellipse cx="226.25" cy="81.28" rx="2.44" ry="1.47" fill="#68e1fd" class="target-color"/><path d="M218.86,55.29c-11.43-2.75-11.34,10.48-11.34,10.48v4.73a4.89,4.89,0,0,0,.19,2.06,2.76,2.76,0,0,0,2.15.81c.68,0,1.66-.11,2-.73a4.16,4.16,0,0,0,.17-1.79c-.07-1.1-.09-2.21-.05-3.31.07-2.38.28-5.28,1.81-7.23a3.67,3.67,0,0,1,4.27-1.06c5.87,1.95,5.71,9,5.71,9v13h4.88V67.91S227.78,57.44,218.86,55.29Z" fill="#68e1fd" class="target-color"/><path d="M130.68,176,93,200.51S85,199.3,105.76,209l41.14-26.75" opacity="0.62" fill="url(#linear-gradient-2)" style="mix-blend-mode:multiply"/><path d="M125,171.81s1.81,10.92,12.9,11.91c14.76,1.32,15.52-11.91,15.52-11.91" fill="#68e1fd" class="target-color"/><path d="M134,172h-9s1.64,9.87,11.35,11.69A12,12,0,0,1,134,172Z" fill="#393b5b" opacity="0.37"/><ellipse cx="139.21" cy="171.81" rx="14.21" ry="4.22" fill="#393b5b"/><path d="M152.77,162.55c-2.64-.78-5.66.26-7.85,1.73a15.33,15.33,0,0,0-2,1.65,6.83,6.83,0,0,0-.82.43c1.16-3.42,1.87-6.93.18-10.38-.88-1.8-3.53-4.58-5.61-2.7a4.17,4.17,0,0,0-1.06,3.16,17.53,17.53,0,0,0,.6,4.33c.4,1.6.92,3.17,1.31,4.77q.11.44.2.88a42.54,42.54,0,0,0-4.08-3.67c-.3-.23-.61-.44-.94-.64a9.14,9.14,0,0,0-5.3-2.62,5,5,0,0,0-3.63.71,3.18,3.18,0,0,0-1,3.37c.63,2.84,3.18,5,5.56,6.41a18.47,18.47,0,0,0,8.7,2.6.79.79,0,0,0,.55.23,37.59,37.59,0,0,0,9.55-.94c2.63-.61,5.86-1.42,7.67-3.6S155.36,163.32,152.77,162.55Z" fill="#d9e021"/><path d="M150.63,165.42c-2.76,2.81-6.5,4.14-9.93,5.94a83.28,83.28,0,0,0-1.31-16.44c-.11-.63-1.07-.36-1,.26a81.83,81.83,0,0,1,1.27,16.24q-6.83-4.67-13.49-9.58c-.52-.38-1,.48-.5.86q6.63,4.89,13.43,9.54l-.62.39c-.54.35,0,1.21.5.86l.64-.4c0,.1,0,.21,0,.31,0,.64,1,.64,1,0v-.13l.35.24c.53.36,1-.5.5-.86l-.48-.33c3.55-1.91,7.45-3.27,10.32-6.2C151.79,165.67,151.08,165,150.63,165.42Z" fill="#393b5b"/></g></g></svg>