<svg xmlns="http://www.w3.org/2000/svg" xmlns:xlink="http://www.w3.org/1999/xlink" viewBox="0 0 400 300" data-imageid="world-wide-web-isometric" imageName="World wide web" class="illustrations_image" style="width: 215px;"><defs><linearGradient id="linear-gradient" x1="145.84" y1="222.32" x2="166.26" y2="191.1" gradientUnits="userSpaceOnUse"><stop offset="0" stop-color="#f7b11b"/><stop offset="1" stop-color="#d9616f"/></linearGradient><linearGradient id="linear-gradient-2" x1="40.92" y1="186.65" x2="62.27" y2="168.14" xlink:href="#linear-gradient"/><linearGradient id="linear-gradient-3" x1="300.27" y1="201.73" x2="330.88" y2="175.19" xlink:href="#linear-gradient"/></defs><title>PP</title><g style="isolation:isolate"><g id="Layer_2" data-name="Layer 2"><path d="M194.28,289.5,14.56,183.29c-5.72-3.21-10.63-8.49-5.05-11.94l180.37-104c2.71-1.68,6.82-2.78,9.57-1.18L388.11,175.7c5.72,3.32,6.75,12.6,1,15.93L218,289.34A23.9,23.9,0,0,1,194.28,289.5Z" fill="#f7b11b"/><polyline points="149.13 163.31 85.51 196.73 168.69 245.26 226.74 216.46" fill="url(#linear-gradient)"/><polyline points="58.64 172.88 30.75 182.7 46.77 192.53 69.2 174.89" fill="url(#linear-gradient-2)"/><polyline points="325.68 181.98 285.7 196.08 308.65 210.17 340.82 184.87" fill="url(#linear-gradient-3)"/><path d="M148.86,108.72l0,0h0Z" fill="#68e1fd" class="target-color"/><path d="M138.57,121.63l-.22.36a1.25,1.25,0,0,1,.49-.12C138.82,121.64,138.71,121.61,138.57,121.63Z" fill="#68e1fd" class="target-color"/><path d="M137.68,124.48c-.18-.56-.38-1,.3-1.16.28,0,.45-.3.66-.51s0-.34,0-.54l-.53.25a.86.86,0,0,1,0-.15q-.52.87-1,1.76A5.64,5.64,0,0,0,137.68,124.48Z" fill="#68e1fd" class="target-color"/><path d="M151.92,197.88l.7-3.67a12.43,12.43,0,0,0,.31-1.64,9.07,9.07,0,0,0-.17-1.41,4.28,4.28,0,0,0-.15-1.25c-.17-.26-.71-.49-1-.66l-1.41-1a2.81,2.81,0,0,1-.9-1.21l-1.74-3.26-1.44-2.69c-.29-.55.2-1.57.34-2.15a3.83,3.83,0,0,1,.28-1.15l.82-1.05c.61-.78,1.13-1.23,1-2.34,0-.25-.19-.38,0-.57,0,0-.06-.38,0-.51.08-.34-.66-.64-.59-1s.08-.35-.25-.54-.23-.12-.48,0a2.55,2.55,0,0,0-.48.39c-.08.08.16.36.21.46-.47.2-.45.26-.67-.26-.1.28-.57-.19-.83-.25s-.23.13-.31.07l-.43-.33c-.3-.22-.88-.5-1.08-.82s-.09-.69-.31-.94c-.56-.64-.9-1.21-1.67-1.43-.6-.17-1.61-.21-2.08-.68l-1.25-1.24c-.27-.27-.66,0-1,.12-.74.23-1.5-.31-2.21-.6l-1.71-.69a2.17,2.17,0,0,1-.66-.27l-1.11-1.13c-.34-.35-.14-.56,0-1,.09-.32-.5-.94-.66-1.19a3.54,3.54,0,0,0-.59-.71l-1.2-1.12c-.09-.09,0-.34,0-.46s-.2-.32-.26-.4l-.25-.32q0,1.13.11,2.26c.15.14.35.35.32.54s-.15.29-.27.27a67.16,67.16,0,0,0,21.59,44.31c.08-.83.17-1.66.33-2.47Z" fill="#68e1fd" class="target-color"/><path d="M148.26,146.83c.43.41,1.33-.38.87-.56l.39-.34c-.26.11-.82.53-1,.45s-.76.05-1.11.13C146.67,147.45,148,146.54,148.26,146.83Z" fill="#68e1fd" class="target-color"/><path d="M146.45,147.46a.71.71,0,0,0-.7.26c-.19.17-.32.35-.58.22a.46.46,0,0,1,.36-.35c-.09-.14-.11,0-.16-.23a4.71,4.71,0,0,0-.51.79l.41.11-.09.12c.55.05.79-.22,1.26-.39a4.37,4.37,0,0,0,1.2-.7c0-.13,0-.2-.09-.29C147.54,147.26,146.7,147.47,146.45,147.46Z" fill="#68e1fd" class="target-color"/><path d="M136.35,139.38c0,.07,0,.13,0,.19a.21.21,0,0,0,.06-.11c.2.07.14.33.11.52.06-.11.16-.23.29-.17s-.08.3-.11.4a1,1,0,0,1,.22-.12.65.65,0,0,0-.19.74c.08.26.24,0,.23-.19,0,0,.11,0,.16.06-.11-.23.09-.49-.07-.63a1.91,1.91,0,0,1-.33-.68c-.12-.31-.73-1.64-.46-1.79l-.06,0c-.09.11-.11.09-.23.11a.37.37,0,0,1,.25-.28l-.14-.11c-.19.35-.19.45.09.65-.22-.1-.62-.3-.71,0-.16.58-.06.47.36.58-.49.11.11.69.23.94l.17.1C136.22,139.35,136.2,139.46,136.35,139.38Z" fill="#68e1fd" class="target-color"/><path d="M262.35,163.59c0,.18,0,.56-.28.39-.09,0-.18-.48-.23-.58s.2-.11.31-.13a1.11,1.11,0,0,0-1.28-.15c-.31.25-1.06.62-1.18,1,0,.13-.28.66-.22.77l.55.89c.26.42.59.8.89,1.19s.59.66.62,1.28c0,.38.23,1.29-.06,1.56a30.76,30.76,0,0,1-2.48,2.1c-.29-.3.11-.74-.09-1l-.83-.9a2.1,2.1,0,0,0-1.56-.87l.06-.49c-.66,0-.54.12-.59.83a4.68,4.68,0,0,1-.39,1.23,1.3,1.3,0,0,0,0,.55c0,.35,0,.29.35.27.16,0,.37,1,.42,1.24s.72.61,1,.8a2.68,2.68,0,0,1,.71.81c.15.37,0,.91.08,1.31a9.18,9.18,0,0,0,.45,1.13,3.06,3.06,0,0,1-1.36-.81c-.43-.34-.45-.53-.63-1.08a5.29,5.29,0,0,0-.51-1.54l-1.19-1.27c-.18-.2.07-1.24.1-1.53a11.07,11.07,0,0,0-.11-1.69,12.35,12.35,0,0,0-.73-3l-.64.78c-.27.33-.24.32-.65.23s-.39-.06-.33-.53c0-.2.19-.73.11-.91a3.77,3.77,0,0,0-1-1.67,3.88,3.88,0,0,1-.87-1.59c-.24.16-.57.53-.85.57l-1.48.21c-.06,0-.38,0-.42.06s.06.43,0,.52l-.73.75-2.06,2.12a3.74,3.74,0,0,1-1,.49c-.37.18-.23.45-.22.89a5.14,5.14,0,0,1,0,1.28c-.09.33-.36.87-.27,1.21a2.34,2.34,0,0,0,.55,1.19,4.17,4.17,0,0,1,.62,1.17c.34.78-1,1.47-1.09.41a9.39,9.39,0,0,1,0-1.37c0-.46-.15-.53-.45-.85,0,.32,0,.65-.24.83l-.84.55c-.78-1.47-1.43-3-2.11-4.51a7.5,7.5,0,0,1-.57-1.29,5.92,5.92,0,0,1,0-1q0-1.47-.09-2.93l-.62.85c-.2.29-.23.25-.57.23s-.82-.75-1.09-1c.27-.06.85,0,.9-.4a1.84,1.84,0,0,1-.49,0,5.66,5.66,0,0,1-1.2-.69c-.25-.14-.41-.79-.53-1.05s-2.21.16-2.55.21a7,7,0,0,1-2.3-.38c-.33-.08-.71,0-.88-.38-.3-.6-.23-.77-.83-.55a2.24,2.24,0,0,1-1.33,0c-.33-.05-.53-.45-.83-.59a1.3,1.3,0,0,1-.86-.89c-.18-.38-.25-.87-.65-.93-.69-.1-.69-.07-1.16.49-.16.2.41.89.53,1.09.43.72.8,1.48,1.19,2.23.06-.34.11-.67.16-1a3.21,3.21,0,0,1,.24,1.6,4.31,4.31,0,0,0,1.78-.22,7.37,7.37,0,0,0,1.22-1.39c0,.42-.07,1.12.28,1.36a4.44,4.44,0,0,0,.64.44c.2.09.43,0,.55.23s.22.59.4.62.18.26.16.57-.66.84-.86,1.08c0-.1-.09-.19-.1-.29a2.05,2.05,0,0,0-.27,1c0,.37-.14.33-.44.48l-.95.45c-.19.09-.18.62-.36.7s-.38-.12-.54-.06l-.69.3c-.32.14-.27.57-.57.67l-1.57.56c-.16.05-.18.14-.28.29s-.29.17-.5.22c-.45.09-.9.23-1.35.35s-.4.46-.76.46c-.56,0-.61.12-.72-.46l-.33-1.77a6.76,6.76,0,0,0-1.09-2.32c-.28-.47-.32-.56-.81-.74-.28-.11-.28-1-.33-1.25a4.84,4.84,0,0,0-.56-1.25c-.12-.24-.4-.36-.54-.62l-.94-1.68c-.16-.28-.27-.76-.64-.66,0-.34.09-.69.14-1l-.41,1.24a5.69,5.69,0,0,1-1-1.55c-.33.42.25,1.12.44,1.5l1.15,2.35c.23.47.15,1,.49,1.36.15.15.51.41.54.64.06.4.12.79.18,1.19,0,.23,0,.67.19.84a4.4,4.4,0,0,1,.7.68,10.17,10.17,0,0,1,.68,1.85c.07.2.62.16.76.33l.64.75c.36.41,1.08.87.52,1.4.38.11.78.89,1.08.81l3.07-.82c.19,0,.74-.28.89,0s-.26,1.15-.31,1.36a10,10,0,0,1-1.17,2.31,7.94,7.94,0,0,1-1.07,1.77,23.44,23.44,0,0,0-3.61,4.1c-.21.35-1.53,2.16-1.32,2.48a1.56,1.56,0,0,1,.33,1.35,1.24,1.24,0,0,0,.36,1.15c.55.75.37,1.92.41,2.87a2.14,2.14,0,0,1-1.1,1.79c-.31.15-.95.3-1.19.57l-.92,1.08c-.27.31-.6.46-.43.87s.54.91.5,1.21a4.75,4.75,0,0,1-.16,1.46c-.16.26-.93.45-1.2.57-.44.21-.34.41-.39.94a4,4,0,0,1-.13,1.29,22,22,0,0,1-1.58,2.24,13,13,0,0,1-1.06.91c-.2.17-.58.66-.83.71l-2.75.58-1.27.27c-.2,0-.61-.49-.76-.63-.5-.45-.48-.44-.41-1.16,0-.27-.28-.76-.38-1l-.64-1.6c-.13-.32-.52-.56-.75-.79s-.15-.89-.19-1.11l-.28-1.83a7.43,7.43,0,0,0-.89-2.19l-.7-1.43c-.1-.21,0-.6.07-.82a8.15,8.15,0,0,1,.68-2.93c.49-.87.19-1.56,0-2.45l-.68-2.91c-.07-.29-.46-.64-.63-.87l-1-1.33c-.18-.24-.05-.55,0-.84.07-.6.14-1.21.21-1.82s.09-.55-.21-1-.33-.52-.86-.48c-.31,0-.94.21-1.16-.06l-1-1.17a6.55,6.55,0,0,0-2.31.26l-1.37.7c-.36.18-.52.09-.91,0a1.6,1.6,0,0,0-1.06-.09l-1.5.53c-.24.08-.51-.24-.7-.38l-1.44-1a3.57,3.57,0,0,1-1.28-1.3l-1.83-3.19-.59-1c-.09-.16.23-.76.29-.92s.42-.8.35-1.11c-.11-.51-.23-1-.34-1.52a5,5,0,0,1-.29-1.3,2.78,2.78,0,0,1,.39-.7l1.77-3.19a3.77,3.77,0,0,1,1.62-1.42c.37-.23.53-.24.6-.69l.26-1.69c.1-.66,1.42-.79,1.68-1.43.18-.45.26-1.08.71-1.21.12,0,.45.58.81.5.16,0,.54-.2.69-.12s.42.3.5.25a12.37,12.37,0,0,1,1.08-.64,8.4,8.4,0,0,1,2.27-.7,2.19,2.19,0,0,1,.7-.07,1.8,1.8,0,0,0,.56.18c.19,0,.37-.23.55-.26a2.61,2.61,0,0,1,.51,0,1.92,1.92,0,0,0,1.27-.15c.35-.21.68.07,1,.22-.27.59-.32.61,0,1.18.14.26-.4.65-.58.85.29.26.65.74,1,.83l1.88.5c.48.13.35.66.83.87s.81.11,1.2.38c.55.39.83.48,1.19-.21.08-.16-.18-.41-.1-.56s.21-.51.34-.55a2.36,2.36,0,0,1,1.52-.1c.13,0,0,.32.19.35l.85.17c.23,0,.24.16.35.39s.28-.14.38-.11l1.36.4a1,1,0,0,0,1-.08c.52-.26.57-.34,1.09-.09a1.32,1.32,0,0,0,1.85-.58c.17-.49,1-2,.69-2.49-.21-.31.25-1,.14-1.11s-.3.08-.4.16-.3-.16-.43-.13-.32.4-.48.48a2.08,2.08,0,0,1-.63,0c-.39,0-.56-.41-.92-.47s-.44-.18-.53.08-.1.3-.41.36-.79-.36-1-.5c-.45-.26-1.22-1.56-.74-2.1l-.48.06c-.07-.53.62-.68.91-.69a2.39,2.39,0,0,0,1.33-.3l-.46-.23c.09-.26.65-.15.9-.11.47.07.49-.06.86-.31a1.69,1.69,0,0,1,.87-.38,2.53,2.53,0,0,0,1.08,0c-.09.15.07.29.23.37s.16-.22.42.15c.1.13.8.24,1,.33.38.15.62-.08,1,0a1.6,1.6,0,0,0,1.11-.35c.31-.19.14-.74-.06-1s-.62-.37-.91-.65-.58-.68-1-.73a4.17,4.17,0,0,1-.43-.26c-.17-.12-.33-.25-.5-.38l.14-.19.48.1c-.15-.51.18-.66.55-.66-.18-.15-.42-.28-.51-.49h.48c-.11-.36.36-.1.43-.32s-.3-.15-.41-.13a1.51,1.51,0,0,0-1.1.44V144a1.66,1.66,0,0,0-.95.5l.08-.17c-.45-.06-.25.51-.06.72s.59.13,1,.13c-.26.47-.57.12-.85.28s-.89.69-1.22.43c.2-.55-.06-.49-.52-.7.23-.12,1.1-.44.51-.64a1.67,1.67,0,0,0-.59,0c-.14,0-.33-.2-.45-.29.24,0,.55.15.68-.13-.27.13-.93-.17-1.09,0s-.68.59-.72.86a2.33,2.33,0,0,1-.1.64c-.09.12-.43.11-.46.26-.1.48-.08.83-.46,1.09s-.29.69-.11,1,.73.51.7.62c-.1.31-.66-.08-.86.11l-.9.84c0-.33.15-.39.38-.53-.17-.07-.38-.08-.58-.15a5.54,5.54,0,0,0-.77-.12c-.14,0-.32.08-.45.13s0,.28,0,.33c-.25.21-.42,0-.63-.13-.23.26,0,.5.16.74s.22.32-.07.62c.38.27.79.36.71.91-.23-.17-.38-.39-.62-.09.3.06.32.24.11.41s-.11.27,0,.55c-.25,0-.45,0-.56-.26s-.21-.16-.4,0c-.2-.67-.33-.73.18-1.15-.48,0-.48-.06-.77-.49-.16-.24-.28-.66-.5-.83-.38-.31-.24-.55-.19-1.06s-.11-.48-.47-.76a3.79,3.79,0,0,0-1.59-1c-.15,0-.49-.47-.54-.63a1.26,1.26,0,0,0-.53-.86c-.16.49-.35.24-.42-.11s0-.26-.37-.16-.59.14-.36.56c.08.15-.21.5.05.7a3.53,3.53,0,0,1,.74.55c.17.23.14.6.36.79s.4.41.73.43.59,0,.26.27c.31.25,1.85.89,1.46,1.42-.16-.08-.6-.69-.78-.52a.69.69,0,0,0-.27.48c0,.22.09.21.25.33.45.35-.31.45-.28.66s-.57.83-.55.34a.63.63,0,0,0-.21.85c.15.3-.46.4-.53.16-.13-.44-1.6-.39-1-1a2.72,2.72,0,0,0,1.83-.05c.19-.13,0-.26.23-.37s-.2-1-.31-1-.42,0-.39-.21a.23.23,0,0,0-.36-.24c0-.2-.4-.53-.58-.51s-.49-.27-.72-.5c-.41-.39-1-.59-1.08-1.14s-.12-.54-.55-.77c-.22-.12-.5-.21-.66,0a5.57,5.57,0,0,1-1.43.95l-1.15-.38c-.2-.06-.5.36-.65.49s.15.66,0,.86-.67.34-.88.45c-.62.33-.82.83-1.19,1.47-.11.19.37.37.14.68s-.52.51-.41.74c-.14,0-.46,0-.53.17s-.22.47-.34.48a8.64,8.64,0,0,1-1.2,0c-.36,0-.56.42-.84.51s-.71-.48-.39-.7c-.31.15-.45-.38-.85-.15s-.54-.09-.82.12a2.55,2.55,0,0,0,.09-.69l0-.39c0-.14-.14,0-.2,0-.24-.36-.06-.45,0-.85s.38-1,.22-1.38a1.93,1.93,0,0,1,0-1.11c-.22.17-.36-.16-.27-.37s.49-.19.63-.22a.84.84,0,0,0-.07-.13c.38-.34.55.12.88,0a1.55,1.55,0,0,1,1.09,0c.35.11.65-.07,1,.05a2,2,0,0,0,.87.09c.62-.13.54-1.35.54-1.84s.08-.62-.36-.76c-.26-.08-.29-.54-.24-.68-.24.06-.15-.09-.24-.13s-.38-.06-.42-.1-.26-.25-.5-.23a.34.34,0,0,1-.39-.19c.07,0,.13-.05.2-.06a.39.39,0,0,1-.26-.38,1.45,1.45,0,0,0,.78-.14c.48-.33.2.27.51.19.11,0,.7-.12.67-.29a2.72,2.72,0,0,0-.24-.74c.13,0,.36,0,.4.11s0,.21.22.23a1.32,1.32,0,0,0,.83-.11c-.08,0-.16-.06-.24-.07a1.76,1.76,0,0,1,.76-.45c.36-.18,0-.42.16-.71.08-.13.64-.26.81-.34a1.28,1.28,0,0,1,.77-.1c-.11,0-.41-.07-.42-.2s.28-.06.31-.08,0-.19.06-.26a1.56,1.56,0,0,0,.31-.74c0-.15.29-.12.39-.24.33-.4.65-.17,1-.29.06,0,0-.2.1-.22l.32,0a1.88,1.88,0,0,1,.5.06c-.06-.31.2-.23.42-.25-.12,0-.44-.32-.28-.44s0-.19-.05-.46.08-.44-.16-.64-.15-.27-.16-.54c0-.45.07-.95.53-1s.65-.39,1-.57c-.24.35-.36,1.09.15,1.22-.3.48-.87.64-.77,1.29.08.47.52.87,1,.66l-.18.38c.43.25.8-.36,1.16-.4a.78.78,0,0,1,.53.35c.07.25.29.3.5.42a.71.71,0,0,0,0-.24l-.36,0c.26-.17,1.19-.19,1.37-.43a1.27,1.27,0,0,1,1.55-.29l-.26-.11c0,.4.56.46.76.21.08-.1.11-.33.17-.38s.16,0,.21-.05.32-.19.42-.35a1.07,1.07,0,0,1-.27.38c.68.33.27-.92.25-1.23a.86.86,0,0,1,.2-.63c.14-.17,0-.45.27-.63.61-.45.75.55,1.2.58.25,0,.42-.34.39-.56s.09-.71.06-.74-.2.11-.24.07a3.06,3.06,0,0,1-.27-.29c-.07-.08-.19-.58-.12-.61a2.94,2.94,0,0,1,1.41-.4l1,.13c.48.06.07-.11.35-.3s.45,0,.66-.18.49,0,.66.07c-.1-.32-.74-.44-1-.55,0-.07,0-.2.1-.26-1,.19-2,.42-3,.61-.1,0-.51.17-.57.07a.91.91,0,0,0-.57-.5c-.39-.16-.35-.12-.28-.57a1.49,1.49,0,0,0,0-.74,3,3,0,0,1-.22-.89c0-.19.43-.49.56-.64.31-.36.74-.59,1-1,.16-.19.39-.64.6-.74s.5.1.38-.29a1,1,0,0,0-1-.74c-.67,0-.73,0-1.2.48-.3.33-.45.6-.21,1s-1.61,1.33-1.76,1.53c-.46.58-1.23,1.5-.74,2.35.21.37.82.35,1,.78s-.37.55-.59.75c-.38.33-.67.46-.75,1a6.4,6.4,0,0,1-.21,1.41c-.23.52-.62.52-1.07.62-.18,0-.17.25-.22.43s-.19.15-.4.17-.35.1-.4-.25a1.58,1.58,0,0,1-.06-.65c.13-.37-.4-.81-.61-1.1-.09-.12,0-.35-.1-.49a3.09,3.09,0,0,1-.28-.58c0-.19.12-.52-.09-.56s-.21-.36-.27-.54c-.13.5-.23.55-.62.83s-.5.5-.78.67c-.44.27-1.55.13-1.58-.55,0-.84-.35-1.65-.31-2.48s.08-.72.6-1.16a4.52,4.52,0,0,1,.93-.55,3,3,0,0,0,1.06-.67c.28-.31.56-.6.86-.89a9.72,9.72,0,0,0,1.41-2.14,14.45,14.45,0,0,1,1.64-1.95,6,6,0,0,1,1.82-1.67,20.17,20.17,0,0,1,2.53-.93c.33-.1.5-.64.81-.82a1.83,1.83,0,0,1,1-.18,2.43,2.43,0,0,0-.74,1.26c.38-.07.7-.71.95-1q.06.29.11.57l.51-.68c.07-.1.51,0,.63,0l-.32.53c.45.34.19-.49.56-.35l1.16.46c.33.13-.28.44-.4.47a3.56,3.56,0,0,1-.95-.09c.15.27.45.17.57.48,0,.08.42,0,.56,0,.33,0,.65.17.87-.12.1-.14.51.17.66.24-.08.31-.37.11-.59.06-.09.64,1,.39,1.31.4a2.75,2.75,0,0,1,1.47.5,8,8,0,0,0,1.54.73,1.67,1.67,0,0,1,1.14.9c.16.48.14.47-.13.89-.17.26-.22.42-.49.51a2,2,0,0,1-1.42.09,13.15,13.15,0,0,1-3.11-1.06c.31.31,1.18.89,1.18,1.36s-.08,1.41.34,1.59,1.09.76,1.56.56c.28-.11.13-.56-.14-.56s-.39-.25-.58-.49c.44-.4.46-.3,1-.12l1.31.45a6.82,6.82,0,0,1-.34-1l1-.66c.17-.12.49-.45.7-.39l1,.31c0-.2.21-.57.14-.75s-.36-.6-.38-.53c.08-.32.16-.64.23-1,0-.11-.34-.45-.42-.55l1.26.16c.31,0,.52.52.72.78-.21,0-.82,0-.93.16s.16.52.36.78.55.1.87.05.11-.35.32-.63c.1-.13.46-.21.59-.27l1.14-.52,1.73-.79c.17.55.16.54.67.67.33.08.5-.54.79-.51a1.64,1.64,0,0,0,1.07-.07,1.21,1.21,0,0,1,1.06-.09l-.22.38c.53.16.51.18.86-.29s.11-.48-.21-.9a3.67,3.67,0,0,1,2.59.1l1.55.62a5.87,5.87,0,0,1,1.08.81c0-.2.22-.85.06-1l-1.14-.85c-.25-.18.15-.72.26-1s-.5-.44-.67-.55l1.13-.9c.26-.2.36-.94.47-1.26s1.92,0,2.34.06l-.48,1.32c-.09.23.3.76.41,1,.19.39-.43,2.11-.13,2.32s.79.29.59.76c-.11.26-.24.87-.47,1l-1.21.74c-.17.11-.72-.08-.93-.1a1.87,1.87,0,0,0,1.8.56,5.43,5.43,0,0,0,1.58-1.36c.46-.46-.72-1.16.24-1.46.18-.05.71-.34.85-.17l.74.85c-.06-.37,0-.73-.31-.94a.87.87,0,0,0-.9-.21c-.11,0-1.06.23-1.08.14-.07-.26-.31-.72-.19-1s.5-.72.29-1-.67-.73-.5-1,.57-.42.94-.57,0-.76,0-.93c.2-.05.61.5.49.73-.28.54-.25.53,0,1.06.2.36,1.68.36,2.06.39a16.57,16.57,0,0,1-1.58-.65c-.6-.28.44-.73.68-.81a2.17,2.17,0,0,1,1.75.22,3.89,3.89,0,0,1,.63.39c.2.13.47,0,.69,0a2.8,2.8,0,0,0-.29-.78c-.14-.13-.65-.11-.84-.14s-.29-1.11-.34-1.39l2.43-.25,1.37-.14c.3,0,.18-.35.19-.66,0-.6,0-.61.43-.88l0,0a67.33,67.33,0,0,0-93.46-11.34,2.78,2.78,0,0,1,1,0,13.88,13.88,0,0,1,2.27.6,6.5,6.5,0,0,1-2,1l-2.62.2,1.18.2-2,.61,3.35-.68c0,.54-1.5.92-2,1.2a4.8,4.8,0,0,1-1.16.71l-1.31.27.82,0a2.46,2.46,0,0,1-.83.65c-.26.14-.61-.06-.88-.13l.12.4c-.71.14-1.43.22-2.15.3l0,0c.4,0,1.4-.08,1.31.38h-1.25c.3.08,1.25.11,1.2.56l-1.08.14.62.33a1.29,1.29,0,0,1-.82.61c-.22.08-.71-.24-.84-.14s.4.31,0,.63c-.12.11-.78.58-.64.79s.16.16.39,0,.24,0,.44.09.09.36.11.49-.28.16-.37.19-.24-.12-.28-.11-.15.24-.26.28l-1.08.33c.08-.32.18-.43-.07-.62s-.31.21-.56-.07c0,.39-.39.3-.6.1l-.9,1.07.09,0c.34-.12.61,0,.93-.06a2.18,2.18,0,0,1,2.06.63l-.45.33a.93.93,0,0,1,.53.21c-.33.11-.44.08-.54.43,0,.16-.74.17-.89.2a1.27,1.27,0,0,1-.68-.13c-.28-.1-.07-.52-.46-.52,0,.15.05.31.08.46-.28,0-.85.3-1-.1-.11.41-.61.3-.82,0,0,.08,0,.19,0,.27h-.28q-.51.66-1,1.33a2,2,0,0,1,.42-.24,2.68,2.68,0,0,1,1.72-.21l-.13.53a7.08,7.08,0,0,0,1.39-.48,1.89,1.89,0,0,1,.68,0c.26,0,.2.35.34.55s.26.18.39.45.14.39-.06.76.09.31.27.13.3-.31.69-.08c.11.07.43-.34.53-.43s.55-.1.73-.12a1.94,1.94,0,0,1,1.26.49c.23.22.79,1.11,1,1,.39-.14,1.09-.22,1.26.33-.14.08-.73.34-.68.5.13.37.57.07.7-.21s1.44.48,1.69.61c-.11.36-.6.36-.88.45.23,0,.48,0,.4.32.24-.12.57-.19.62-.52.22.15.57.3.56.63a1.14,1.14,0,0,0-.9.23,1.22,1.22,0,0,0,.62.16c.4-.07.37-.09.52.34l-.78-.16.08.52-.55.07c.65.29,1.3.54,2,.8a1.39,1.39,0,0,1,.67.49c.28.31.47.29.87.35l-.26.41a3,3,0,0,1,1,0c.41.18.25.44.2.88-.2,0-.52-.17-.65,0l.47.23c-.47.25-.65.49-1.1.18a2.59,2.59,0,0,1,0,1.06,2.92,2.92,0,0,1-1.18-.95c.24-.11.6-.14.49-.52-.15.05-.48.26-.63.23s-.4-.43-.59-.54-.38-.15-.52.05.16.28.17.62l-.51-.07.17.52c.26-.1.32-.22.41.07l.24.74c.08-.39.27-.21.5-.11s.26.21.32.56.31.19.44.4a2.88,2.88,0,0,1,.1.81l-.31-.41c-.18.32.29.41.14.74-.07,0-.16,0-.23-.07l.14.38c-.13,0-.48-.41-.68-.54l-1.12-.7c0,.1.05.22.1.32l-.65-.29.37.65c.09.15.43.13.57.22l.68.48c.22.16.13.27.1.56l-1.83-.47c-.22-.05-.21-.33-.34-.37l-.93-.24.1-.16a1.33,1.33,0,0,1-.78-.29l.49-.25c-.28-.15-.6-.12-.78-.39-.32-.49-.31-.78-.79-.46,0-.21-.12-.32-.31-.29,0,.09,0,.2,0,.29-.28-.07-.58-.24-.81,0s-.61.15-.92.17-.53-.38-.42-.57.55-.34.49-.64a3.74,3.74,0,0,0,1.41.1c.11,0,.79-.14.83-.24s-.39-.47-.51-.56l1.13-1.14c.1-.1.27-.17.19-.31l-.48-.88c-.24-.44-.75-.32-1-.72s-.15-.28-.46-.16l-.7.26c0-.58.1-.5.61-.65-.27-.23-.87-1-1.2-.65,0-.16-.06-.31-.09-.46s-.28,0-.38,0c-.28-.13-.24-.7-.63-.34.31.09.35.24.49.54a3.33,3.33,0,0,1-1.92-.2l.55.52c-.25.09-.31-.22-.53-.25s-.14.23-.23.19l-.45-.17a5.12,5.12,0,0,0-1.5-.08,1.59,1.59,0,0,1-.68-.18c-.27-.25.09-.39-.41-.34-.22,0-.35.23-.62.08a2.12,2.12,0,0,1-.9-.84l1.43.12c-.47-.51-.9-.44-1.56-.5-.07,0-.14-.71-.16-.82s.25-.7.34-.91l0-.07q-.94,1.31-1.81,2.66c.2.22.45.43.58.6l-.83.56c.27.11.49.29.75.11s.48,0,.75.17l-.39.27c.26.23.4.23.32.59s-.14.43.17.64a1.37,1.37,0,0,0,.33-.75c0-.13.12-.65.35-.51s.65.29.69.47.26.66-.12.78c0-.07,0-.15,0-.23-.77.43.95,2,1,1.13,0-.24,0-.38.16-.52s.34-.23.34-.36c0-.62,0-.59.53-.82-.21-.33-.41-.49-.33-.88s.29-.29.64-.23.85,0,1,.2a1.16,1.16,0,0,0,.82.49c-.18.33.11.54-.08.76s-.53.09-.71.11a2.55,2.55,0,0,0,.52.88c.28.26.41.47.1.85a3.74,3.74,0,0,1-1,.58c-.26.16-.45-.18-.66-.38l.32.73-.5-.26.06.2-.51-.12c-.11,0,0-.32-.14-.31s-.61-.1-.74.2l.47.28a2,2,0,0,1-.57.71c-.38.21-.51,0-.9-.17a3.88,3.88,0,0,0-1.81-.32l1.39.7a4.47,4.47,0,0,0,1.27.16c-.15.25-.4.94-.64,1.06s-.34.22-.5.21-.38-.09-.55,0c-.51.36-.55.39-1.14.21-.37-.11-.74-.2-1.11-.3l.73.34c-.05,0-.09.11-.14.16a.82.82,0,0,1,.81.11c.18.1.47.38.16.52a1.42,1.42,0,0,1-.85.14c-.12,0-.31.41-.37.5a5.14,5.14,0,0,0-.88,1.52c-.13.64-.26,1.28-.4,1.91.25.06.81.06,1,.24s.34.94.44,1.22c.18.52.3.33.8.22.26-.06.55.12.8.21a7.18,7.18,0,0,1,1.94,1c.21.15.61.58.86.6l1.11.12c.13,0,.84,0,.83.16,0,.51,0,1-.06,1.54,0,.71.69,1.26,1.1,1.77s1.27-.43,1.2-.87l-.23-1.37c0-.24-.36-.57-.49-.77.45-.29,1.32-.62,1.63-1.07a1.89,1.89,0,0,0,0-1.85,5.44,5.44,0,0,1-.69-.74c-.28-.4-.38-.37,0-.69s.42-.3.28-.83c-.08-.28-.26-.62-.17-.91a1.39,1.39,0,0,0,0-1.13c-.1-.33.11-.43.44-.48.61-.07,1.17.45,1.77.17.38-.18.48,0,.83.27.17.12.64.33.7.55s.27.59.65.54a1.28,1.28,0,0,1,.78.24c-.16.27-.25.35-.2.65a1.47,1.47,0,0,1,0,.84c.08,0,.17,0,.25,0-.15.18-.57.48-.34.69.39-1.16,1.79,1.37,2.08-.19.06.07.18.08.25.15.16-.33.41-.66.34-1s.33-.78.6-.72q-.05.21-.09.42c.61,0,1,1.27,1.3,1.77.16.28.65.83.67,1.15s-.29.42-.26.58.32.26.37.3a2.24,2.24,0,0,1,.5.4c.11.18-.07.38.18.4a1.65,1.65,0,0,1,1,.3c.27.18.79.43.21.52a6.34,6.34,0,0,0-1,.28c.19.07.45-.07.66-.13-.14.26-.6.28-.86.36s-.17.58,0,.4a.65.65,0,0,1,.37-.24c.15-.06.09-.14.18-.19a1.79,1.79,0,0,1,.75-.21.38.38,0,0,1-.27-.15c.18,0,.55,0,.62.23s-.21.26,0,.48c.21-.39.46-.18.79-.08s.06.59,0,.74.23.39,0,.72a2,2,0,0,1-.72.44c-.25.07-.5,0-.79.1a1.4,1.4,0,0,0-.62.5,1.44,1.44,0,0,1-1.45.49,11.32,11.32,0,0,0-1.91,0c-.58,0-1.17-.16-1.32.61,0,.2-.6.26-.75.37a5,5,0,0,0-.68.73,8.44,8.44,0,0,1-1,1.24c.77-.38,1.19-1.19,2-1.57.53-.26,2-1.07,2.35-.12l-.2-.08c.39.27-.14.46-.34.63s-.46-.16-.74,0c.12,0,.4.34.41.34a.88.88,0,0,1,.53,0,.92.92,0,0,1-.35.54c.09,0,.2,0,.29,0-.15.41.28.73.59.81l-.1.08c.45.22.89.4,1.28.12l0,.21a.61.61,0,0,0,.27-.08c-.27-.34.27-.84.45-1.12.35.13.15.44.07.71.25-.2.62.19.4.29a1.54,1.54,0,0,1-.88.24c.07.06.11.16.18.23l-1.1.45a1.33,1.33,0,0,0-.41.2c-.16.14-.2-.18-.33-.07s-.47.59-.74.84-.36-.07-.47-.11c-.39-.55.54-1,.86-1.25s.11,0,.22.12.33-.07.53-.24c-.25,0-.56-.1-.77.05a.87.87,0,0,1,.2-.39c-.29-.07-.65.3-.89.45s-.15-.12-.33.09-.3,0-.43,0c.19.59-.82.38-1,.65l-.12-.12c-.16.32-.3.35-.6.47s-.21.22-.29.44-.69,1.36.09,1.28l-.06-.15a.89.89,0,0,1,.16.19c-.23.16-.51,0-.75,0s-.08.33-.26.34a2.23,2.23,0,0,0-1.33.41c.35,0,.64-.22,1-.27l-.11.09c.1,0,.2,0,.29,0a1.53,1.53,0,0,1-.67.26c-.22,0-.6-.06-.73.17.54.06-.24,1.08-.43,1.25.13-.22-.26-.37-.34-.63,0,.31.41.74.27,1a6.35,6.35,0,0,0-.48.94l-.06,0a1.62,1.62,0,0,1,.18-.59c-.14-.09-.07-.37-.35-.29a2.66,2.66,0,0,1,.14-.62s.2-.44,0-.3c-.46.33-.32.55-.2,1.11a1.19,1.19,0,0,0-.44-.23c.11.17.39.22.48.39s-.1.5-.06.62.38.11.29.48-.25.27-.51.36c.23,0,.62-.08.56.26,0,.14-.49.15-.62.17.07,0,.12.11.19.15-.1,0-.16.1-.29.1.11.27.27,0,.46.14l-.39.21c-.1.05-.24-.11-.32-.06s-.31.45-.42.61-.36.06-.5.25a1.8,1.8,0,0,1-.43.49,2.11,2.11,0,0,0-1.05,1.2,1.66,1.66,0,0,0,.09,1.2,11.16,11.16,0,0,1,.61,1.65c.09.31.17,1.1-.05,1.33s-.31.4-.51.12c-.06-.09-.42-.41-.43-.44a3.91,3.91,0,0,0-.27-.66c-.11-.24-.23-.38-.16-.66l-.13.11c-.11-.37.23-.89-.14-1.14s-.5-.66-.88-.54c-.2.07-.42.22-.61.09a2.67,2.67,0,0,0-.58-.38c-.33-.09-.89.35-1-.21-.06.49-1.16.14-1.48.39.23,0,1.06.13.44.43.07,0,.41.15.42.21a.18.18,0,0,1-.23.22c.09-.23-.25-.31-.41-.41,0,.16,0,.22,0,.34-.15-.32-.29,0-.49-.14s-.38-.38-.68-.28-.41-.1-.58-.16-.8.24-1.09.36c-.49.2-1.65,1.06-1.65,1.76,0,.22.28.43.3.65a2,2,0,0,1-.15.52,4.43,4.43,0,0,0-.27,1.18,4.23,4.23,0,0,0,.69,2.57c.33.49.45.84,1,1,.11,0,.29.31.38.28l.66-.25a2,2,0,0,1,.59-.14c.16,0,.28.19.37.16a1.25,1.25,0,0,0,.28-.13c.05,0-.08-.18,0-.25a.88.88,0,0,0,.36-.49c.13-.43.09-.93.54-1.1a3.41,3.41,0,0,1,1-.2c.25,0,1-.12.75.43-.09.22-.39.86-.55.87.08,0,0,.13.22.12-.07.06-.12.14-.19.19l0,0,.1-.07a4.22,4.22,0,0,0-.21.79.51.51,0,0,1-.13-.46,1.55,1.55,0,0,0-.18.3c.34,0,0,.67.06.91s-.27.63-.41.76a8.14,8.14,0,0,0,1.48.12c.21,0,.36-.15.56-.12a2.91,2.91,0,0,1,.75.11.92.92,0,0,1,.66,1c-.06.34-.11.67-.16,1s-.19.36-.22.55c-.11.91,1,2.39,1.82,2.06.51-.21.77-.42,1.31-.26a2.27,2.27,0,0,1,1.1.86c0-.65.77-1.52,1.08-2,.09-.16.69-.26.85-.32l1.3-.47c.4-.14,1.12.2,1.51.29l3.09.72a3,3,0,0,1,1.55.55l2.41,2.31c.51.49,1.62.5,2.26.66s1.08,1.16,1.46,1.65l1.16,1.52c.09.12.3.53.44.58l2.48.9,2.48.9a10.43,10.43,0,0,1,2,1.44c.11,0,.88,0,.9.11.08.37.17.74.26,1.11.18.8.2.79-.24,1.42L172.26,186a2.28,2.28,0,0,0-.59,1.11c-.08,1.15-.17,2.29-.25,3.44-.05.76-.84,1.54-1.23,2.14-.17.26-.31.7-.62.71s-1-.09-1.23.09l-2.27,1.56c-.15.11-.15,1.24-.17,1.44s0,.65-.14.84l-1.88,2.42L162.16,202c-.13.17-1.94-.61-2.22-.7-.16.62.87.69,1,1.22a3.73,3.73,0,0,1,.21,1c0,.24-.39.58-.52.77-.38.56-.89.54-1.5.71a2.66,2.66,0,0,1-1.47,0c.12.38.21.54.07.9s0,.59-.11.68c-.6.42-.95.24-1.57-.07a4.88,4.88,0,0,0,0,1c0,.22.41.59.32.81l-.57,1.23c-.19.41-.25.37-.67.47a.54.54,0,0,0-.15.07,67.35,67.35,0,0,0,103.69-28.59c-.51-.49-1-1-1.44-1.49a3.51,3.51,0,0,1-.69-.87,5.81,5.81,0,0,0-.64-1.39c-.12-.12-.3-.06-.35-.25l-.22-.82c-.12-.46-.71-.36-.73-.87s-.55-.56-.79-.77-.74-.89-.61-1.08.87.19,1,.2c.53.06.45.26.73.67a7.76,7.76,0,0,0,.88.8c.31.29.68.4.93.75.13.18.28.16.5.2s.11.12.32.28.32,0,.32.33.37.14.42.42-.18.26-.14.51.35.21.48.26.13.48.15.6.32.22,0,.51a.45.45,0,0,1,.61-.11l.08-.22s-.05-.08-.08-.08a.31.31,0,0,1-.29-.07c.13-.17.2-.44.38-.17,0-.06,0-.11,0-.17a.2.2,0,0,1,.17.06A67,67,0,0,0,263,163l-.57.21C262.24,163.3,262.29,163.3,262.35,163.59ZM215,153.21c.09-.19.56-.09.69-.07s.5-.2.7-.29c-.18.16-.47.29-.31.58C216,153.47,214.69,153.83,215,153.21Zm-5.16-.38a1.06,1.06,0,0,0,.89.24c.2,0,.65.05.64.28a4.65,4.65,0,0,1-1.67-.21A.92.92,0,0,1,209.84,152.83Zm-9.23-5.07a2.21,2.21,0,0,0,.39-.33c.1-.13-.05-.28.12-.31a2.38,2.38,0,0,1-.14,1.21C200.79,148.34,200.39,147.95,200.61,147.76Zm-.24,1,.19.07c.17-.11.89-.5.81.14,0,.31-.08.62-.11.93s-.28.14-.3.31-.21.26-.39.1,0-.25.05-.53c0,0-.15-.13-.14-.18s.18-.27.17-.36S200.26,149.12,200.37,148.78Zm-2.77,1-.33.27-.37-.29C197.23,149.6,197.37,149.4,197.6,149.82Zm4.2-13.06c-.16,0-.41-.31-.43-.46.18-.1.37-.16.42.06A.21.21,0,0,1,201.8,136.76Zm7.81-3.32c-.29.18-.66.27-.84.58a.47.47,0,0,0-.15-.55A1.34,1.34,0,0,1,209.61,133.43Zm-1.89-1.68h-.1c0,.07,0,.13,0,.2C207.14,131.64,207.67,131.35,207.72,131.75ZM207,134c-.14.19-.32.31-.12.54a1.2,1.2,0,0,0-.51.41C206.36,134.47,206.42,133.85,207,134Zm-4.84,2.17a.25.25,0,0,0,.15-.32.55.55,0,0,1,.2,0c-.09.17,0,.26.15.27-.4-.79,1,0,.12.13.07,0,.12.15.19.2-.34,0-.3.34-.35.63-.05-.25,0-.47-.26-.45S202.13,136.35,202.18,136.18Zm22.74-13.68c-.4-.4-.27-.65.18-.83a1.39,1.39,0,0,1,.76.39C225.71,122.16,225.12,122.69,224.92,122.49Zm7.09-1.11c-.27.23-1-.4-1.13-.65l.34-.21C231.34,120.62,232.29,121.14,232,121.38Zm6.1-4.65a.6.6,0,0,1,.69.44l-1,.18C237.83,116.94,237.73,116.78,238.11,116.73Zm-3.86-10.57c.11-.06.12-.35.23-.43s.44,0,.59,0c0,.4.14.56-.23.64l-1.2.27a1.85,1.85,0,0,1-.26-.25C233.62,105.88,233.94,106.34,234.25,106.17Zm-1.14.48c-.22.24-.83.69-1.08.38s-.26-.12-.48-.12-.22-.22-.3-.43a5.79,5.79,0,0,1,1.27-.47C232.79,105.94,233.37,106.36,233.11,106.65Zm-2.2.76c-.38.07-1.44.4-1.59,0s1.41-.49,1.57-.5l.45.24-.57.09C230.82,107.26,230.84,107.36,230.9,107.41Zm.83.21-.34.18a2.8,2.8,0,0,1-.29-.22C231.32,107.52,231.6,107.34,231.73,107.62ZM230.19,105c.45-.32.66-.2,1.2-.11l-1,.24.48.42-.79.32-1-.14C229.48,105.49,229.83,105.24,230.19,105Zm-.84,1a3.65,3.65,0,0,1,1.22.28,2.44,2.44,0,0,1-1.25.46l-1.18-.31C228.53,105.94,228.74,106,229.34,106Zm-1,1.13-.45.36-.82-.11C227.65,106.92,227.67,106.88,228.35,107.13Zm-1.08,11c.19-.37-.17-.39.22-.67.1-.08.71-.42.69-.55-.07-.33-.2-.49,0-.73l.84-.93a15.41,15.41,0,0,1,1.28-1.21,6,6,0,0,1,1.62-.68,4.19,4.19,0,0,1,1.7-.3,5,5,0,0,0,2-.78c.27-.21,1.74-.55,1.67.23s-1.49.9-1.85,1c-.71.25-1.44.45-2.15.67a6.35,6.35,0,0,0-1.49,1,4,4,0,0,0-1,.62c-.23.3-.45.61-.69.9-.4.47-1.09,1.08-1.07,1.8,0,.92.56,1.3,1.21,1.75-.41.34-1.39,0-1.85,0a2.08,2.08,0,0,1-1.36-.71c-.33-.36-.38-.37-.35-.87S227.14,118.38,227.27,118.11Zm-2.49-11.68a2.18,2.18,0,0,0,1.07-.16c.38-.1.59.08.9.29L225,107l.14.48a3.85,3.85,0,0,1-1.43-.23l.87-.58-1.09.28-.79-.21A3.47,3.47,0,0,1,224.78,106.43ZM204.4,124a1.11,1.11,0,0,0,.13-.22c-.11,0-.08-.08-.17-.14.22,0,.38-.09.38-.38C204.79,123.63,204.65,123.72,204.4,124Zm.43-.56a.9.9,0,0,1,0-.31.92.92,0,0,1,.22,0c.08-.2.2-.32.39-.31Zm4.39-3.19c.24.07.21,0,.41-.16,0,.19-.16.27-.29.4s-.53.12-.61-.26A1,1,0,0,1,209.22,120.23Zm-.55.37a2.13,2.13,0,0,0,.7-.07c.21-.11.22-.34.49-.35a1.94,1.94,0,0,1-1.36.73C208.68,120.86,208.79,120.76,208.68,120.59Zm-.63.21c0,.22-.06.31-.22.19l-.06-.18A.71.71,0,0,1,208,120.8Zm-.24.34-.52.25-.37.12C207.1,121.28,207.55,121,207.81,121.15Zm-.44-.1a.3.3,0,0,1-.3.21,1.44,1.44,0,0,1-.21-.09C206.94,120.91,207.18,120.94,207.37,121.05Zm-.58.13c.3.11.13.2,0,.39l-.42,0A3.58,3.58,0,0,0,206.79,121.18Zm-.81.42c.2-.06.33-.15.45.1-.14.11-.78.76-.75.28C205.7,121.67,205.69,121.7,206,121.61Zm-.18.69.48-.41-.69.74C205.51,122.43,205.59,122.3,205.79,122.3Zm-.31.42a.32.32,0,0,0-.41.16c-.16.21-.25.13-.49.09.15-.16.11-.09.14-.29h.16c-.06-.21,0-.37.23-.37,0,.15-.06.3-.08.45.22-.11.13-.31.27-.39S205.53,122.56,205.48,122.72Zm-.23-.79-.06.15-.35.28C204.75,122,205,122,205.25,121.94Zm-.7.28c.21.18.26.36,0,.52l-.39-.08Zm.07.63-.5.32C204.11,122.78,204.35,122.85,204.62,122.85Zm-.93.27c.12-.11.23-.13.33,0a.29.29,0,0,1-.34.19C203.68,123.23,203.68,123.17,203.69,123.12Zm-10.06,9.78-.1.06c.11,0,.17,0,.27,0-.13.08-.16.1-.3.06s0,.08,0,.12l-.09-.13C193.38,133,193.42,132.73,193.62,132.89Zm-1.74,1.44.17,0c-.06-.1-.06-.23-.12-.33a.43.43,0,0,1,.43,0c-.08-.07-.15-.17-.22-.24l.06-.16.18,0c-.1-.22.14-.46.19-.18.19-.09.05-.07.18,0a1.35,1.35,0,0,1,.86-.16c-.07.4-.57.47-.63.74h-.2a1.76,1.76,0,0,1,.29.09c-.09.06-.14.19-.22.26l.06,0c.12-.25,1.23-.38,1.39-.13s-.71.91-.5,1.34a.42.42,0,0,0-.44.18c.67.09,1,.16,1.22.9.18.58.78.64.89,1.36a.32.32,0,0,0-.43-.14c.28,0,.82.47.46.73.09.1,1-.28,1,.29s-.34.69-.74,1c.16,0,1,.19.44.41a6.31,6.31,0,0,1-1.07.26c-.23.05-.28-.17-.48-.18s-.45.22-.59.3c-.48.23-.58-.31-.85.36-.47-.34-.83.35-1.16.11.18-.21.61-.42.67-.68.13-.49.52-.32.9-.27a.91.91,0,0,1,.27-.44l-.6.2s-.33-.16-.44-.16l.1-.08c-.27-.15-.5.26-.68-.06,0,0,0-.08,0-.15.15-.07.56-.14.66-.28s0-.33.07-.61l-.41.08c.21-.14.33-.33.09-.52a.24.24,0,0,1,.33.15c.18-.15.36-.06.57,0l0-.15c.11.06.08,0,.17.11l.07,0a.67.67,0,0,1-.05-.8c-.34.26-.64-.61-.08-.74-.33,0-.61.26-.84.1.09.26-.15.07-.3,0v.2c-.32-.25,0-.28,0-.56s.06-.2,0-.43-.07-.23.1-.24a1,1,0,0,0-.07-.22c-.2.42-.44.18-.15-.06-.25.1-.24.32-.27.53s0,.56-.18.38,0-.15,0-.26,0-.23,0-.41.11-.55.35-.68l-.06-.09c-.16.15-.27.35-.49.22.35.21-.06.38-.22.22.25-.05.25-.16,0-.21.08-.11.27-.18.29-.26a.79.79,0,0,1,.21-.42l-.14,0,.1,0C191.94,134.47,191.86,134.48,191.89,134.34Zm.3,1.76c.15,0,.19.14.11.27A.4.4,0,0,1,192.19,136.09Zm.35,1.53a.39.39,0,0,1,.23-.33.25.25,0,0,1-.12.33Zm-.74-1.61c-.1-.21,0-.31.15-.28A2.13,2.13,0,0,1,191.81,136Zm-.3,0a.61.61,0,0,1,.2-.14c.08.16.06.28-.09.33S191.67,136.06,191.51,136Zm0-1.16.08,0c0,.07,0,.08,0,.13Zm.48-.23c-.18.37-.52,0-.68-.24l.07-.13.15.12c0-.06,0-.11,0-.17s.11.06.16.14S191.8,134.66,192,134.63Zm-.41-1.18c.12-.06.15.3-.11.32l.09.12c-.17,0-.24.13-.39.26l-.06-.12.12-.05C190.87,133.71,191.4,133.55,191.59,133.46Zm-.45.83a.7.7,0,0,0-.1.51c-.19-.15-.06-.36-.09-.44s-.08,0-.06-.1A.76.76,0,0,1,191.14,134.28Zm-2,5a.59.59,0,0,0,.4-.26c.1-.15.44-.14.6-.18a1.34,1.34,0,0,0-.73.08,4,4,0,0,1,.57-.61,1.84,1.84,0,0,1-.7-.22c.08-.08.29-.22.26-.35s-.15-.3.09-.43.33,0,.46.07.3-.09.47-.22l-.41-.15c.21-.35.63-.82,1.05-.57l-.09.16c.13,0,.48-.19.57-.08s.2.53.39.46c0,.48-.16.49-.53.75a.93.93,0,0,1,.24.79l-.19.61c-.07.22-.2.06-.39.11-.53.15-1.29,1-1.85.55.07,0,.11-.13.18-.17l-.41-.1a2.69,2.69,0,0,0,.31-.16C189.33,139.39,189.23,139.33,189.13,139.31Zm-40.77-21.83c-.24.05-.89.34-1.1.22a1.55,1.55,0,0,1-.42-.25c-.16-.22.08-.3-.21-.44a.41.41,0,0,1,.1-.77l.7.26c.2.07.46-.07.64,0a3.14,3.14,0,0,1,1.25,1A4,4,0,0,0,148.36,117.49Zm1.84,5.93a.45.45,0,0,1,.79.26C150.91,123.67,150,123.68,150.2,123.42Zm-.25-.18c-.14.38,0,.56-.19.94s-.82,0-1-.16C148.2,123.53,149.47,122.57,150,123.24Zm-5.25,6.56c-.08,0-.12-.23-.14-.3-.08-.22,0-.2.16-.34a1.32,1.32,0,0,1,.76-.27h.38A1.12,1.12,0,0,1,144.71,129.8Zm1.61-1.39c-.35-.11-1.32-.22-1.24-.79-.36.14-.32.43-.67.56s-.41.42-.64.59-.22-.63-.31-.68a7.31,7.31,0,0,0-.9.16c.11-.17.56-.49.61-.63s-.08-.32-.06-.45.06-.37.11-.54c.12-.44.1-.77.49-.94s.52.44.07.52a.78.78,0,0,0,.12.26c.22-.31.29-.22.5,0s.4.09.56.21,1.33.7.9,1.13a1,1,0,0,1,1,.25Zm.75,2c-.18-.19-.29-.23-.27-.5s.24-.45.46-.38C147.78,129.68,147.23,130.22,147.06,130.39Zm10.13,14.2c-.37-.17-.88-.26-.58-.81l.17.39,1.14.09C157.66,144.55,157.56,144.76,157.19,144.59Zm-.81-3.22a2.16,2.16,0,0,1,1.72.64C157.61,142.4,156.75,141.68,156.38,141.38Zm-7.69,24.4a2.13,2.13,0,0,1-.69-.37c.25-.38.8-.07,1.11,0a1.7,1.7,0,0,1,.15.22C149,165.58,148.82,165.81,148.69,165.77Zm1.05-1.48c-.47,0-.94.08-1.4,0,.06-.06.37-.3.37-.38,0-.26-.36-.16-.46-.21-.37-.17-.38-.57-.72-.62s-.68-.29-1-.31-.23-.16-.42-.1a.43.43,0,0,1-.45-.16.41.41,0,0,0,.32-.06c-.62-.63-1.33.78-2,.45.32-.2.42-.58.81-.67a3.76,3.76,0,0,1,1.37-.18,5.35,5.35,0,0,1,2.34,1l0-.09a1.24,1.24,0,0,0,1,.48c.08,0,.17.26.35.29a1.28,1.28,0,0,1,.58.35Zm3.84,1c-.37,0-.59.11-.92.12-.06,0-.11-.18-.29-.05s-.1.47-.22.51-.21-.34-.31-.39-.35,0-.49,0c-.47-.07-.63.13-1-.14-.13-.4,1,.05,1.26-.14-.28-.41-.23-.55-.67-.76.43-.2.55-.06,1-.05a1.44,1.44,0,0,0,.4-.11c.15-.08.39.08.54.13s.21-.08.33.14.17.3.47.36c.13,0,.41.2.33.33C153.8,165.55,153.85,165.31,153.58,165.31Zm1.18.23c-.2-.51.52-.28.8-.25l.1.1C155.52,165.61,154.91,165.89,154.77,165.54Zm8.65-21.66c-.17.26-.22.25-.5.14s-.29-.14-.22-.53c-.53,0-.63.39-1.14.49a.38.38,0,0,1,.3-.41,2.8,2.8,0,0,0-1.7-.23c-.18,0-.61.08-.74-.12a1.22,1.22,0,0,1,.07-.77,4.54,4.54,0,0,0,1.13-1.66c.19-.45.73-1.13,1.23-.93l-.24.53c-.28.25-.39.29-.39.69,0,.12.21.16.31.2s.08.33.1.47c.21-.06.92-.32,1.09-.12s.27.26.22.6c0,.12.33.2.38.4S163.61,143.59,163.42,143.88Zm13.94-20.73-1.46.39c-.32.08-.41.26-.64.55a5.74,5.74,0,0,1-.87,1.09,4.68,4.68,0,0,1-1.09.36l-1.56.51c-.39.13-.38.14-.53.57-.29.79-.57,1.57-.83,2.38l-1,3c0,.09-.74.07-.87,0l-1.55-.57c-.25-.09-.71-.14-.87-.39l-1-1.52a13.1,13.1,0,0,1-1.51-2.63L163,125.1a4.25,4.25,0,0,1,.15-1.57c0-.07,0-.49.08-.52l.88-.38c.08,0,.48-.13.49-.24l.12-1-1.27.38c-.58.17-.55.18-1-.3s-.13-.66,0-1.18-.3-.73-.64-1.09-.07-.63.08-1.09.1-.53-.11-1a11.54,11.54,0,0,0-1.28-2.5c-.14-.18-.57-1-.78-1l-1.28-.22a7.91,7.91,0,0,0-2.41-.2l-1.4.18c-.24,0-.82-.47-1-.59l-1.24-.73c-.3-.18-.57-.75-.78-1-.07-.1-.4-.42-.37-.55s0-.6.2-.65l2.11-.61a6.88,6.88,0,0,1,1.56-.3c.38,0,.44.06.59-.32l.4-1c-.62-.07-1.16,0-1.6-.48l3.62-1.87,1.47-.76a4.51,4.51,0,0,1,1.32-.18l2.59-.34a4.77,4.77,0,0,1,1.32-.17,23.52,23.52,0,0,1,3.58,1,5,5,0,0,0-1.85-1.47l2.14-1c.48-.22,1.1,0,1.61.13l1.26.22c.33.06.36-.52.62-.67a2.1,2.1,0,0,1,.71-.06l1.58-.14a19,19,0,0,1,4.34.35,13.75,13.75,0,0,1,3.65,1.29l-1.9.69c.39.32.84.22,1.31.24s-.21,1.2-.27,1.32c.39-.17,1.19-.72,1.6-.66l1.06.17c.29.05.43-.29.61-.52s1.17-.27,1.6-.2a10.29,10.29,0,0,1,1.77.69l-1.53.89a4.47,4.47,0,0,1-1.38.34l.38.33a5.58,5.58,0,0,1-1.14,1,3.44,3.44,0,0,0-1.14.88c-.24.39-.83,1-.64,1.44s.58.74,1.1,1.09l-1.47,1.44,1,.69c.27.18.23.7.29,1,0,.14.26,1,.16,1.09l-1,1.11a6.29,6.29,0,0,0-.9,2.18c-.1.28.19.94.26,1.23.14.58.11.56-.27,1l-2.38,1.46A8.14,8.14,0,0,1,177.36,123.14Zm7.1,5.17a1.18,1.18,0,0,1-.87.06,1.79,1.79,0,0,1-.51-.11c-.08-.05-.17-.32-.27-.31l-1.13.15c-.15-.39.43-.28.55-.63l-.15,0,0-.15c-.2,0-.28-.1-.14-.25-.26,0-1,.17-1.11-.18.43,0,.9-.19,1.38-.17v-.13a.49.49,0,0,1-.47,0l.49-.24c-.2,0-.59-.23-.78-.16-.4.16-.51.24-.9.07.14-.07.1-.13.27-.1,0-.06,0-.13,0-.19s.31.17.38,0-.35-.13-.12-.41.79.43.73-.17c-.2,0-.36,0-.42-.22.46,0,.43.07.78.37.07.06.34.11.35.24a.21.21,0,0,1-.26.22,6.39,6.39,0,0,0,.36.58,5,5,0,0,1,.24-.56c.13-.21.39,0,.19-.46.26-.06.41.25.58.43-.08-.23,0-.5.26-.49s.36.22.54.48c0-.17,0-.34-.08-.52.46.21.59,0,1.06,0-.28-.72,1.32-.07,1,.48.27-.1.45.07.68.2s-.06.39.17.54c-.19.19-.34.46-.6.31,0,.37-.2.64-.53.54s-.67.37-.88.49l-.52.07C184.57,128.12,184.6,128.25,184.46,128.32Zm41.35,60.12-.31-.31a4.59,4.59,0,0,1-.23,2.06l-1.08,3.63-.3,1s-.79.27-.9.33-.89-.2-.92-.37a10.35,10.35,0,0,0-.24-1.3,2,2,0,0,1-.08-1.28c.13-.39.59-.8.64-1.21a5.08,5.08,0,0,0-.3-1.36c0-.21.14-1,.32-1a4.09,4.09,0,0,0,1.21-.45c.39-.2.53-.52.83-.87s.54-.43.56-1c0-.76.54,0,.7.25l0,0A3,3,0,0,1,225.8,188.44Zm36.88-23.92c-.22,0-.27.28-.3.49s-.31.23-.46.3.06.16-.11.15a.59.59,0,0,1-.34-.1c-.31-.18-.25-.26-.24-.65.39-.25.66-.76,1.21-.45l0-.14C262.67,164.15,262.73,164.31,262.69,164.51Z" fill="#68e1fd" class="target-color"/><path d="M228.23,148.33c-.11-.1-.11-.41-.22-.48-.5-.31-.58.48-.58.76a1,1,0,0,1-.11-1.21c-.21-.1-.67-.19-.82-.37a2.9,2.9,0,0,1-.14-.87s-.7-.29-.39-.36.38.29.68.06c-.2-.19-.4-.23-.23-.48a.57.57,0,0,1,.48-.2,5.58,5.58,0,0,1,1.2.18.69.69,0,0,0-.42.64c.22-.31.3-.51.68-.55-.19-.59-.32-.2-.82-.36.08-.26.25-.55.12-.8s-.28-.63-.45-.42-.48,0-.73-.11-.5.24-.69.27c-.49.09-.46-.17-.6.44,0,.17-.59.3-.74.36-.34.14-.32.16-.4.56,0,.18-.32.38-.44.51a.65.65,0,0,1,.63.62,2.3,2.3,0,0,0,.28,1.21c.13.29.46.39.62.66a1.49,1.49,0,0,0,.78.8c-.36.11-.43.07-.53.47a5.26,5.26,0,0,1-.25.71,1.51,1.51,0,0,0,0,.79c0,.34.12.28.43.35s.28.27.5.33l.79.25a3.78,3.78,0,0,0,1.28-.15,4.14,4.14,0,0,1-.05-1.26c.13-.65-.17-.35-.42-.81a2.07,2.07,0,0,0,.24,0,1.22,1.22,0,0,0-.12-.39c-.07-.07-.29,0-.35-.06s-.06-.43,0-.64a3.3,3.3,0,0,0,1.17.07C228.66,148.6,228.41,148.49,228.23,148.33Z" fill="#68e1fd" class="target-color"/><path d="M138.11,122.38l.24-.4A.45.45,0,0,0,138.11,122.38Z" fill="#075b5d"/><path d="M141.23,117.62l.59-.8A1.83,1.83,0,0,0,141.23,117.62Z" fill="#075b5d"/><path d="M204.36,123.61c.09.06.06.09.17.14a1.11,1.11,0,0,1-.13.22c.25-.25.39-.35.34-.74C204.75,123.52,204.59,123.58,204.36,123.61Z" fill="#075b5d"/><path d="M191.81,136a2.13,2.13,0,0,0,.15-.28C191.84,135.7,191.71,135.8,191.81,136Z" fill="#075b5d"/><path d="M192.78,137.29a.39.39,0,0,0-.23.33h.11A.25.25,0,0,0,192.78,137.29Z" fill="#075b5d"/><path d="M189.53,139.66c-.07,0-.11.13-.18.17.55.47,1.31-.4,1.85-.55.18-.05.32.11.39-.11l.19-.61a.93.93,0,0,0-.24-.79c.38-.26.49-.27.53-.75-.19.06-.24-.29-.39-.46s-.44,0-.57.08l.09-.16c-.43-.25-.85.22-1.05.57l.41.15c-.17.14-.26.28-.47.22s-.33-.15-.46-.07-.17.16-.09.43-.18.27-.26.35a1.84,1.84,0,0,0,.7.22,4,4,0,0,0-.57.61,1.34,1.34,0,0,1,.73-.08c-.16,0-.5,0-.6.18a.59.59,0,0,1-.4.26c.1,0,.19.08.3.09a2.69,2.69,0,0,1-.31.16Z" fill="#075b5d"/><path d="M192,134.52l-.1,0,.14,0a.79.79,0,0,0-.21.42c0,.08-.21.15-.29.26.26.05.27.16,0,.21.16.15.57,0,.22-.22.22.13.32-.07.49-.22l.06.09c-.24.13-.29.41-.35.68s.06.18,0,.41-.14.17,0,.26.16-.24.18-.38,0-.44.27-.53c-.29.24,0,.48.15.06a1,1,0,0,1,.07.22c-.17,0-.14.07-.1.24s.09.15,0,.43-.36.31,0,.56v-.2c.15.06.39.25.3,0,.23.16.52-.15.84-.1-.56.13-.26,1,.08.74a.67.67,0,0,0,.05.8l-.07,0c-.09-.13-.06-.05-.17-.11l0,.15c-.21,0-.38-.12-.57,0a.24.24,0,0,0-.33-.15c.24.19.12.37-.09.52l.41-.08c0,.27.12.35-.07.61s-.51.21-.66.28c0,.07,0,.18,0,.15.18.31.42-.09.68.06l-.1.08c.11,0,.39.17.44.16l.6-.2a.91.91,0,0,0-.27.44c-.38-.05-.78-.22-.9.27-.06.26-.49.47-.67.68.33.23.7-.45,1.16-.11.27-.66.37-.12.85-.36.14-.07.44-.3.59-.3s.25.24.48.18a6.31,6.31,0,0,0,1.07-.26c.53-.22-.28-.39-.44-.41.4-.3.68-.45.74-1s-.88-.18-1-.29c.37-.26-.18-.73-.46-.73a.32.32,0,0,1,.43.14c-.12-.71-.71-.77-.89-1.36-.23-.75-.54-.81-1.22-.9a.42.42,0,0,1,.44-.18c-.2-.43.76-.95.5-1.34s-1.27-.12-1.39.13l-.06,0c.08-.07.13-.2.22-.26a1.76,1.76,0,0,0-.29-.09h.2c.05-.27.56-.33.63-.74a1.35,1.35,0,0,0-.86.16c-.13-.07,0-.09-.18,0-.05-.28-.28,0-.19.18l-.18,0-.06.16c.08.07.14.18.22.24a.43.43,0,0,0-.43,0c.06.1.06.23.12.33l-.17,0C191.86,134.48,191.94,134.47,192,134.52Z" fill="#075b5d"/><path d="M151,108.4l-.12-.4c.27.07.62.27.88.13a2.46,2.46,0,0,0,.83-.65l-.82,0,1.31-.27a4.8,4.8,0,0,0,1.16-.71c.45-.28,1.92-.66,2-1.2l-3.35.68,2-.61-1.18-.2,2.62-.2a6.5,6.5,0,0,0,2-1,13.88,13.88,0,0,0-2.27-.6,2.78,2.78,0,0,0-1,0,67.71,67.71,0,0,0-6.19,5.37C149.59,108.62,150.31,108.55,151,108.4Z" fill="#075b5d"/><path d="M191.61,134.82l-.08,0,.07.08S191.65,134.89,191.61,134.82Z" fill="#075b5d"/><path d="M191.12,134l.06.12c.15-.14.21-.22.39-.26l-.09-.12c.26,0,.22-.38.11-.32s-.72.26-.35.53Z" fill="#075b5d"/><path d="M191,134.35c0,.09-.1.3.09.44a.7.7,0,0,1,.1-.51.76.76,0,0,0-.25,0C190.87,134.33,190.91,134.31,191,134.35Z" fill="#075b5d"/><path d="M191.56,134.23c0,.06,0,.11,0,.17l-.15-.12-.07.13c.16.19.5.61.68.24-.21,0-.33-.07-.29-.27S191.66,134.23,191.56,134.23Z" fill="#075b5d"/><path d="M191.62,136.22c.16-.05.18-.17.09-.33a.61.61,0,0,0-.2.14C191.67,136.06,191.56,136.14,191.62,136.22Z" fill="#075b5d"/><path d="M205,122.75c0-.15.05-.3.08-.45-.2,0-.29.17-.23.37h-.16c0,.2,0,.14-.14.29.25,0,.33.12.49-.09a.32.32,0,0,1,.41-.16c0-.17,0-.49-.19-.37S205.24,122.64,205,122.75Z" fill="#075b5d"/><path d="M206.43,121.71c-.12-.25-.25-.17-.45-.1s-.28.06-.3.38C205.64,122.47,206.29,121.83,206.43,121.71Z" fill="#075b5d"/><path d="M206.28,121.9l-.48.41c-.21,0-.28.13-.21.34Z" fill="#075b5d"/><path d="M206.79,121.18a3.58,3.58,0,0,1-.4.37l.42,0C206.92,121.39,207.09,121.29,206.79,121.18Z" fill="#075b5d"/><path d="M205.19,122.08l.06-.15c-.21.09-.5.11-.41.43Z" fill="#075b5d"/><path d="M193.49,133c.15,0,.17,0,.3-.06-.1,0-.16-.05-.27,0l.1-.06c-.21-.16-.25.06-.26.14l.09.13S193.48,133.09,193.49,133Z" fill="#075b5d"/><path d="M204,123.09c-.1-.11-.21-.09-.33,0s0,.11,0,.17A.29.29,0,0,0,204,123.09Z" fill="#075b5d"/><path d="M204.12,123.17l.5-.32C204.35,122.85,204.11,122.78,204.12,123.17Z" fill="#075b5d"/><path d="M204.55,122.22l-.39.44.39.08C204.81,122.57,204.76,122.4,204.55,122.22Z" fill="#075b5d"/><path d="M154.77,165.54c.14.35.75.07.89-.15l-.1-.1C155.29,165.26,154.56,165,154.77,165.54Z" fill="#075b5d"/><path d="M207.37,121.05c-.19-.12-.43-.14-.5.11a1.44,1.44,0,0,0,.21.09A.3.3,0,0,0,207.37,121.05Z" fill="#075b5d"/><path d="M182.2,120c-.07-.28-.36-.94-.26-1.23a6.29,6.29,0,0,1,.9-2.18l1-1.11c.09-.1-.14-1-.16-1.09-.05-.32,0-.83-.29-1l-1-.69,1.47-1.44c-.52-.35-.85-.49-1.1-1.09s.4-1.05.64-1.44a3.44,3.44,0,0,1,1.14-.88,5.58,5.58,0,0,0,1.14-1l-.38-.33a4.47,4.47,0,0,0,1.38-.34l1.53-.89a10.29,10.29,0,0,0-1.77-.69c-.43-.08-1.3-.17-1.6.2s-.32.58-.61.52l-1.06-.17c-.4-.07-1.21.49-1.6.66.06-.12.81-1.3.27-1.32s-.92.08-1.31-.24l1.9-.69a13.75,13.75,0,0,0-3.65-1.29,19,19,0,0,0-4.34-.35l-1.58.14a2.1,2.1,0,0,0-.71.06c-.25.15-.29.73-.62.67l-1.26-.22c-.51-.09-1.13-.35-1.61-.13l-2.14,1a5,5,0,0,1,1.85,1.47,23.52,23.52,0,0,0-3.58-1,4.77,4.77,0,0,0-1.32.17l-2.59.34a4.51,4.51,0,0,0-1.32.18l-1.47.76-3.62,1.87c.44.49,1,.41,1.6.48l-.4,1c-.15.38-.2.3-.59.32a6.88,6.88,0,0,0-1.56.3l-2.11.61c-.17,0-.17.47-.2.65s.3.45.37.55c.21.29.48.86.78,1l1.24.73c.21.12.79.63,1,.59l1.4-.18a7.91,7.91,0,0,1,2.41.2l1.28.22c.21,0,.65.82.78,1a11.54,11.54,0,0,1,1.28,2.5c.21.47.28.52.11,1s-.41.74-.08,1.09.77.56.64,1.09-.34.8,0,1.18.4.47,1,.3l1.27-.38-.12,1c0,.11-.41.21-.49.24l-.88.38c-.07,0-.07.45-.08.52a4.25,4.25,0,0,0-.15,1.57l.65,1.81a13.1,13.1,0,0,0,1.51,2.63l1,1.52c.16.25.62.3.87.39l1.55.57c.13,0,.84.06.87,0l1-3c.26-.81.54-1.59.83-2.38.16-.43.14-.44.53-.57l1.56-.51a4.68,4.68,0,0,0,1.09-.36,5.74,5.74,0,0,0,.87-1.09c.23-.28.32-.46.64-.55l1.46-.39a8.14,8.14,0,0,0,2.19-.65l2.38-1.46C182.31,120.58,182.33,120.6,182.2,120Z" fill="#075b5d"/><path d="M162.94,142.22c0-.34,0-.35-.22-.6s-.88.06-1.09.12c0-.13,0-.41-.1-.47s-.3-.08-.31-.2c0-.4.11-.43.39-.69l.24-.53c-.5-.2-1,.48-1.23.93a4.54,4.54,0,0,1-1.13,1.66,1.22,1.22,0,0,0-.07.77c.12.2.56.14.74.12a2.8,2.8,0,0,1,1.7.23.38.38,0,0,0-.3.41c.5-.1.61-.45,1.14-.49-.07.39-.13.39.22.53s.33.12.5-.14,0-.95-.1-1.26S162.92,142.33,162.94,142.22Z" fill="#075b5d"/><path d="M153.66,164.9c-.3-.06-.32-.06-.47-.36s-.13-.07-.33-.14-.39-.2-.54-.13a1.44,1.44,0,0,1-.4.11c-.45,0-.57-.15-1,.05.45.21.39.35.67.76-.27.2-1.39-.26-1.26.14.38.27.54.07,1,.14.14,0,.36-.06.49,0s.06.48.31.39.11-.44.22-.51.23.05.29.05c.32,0,.55-.12.92-.12s.22.24.41-.08C154.06,165.1,153.78,164.93,153.66,164.9Z" fill="#075b5d"/><path d="M225.69,186.51c-.16-.22-.66-1-.7-.25,0,.6-.19.6-.56,1s-.44.67-.83.87a4.09,4.09,0,0,1-1.21.45c-.17,0-.37.82-.32,1a5.08,5.08,0,0,1,.3,1.36c0,.41-.51.82-.64,1.21a2,2,0,0,0,.08,1.28,10.35,10.35,0,0,1,.24,1.3c0,.16.76.44.92.37s.88-.28.9-.33l.3-1,1.08-3.63a4.59,4.59,0,0,0,.23-2.06l.31.31a3,3,0,0,0-.09-1.9Z" fill="#075b5d"/><path d="M262.44,164.26c-.55-.31-.82.2-1.21.45,0,.39-.07.47.24.65a.59.59,0,0,0,.34.1c.17,0,0-.11.11-.15s.43-.07.46-.3.08-.51.3-.49c0-.21,0-.37-.21-.4Z" fill="#075b5d"/><path d="M248.52,114.67l0,0c-.46.28-.42.28-.43.88,0,.31.11.63-.19.66l-1.37.14-2.43.25c0,.27.1,1.35.34,1.39s.7,0,.84.14a2.8,2.8,0,0,1,.29.78c-.22,0-.5.15-.69,0a3.89,3.89,0,0,0-.63-.39,2.17,2.17,0,0,0-1.75-.22c-.24.08-1.28.52-.68.81a16.57,16.57,0,0,0,1.58.65c-.38,0-1.86,0-2.06-.39-.29-.53-.33-.52,0-1.06.12-.23-.28-.78-.49-.73.07.17.31.82,0,.93s-.71.21-.94.57.33.76.5,1-.15.72-.29,1,.12.71.19,1c0,.09,1-.12,1.08-.14a.87.87,0,0,1,.9.21c.3.21.25.57.31.94l-.74-.85c-.14-.17-.67.12-.85.17-1,.29.21,1-.24,1.46a5.43,5.43,0,0,1-1.58,1.36,1.87,1.87,0,0,1-1.8-.56c.21,0,.76.21.93.1l1.21-.74c.23-.14.36-.75.47-1,.2-.47-.22-.51-.59-.76s.31-1.93.13-2.32c-.1-.21-.49-.74-.41-1l.48-1.32c-.42,0-2.2-.47-2.34-.06s-.21,1.05-.47,1.26l-1.13.9c.17.11.76.34.67.55s-.51.79-.26,1l1.14.85c.16.11,0,.77-.06,1a5.87,5.87,0,0,0-1.08-.81l-1.55-.62a3.67,3.67,0,0,0-2.59-.1c.33.43.54.46.21.9s-.33.45-.86.29l.22-.38a1.21,1.21,0,0,0-1.06.09,1.64,1.64,0,0,1-1.07.07c-.29,0-.46.59-.79.51-.51-.13-.5-.12-.67-.67l-1.73.79-1.14.52c-.14.06-.5.14-.59.27-.21.28.07.58-.32.63s-.65.23-.87-.05-.54-.47-.36-.78.73-.13.93-.16c-.19-.26-.4-.74-.72-.78l-1.26-.16c.08.1.45.43.42.55-.07.32-.15.63-.23,1,0-.07.36.48.38.53s-.09.56-.14.75l-1-.31c-.21-.06-.53.27-.7.39l-1,.66a6.82,6.82,0,0,0,.34,1l-1.31-.45c-.53-.19-.56-.28-1,.12.19.24.29.49.58.49s.42.44.14.56c-.47.2-1.08-.35-1.56-.56s-.34-1.12-.34-1.59-.88-1-1.18-1.36a13.15,13.15,0,0,0,3.11,1.06,2,2,0,0,0,1.42-.09c.27-.09.32-.25.49-.51.27-.42.29-.41.13-.89a1.67,1.67,0,0,0-1.14-.9,8,8,0,0,1-1.54-.73,2.75,2.75,0,0,0-1.47-.5c-.3,0-1.4.24-1.31-.4.22.05.51.25.59-.06-.14-.07-.56-.38-.66-.24-.22.29-.53.15-.87.12-.14,0-.53.11-.56,0-.13-.31-.43-.21-.57-.48a3.56,3.56,0,0,0,.95.09c.12,0,.73-.34.4-.47L213,120c-.37-.15-.11.69-.56.35l.32-.53c-.12,0-.56-.11-.63,0l-.51.68q-.05-.28-.11-.57c-.24.3-.57.94-.95,1a2.43,2.43,0,0,1,.74-1.26,1.83,1.83,0,0,0-1,.18c-.3.18-.48.72-.81.82a20.17,20.17,0,0,0-2.53.93,6,6,0,0,0-1.82,1.67,14.45,14.45,0,0,0-1.64,1.95A9.72,9.72,0,0,1,202,127.4c-.31.29-.58.58-.86.89a3,3,0,0,1-1.06.67,4.52,4.52,0,0,0-.93.55c-.52.44-.57.44-.6,1.16s.28,1.64.31,2.48c0,.68,1.14.82,1.58.55.28-.17.5-.48.78-.67s.49-.33.62-.83c.06.18.09.5.27.54s0,.37.09.56a3.09,3.09,0,0,0,.28.58c.06.14,0,.37.1.49.21.29.74.73.61,1.1a1.58,1.58,0,0,0,.06.65c.05.35.08.27.4.25s.34.06.4-.17,0-.4.22-.43c.45-.1.84-.1,1.07-.62a6.4,6.4,0,0,0,.21-1.41c.08-.52.37-.65.75-1,.22-.19.73-.45.59-.75s-.8-.41-1-.78c-.49-.85.28-1.77.74-2.35.15-.2,2-1.14,1.76-1.53s-.09-.69.21-1c.47-.53.53-.5,1.2-.48a1,1,0,0,1,1,.74c.11.39-.19.2-.38.29s-.44.55-.6.74c-.3.38-.73.6-1,1-.13.15-.52.45-.56.64a3,3,0,0,0,.22.89,1.49,1.49,0,0,1,0,.74c-.07.45-.11.42.28.57a.91.91,0,0,1,.57.5c.06.1.47,0,.57-.07,1-.19,2-.43,3-.61-.05.07-.05.19-.1.26.28.12.92.23,1,.55-.17,0-.51-.16-.66-.07s-.48.06-.66.18.12.36-.35.3l-1-.13a2.94,2.94,0,0,0-1.41.4c-.07,0,.06.54.12.61a3.06,3.06,0,0,0,.27.29s.18-.12.24-.07-.08.6-.06.74-.14.58-.39.56c-.45,0-.59-1-1.2-.58-.24.18-.12.45-.27.63a.86.86,0,0,0-.2.63c0,.31.42,1.56-.25,1.23a1.07,1.07,0,0,0,.27-.38c-.1.16-.28.23-.42.35s-.16,0-.21.05-.09.29-.17.38c-.21.25-.76.19-.76-.21l.26.11a1.27,1.27,0,0,0-1.55.29c-.18.24-1.11.26-1.37.43l.36,0a.71.71,0,0,1,0,.24c-.21-.12-.43-.17-.5-.42a.78.78,0,0,0-.53-.35c-.37,0-.74.65-1.16.4l.18-.38c-.44.21-.88-.19-1-.66-.1-.64.47-.8.77-1.29-.52-.13-.39-.87-.15-1.22-.34.18-.64.56-1,.57s-.55.52-.53,1c0,.27,0,.38.16.54s.07.35.16.64.32.26.05.46.17.4.28.44c-.22,0-.47-.05-.42.25a1.88,1.88,0,0,0-.5-.06l-.32,0c-.1,0,0,.2-.1.22-.39.12-.71-.11-1,.29-.1.12-.36.08-.39.24a1.56,1.56,0,0,1-.31.74c-.06.07,0,.21-.06.26s-.31.06-.31.08.31.17.42.2a1.28,1.28,0,0,0-.77.1c-.16.08-.73.21-.81.34-.18.29.2.53-.16.71a1.76,1.76,0,0,0-.76.45c.08,0,.15.07.24.07a1.32,1.32,0,0,1-.83.11c-.18,0-.15,0-.22-.23s-.28-.1-.4-.11a2.72,2.72,0,0,1,.24.74c0,.16-.56.26-.67.29-.31.08,0-.52-.51-.19a1.45,1.45,0,0,1-.78.14.39.39,0,0,0,.26.38c-.07,0-.13.05-.2.06a.34.34,0,0,0,.39.19c.23,0,.3.08.5.23s.32,0,.42.1,0,.19.24.13c-.06.14,0,.6.24.68.44.14.36.29.36.76s.08,1.71-.54,1.84a2,2,0,0,1-.87-.09c-.32-.12-.62.06-1-.05a1.55,1.55,0,0,0-1.09,0c-.33.08-.5-.38-.88,0a.84.84,0,0,1,.07.13c-.14,0-.55,0-.63.22s.06.54.27.37a1.93,1.93,0,0,0,0,1.11c.16.38-.13,1-.22,1.38s-.27.49,0,.85c.05.08.18-.09.2,0l0,.39a2.55,2.55,0,0,1-.09.69c.28-.21.51.06.82-.12s.54.3.85.15c-.31.22.14.79.39.7s.49-.53.84-.51a8.64,8.64,0,0,0,1.2,0c.13,0,.27-.37.34-.48s.4-.14.53-.17c-.11-.24.27-.55.41-.74s-.25-.49-.14-.68c.38-.65.57-1.15,1.19-1.47.21-.11.73-.25.88-.45s-.08-.8,0-.86.45-.55.65-.49l1.15.38a5.57,5.57,0,0,0,1.43-.95c.16-.2.44-.11.66,0,.43.22.43.26.55.77s.68.74,1.08,1.14c.23.23.41.54.72.5s.61.31.58.51a.23.23,0,0,1,.36.24c0,.19.27.2.39.21s.45.93.31,1,0,.24-.23.37a2.72,2.72,0,0,1-1.83.05c-.58.64.9.59,1,1,.07.24.68.14.53-.16a.63.63,0,0,1,.21-.85c0,.49.59,0,.55-.34s.73-.31.28-.66c-.16-.12-.3-.11-.25-.33a.69.69,0,0,1,.27-.48c.18-.17.63.44.78.52.39-.52-1.15-1.17-1.46-1.42.34-.27,0-.26-.26-.27s-.47-.2-.73-.43-.19-.56-.36-.79a3.53,3.53,0,0,0-.74-.55c-.26-.2,0-.55-.05-.7-.23-.42,0-.45.36-.56s.31-.18.37.16.26.59.42.11a1.26,1.26,0,0,1,.53.86c.05.16.39.61.54.63a3.79,3.79,0,0,1,1.59,1c.36.28.51.28.47.76s-.19.75.19,1.06c.21.17.33.59.5.83.29.43.29.49.77.49-.52.42-.38.48-.18,1.15.19-.15.3-.22.4,0s.3.22.56.26c-.09-.27-.2-.38,0-.55s.18-.35-.11-.41c.24-.3.39-.08.62.09.08-.55-.33-.64-.71-.91.29-.3.28-.26.07-.62s-.39-.48-.16-.74c.21.15.39.34.63.13.07-.05-.1-.28,0-.33s.31-.17.45-.13a5.54,5.54,0,0,1,.77.12c.2.08.4.08.58.15-.22.14-.41.2-.38.53l.9-.84c.2-.19.76.2.86-.11,0-.11-.58-.39-.7-.62s-.27-.8.11-1,.36-.61.46-1.09c0-.15.37-.14.46-.26a2.33,2.33,0,0,0,.1-.64c0-.27.55-.66.72-.86s.83.13,1.09,0c-.13.27-.44.14-.68.13.12.08.31.3.45.29a1.67,1.67,0,0,1,.59,0c.6.2-.28.52-.51.64.46.22.72.15.52.7.33.27.92-.26,1.22-.43s.59.2.85-.28c-.37,0-.73.14-1-.13s-.39-.78.06-.72l-.08.17a1.66,1.66,0,0,1,.95-.5v.13a1.51,1.51,0,0,1,1.1-.44c.11,0,.49-.14.41.13s-.54,0-.43.32h-.48c.1.21.33.34.51.49-.37,0-.7.15-.55.66l-.48-.1-.14.19c.17.12.33.26.5.38a4.17,4.17,0,0,0,.43.26c.42.05.68.43,1,.73s.64.34.91.65.37.76.06,1a1.6,1.6,0,0,1-1.11.35c-.39,0-.63.18-1,0-.23-.1-.93-.2-1-.33-.26-.37-.16,0-.42-.15s-.32-.22-.23-.37a2.53,2.53,0,0,1-1.08,0,1.69,1.69,0,0,0-.87.38c-.37.25-.4.38-.86.31-.25,0-.81-.15-.9.11l.46.23a2.39,2.39,0,0,1-1.33.3c-.29,0-1,.15-.91.69l.48-.06c-.48.54.29,1.84.74,2.1.24.14.74.55,1,.5s.31,0,.41-.36.29-.12.53-.08.53.49.92.47a2.08,2.08,0,0,0,.63,0c.16-.08.31-.44.48-.48s.3.24.43.13.28-.3.4-.16-.36.79-.14,1.11c.34.49-.52,2-.69,2.49a1.32,1.32,0,0,1-1.85.58c-.51-.25-.57-.17-1.09.09a1,1,0,0,1-1,.08l-1.36-.4c-.1,0-.32.23-.38.11s-.13-.34-.35-.39l-.85-.17c-.17,0-.05-.31-.19-.35a2.36,2.36,0,0,0-1.52.1c-.13,0-.27.43-.34.55s.18.4.1.56c-.35.69-.64.6-1.19.21-.39-.27-.78-.21-1.2-.38s-.34-.74-.83-.87l-1.88-.5c-.37-.1-.72-.57-1-.83.18-.2.73-.59.58-.85-.3-.56-.25-.59,0-1.18-.36-.15-.69-.43-1-.22a1.92,1.92,0,0,1-1.27.15,2.61,2.61,0,0,0-.51,0c-.18,0-.36.25-.55.26a1.8,1.8,0,0,1-.56-.18,2.19,2.19,0,0,0-.7.07,8.4,8.4,0,0,0-2.27.7,12.37,12.37,0,0,0-1.08.64c-.08,0-.41-.2-.5-.25s-.53.08-.69.12c-.37.08-.69-.53-.81-.5-.45.13-.53.76-.71,1.21-.26.65-1.58.77-1.68,1.43l-.26,1.69c-.07.45-.23.46-.6.69a3.77,3.77,0,0,0-1.62,1.42l-1.77,3.19a2.78,2.78,0,0,0-.39.7,5,5,0,0,0,.29,1.3c.12.51.23,1,.34,1.52.07.31-.25.83-.35,1.11s-.38.76-.29.92l.59,1,1.83,3.19a3.57,3.57,0,0,0,1.28,1.3l1.44,1c.19.14.46.46.7.38l1.5-.53a1.6,1.6,0,0,1,1.06.09c.39.1.55.2.91,0l1.37-.7a6.55,6.55,0,0,1,2.31-.26l1,1.17c.22.27.85.08,1.16.06.54,0,.52,0,.86.48s.27.44.21,1-.14,1.21-.21,1.82c0,.3-.16.61,0,.84l1,1.33c.17.23.56.58.63.87l.68,2.91c.21.9.51,1.59,0,2.45a8.15,8.15,0,0,0-.68,2.93c0,.22-.17.61-.07.82l.7,1.43a7.43,7.43,0,0,1,.89,2.19l.28,1.83c0,.22,0,1,.19,1.11s.62.48.75.79l.64,1.6c.1.24.41.73.38,1-.08.72-.09.71.41,1.16.15.14.56.67.76.63l1.27-.27,2.75-.58c.25-.05.63-.54.83-.71a13,13,0,0,0,1.06-.91,22,22,0,0,0,1.58-2.24,4,4,0,0,0,.13-1.29c.05-.53,0-.73.39-.94.26-.13,1-.32,1.2-.57a4.75,4.75,0,0,0,.16-1.46c0-.3-.39-.93-.5-1.21s.16-.56.43-.87l.92-1.08c.24-.28.87-.42,1.19-.57a2.14,2.14,0,0,0,1.1-1.79c0-.95.14-2.11-.41-2.87a1.24,1.24,0,0,1-.36-1.15A1.56,1.56,0,0,0,219,182c-.21-.32,1.11-2.13,1.32-2.48a23.44,23.44,0,0,1,3.61-4.1,7.94,7.94,0,0,0,1.07-1.77,10,10,0,0,0,1.17-2.31c0-.21.41-1.19.31-1.36s-.7,0-.89,0l-3.07.82c-.3.08-.71-.7-1.08-.81.56-.54-.16-1-.52-1.4l-.64-.75c-.14-.16-.69-.13-.76-.33a10.17,10.17,0,0,0-.68-1.85,4.4,4.4,0,0,0-.7-.68c-.17-.17-.15-.61-.19-.84-.06-.4-.12-.79-.18-1.19,0-.23-.4-.49-.54-.64-.34-.37-.26-.89-.49-1.36l-1.15-2.35c-.19-.38-.78-1.08-.44-1.5a5.69,5.69,0,0,0,1,1.55l.41-1.24c0,.35-.1.69-.14,1,.37-.1.49.39.64.66l.94,1.68c.15.26.42.38.54.62a4.84,4.84,0,0,1,.56,1.25c.05.3,0,1.15.33,1.25.48.18.53.27.81.74a6.76,6.76,0,0,1,1.09,2.32l.33,1.77c.11.58.16.46.72.46.36,0,.43-.38.76-.46s.89-.27,1.35-.35c.22,0,.38,0,.5-.22s.12-.24.28-.29l1.57-.56c.29-.11.25-.53.57-.67l.69-.3c.16-.07.39.13.54.06s.18-.62.36-.7l.95-.45c.31-.15.44-.11.44-.48a2.05,2.05,0,0,1,.27-1c0,.1.09.19.1.29.2-.23.84-.77.86-1.08s.15-.52-.16-.57-.31-.46-.4-.62-.35-.14-.55-.23a4.44,4.44,0,0,1-.64-.44c-.35-.24-.25-.93-.28-1.36a7.37,7.37,0,0,1-1.22,1.39,4.31,4.31,0,0,1-1.78.22,3.21,3.21,0,0,0-.24-1.6c-.06.34-.11.67-.16,1-.39-.75-.76-1.51-1.19-2.23-.12-.2-.7-.9-.53-1.09.48-.56.47-.59,1.16-.49.4.06.47.55.65.93a1.3,1.3,0,0,0,.86.89c.3.14.51.54.83.59a2.24,2.24,0,0,0,1.33,0c.6-.22.52,0,.83.55.17.34.55.3.88.38a7,7,0,0,0,2.3.38c.34,0,2.42-.5,2.55-.21s.29.91.53,1.05a5.66,5.66,0,0,0,1.2.69,1.84,1.84,0,0,0,.49,0c0,.38-.62.34-.9.4.27.29.71,1,1.09,1s.37.05.57-.23l.62-.85q0,1.46.09,2.93a5.92,5.92,0,0,0,0,1,7.5,7.5,0,0,0,.57,1.29c.67,1.53,1.33,3,2.11,4.51l.84-.55c.26-.17.2-.51.24-.83.31.33.47.39.45.85a9.39,9.39,0,0,0,0,1.37c.1,1.06,1.43.37,1.09-.41a4.17,4.17,0,0,0-.62-1.17,2.34,2.34,0,0,1-.55-1.19c-.09-.34.18-.87.27-1.21a5.14,5.14,0,0,0,0-1.28c0-.44-.14-.71.22-.89a3.74,3.74,0,0,0,1-.49l2.06-2.12.73-.75c.09-.09-.06-.43,0-.52s.36-.05.42-.06l1.48-.21c.28,0,.61-.4.85-.57a3.88,3.88,0,0,0,.87,1.59,3.77,3.77,0,0,1,1,1.67c.08.18-.09.71-.11.91-.07.47-.1.43.33.53s.38.1.65-.23l.64-.78a12.35,12.35,0,0,1,.73,3,11.07,11.07,0,0,1,.11,1.69c0,.29-.28,1.33-.1,1.53l1.19,1.27a5.29,5.29,0,0,1,.51,1.54c.18.56.21.75.63,1.08a3.06,3.06,0,0,0,1.36.81,9.18,9.18,0,0,1-.45-1.13c-.09-.4.06-.93-.08-1.31a2.68,2.68,0,0,0-.71-.81c-.25-.19-.87-.48-1-.8s-.26-1.25-.42-1.24c-.32,0-.32.07-.35-.27a1.3,1.3,0,0,1,0-.55,4.68,4.68,0,0,0,.39-1.23c.06-.72-.07-.81.59-.83l-.06.49a2.1,2.1,0,0,1,1.56.87l.83.9c.21.22-.19.66.09,1a30.76,30.76,0,0,0,2.48-2.1c.29-.27.07-1.17.06-1.56,0-.63-.24-.79-.62-1.28s-.63-.77-.89-1.19l-.55-.89c-.07-.11.18-.64.22-.77.13-.41.87-.78,1.18-1a1.11,1.11,0,0,1,1.28.15c-.11,0-.2.11-.31.13s.14.54.23.58c.32.17.32-.21.28-.39s-.11-.29.13-.37L263,163c.19-2,.29-4.11.29-6.21A67,67,0,0,0,248.52,114.67Zm-21.1,34.15c-.1.21-.2.42,0,.64s.29,0,.35.06a1.22,1.22,0,0,1,.12.39,2.07,2.07,0,0,1-.24,0c.26.46.55.16.42.81a4.14,4.14,0,0,0,.05,1.26,3.78,3.78,0,0,1-1.28.15l-.79-.25c-.22-.07-.23-.27-.5-.33s-.4,0-.43-.35a1.51,1.51,0,0,1,0-.79,5.26,5.26,0,0,0,.25-.71c.1-.4.17-.36.53-.47a1.49,1.49,0,0,1-.78-.8c-.16-.27-.49-.37-.62-.66a2.3,2.3,0,0,1-.28-1.21.65.65,0,0,0-.63-.62c.12-.13.41-.33.44-.51.08-.4.06-.42.4-.56.14-.06.69-.19.74-.36.14-.61.11-.35.6-.44.19,0,.51-.34.69-.27s.53.34.73.11.4.31.45.42,0,.54-.12.8c.5.16.63-.23.82.36-.38,0-.46.24-.68.55a.69.69,0,0,1,.42-.64,5.58,5.58,0,0,0-1.2-.18.57.57,0,0,0-.48.2c-.17.25,0,.29.23.48-.31.23-.38-.13-.68-.06s.39.35.39.36a2.9,2.9,0,0,0,.14.87c.15.18.61.28.82.37a1,1,0,0,0,.11,1.21c0-.29.09-1.07.58-.76.11.07.11.38.22.48s.43.27.36.56A3.3,3.3,0,0,1,227.43,148.82Z" fill="#075b5d"/><path d="M186.14,127.53c.33.09.54-.17.53-.54.27.15.41-.12.6-.31-.22-.15-.05-.47-.17-.54s-.41-.3-.68-.2c.33-.55-1.27-1.2-1-.48-.48,0-.6.19-1.06,0,0,.17,0,.35.08.52-.18-.26-.24-.48-.54-.48s-.34.27-.26.49c-.17-.18-.32-.48-.58-.43.2.48-.06.24-.19.46a5,5,0,0,0-.24.56,6.39,6.39,0,0,1-.36-.58.21.21,0,0,0,.26-.22c0-.13-.28-.18-.35-.24-.35-.3-.33-.37-.78-.37.06.23.22.18.42.22.06.59-.54-.07-.73.17s.19.27.12.41-.27,0-.38,0,0,.13,0,.19c-.17,0-.14,0-.27.1.39.17.5.09.9-.07.19-.07.58.11.78.16l-.49.24a.49.49,0,0,0,.47,0v.13c-.48,0-1,.18-1.38.17.07.35.85.18,1.11.18-.14.15-.06.28.14.25l0,.15.15,0c-.12.34-.69.24-.55.63l1.13-.15c.1,0,.19.26.27.31a1.79,1.79,0,0,0,.51.11,1.18,1.18,0,0,0,.87-.06c.15-.07.11-.2.29-.22l.52-.07C185.47,127.9,185.92,127.47,186.14,127.53Z" fill="#075b5d"/><path d="M149.9,163.73c-.18,0-.27-.3-.35-.29a1.24,1.24,0,0,1-1-.48l0,.09a5.35,5.35,0,0,0-2.34-1,3.76,3.76,0,0,0-1.37.18c-.39.1-.5.48-.81.67.62.33,1.34-1.08,2-.45a.41.41,0,0,1-.32.06.43.43,0,0,0,.45.16c.2-.06.21.09.42.1s.66.26,1,.31.35.45.72.62c.1,0,.47-.05.46.21,0,.08-.31.32-.37.38.46.08.93,0,1.4,0l.74-.22A1.28,1.28,0,0,0,149.9,163.73Z" fill="#075b5d"/><path d="M148,165.41a2.13,2.13,0,0,0,.69.37c.14,0,.31-.19.57-.11a1.7,1.7,0,0,0-.15-.22C148.8,165.34,148.25,165,148,165.41Z" fill="#075b5d"/><path d="M144.72,129.16c-.17.14-.23.12-.16.34,0,.07.06.3.14.3a1.12,1.12,0,0,0,1.16-.9h-.38A1.32,1.32,0,0,0,144.72,129.16Z" fill="#075b5d"/><path d="M148.08,116.52c-.18-.1-.45,0-.64,0l-.7-.26a.41.41,0,0,0-.1.77c.28.14,0,.23.21.44a1.55,1.55,0,0,0,.42.25c.21.12.86-.16,1.1-.22a4,4,0,0,1,1,0A3.14,3.14,0,0,0,148.08,116.52Z" fill="#075b5d"/><path d="M151,123.68a.45.45,0,0,0-.79-.26C150,123.68,150.91,123.67,151,123.68Z" fill="#075b5d"/><path d="M145.86,127.81c.43-.43-.69-1-.9-1.13s-.43-.06-.56-.21-.28-.32-.5,0a.78.78,0,0,1-.12-.26c.45-.08.3-.69-.07-.52s-.37.51-.49.94c0,.18-.07.36-.11.54s.11.33.06.45-.5.46-.61.63a7.31,7.31,0,0,1,.9-.16c.09.05.14.79.31.68s.43-.51.64-.59.31-.42.67-.56c-.08.57.89.69,1.24.79l.52-.35A1,1,0,0,0,145.86,127.81Z" fill="#075b5d"/><path d="M149.76,124.18c.23-.38,0-.56.19-.94-.48-.67-1.76.29-1.22.78C148.94,124.2,149.54,124.54,149.76,124.18Z" fill="#075b5d"/><path d="M147.25,129.51c-.22-.07-.44.19-.46.38s.09.31.27.5C147.23,130.22,147.78,129.68,147.25,129.51Z" fill="#075b5d"/><path d="M158.09,142a2.16,2.16,0,0,0-1.72-.64C156.75,141.68,157.61,142.4,158.09,142Z" fill="#075b5d"/><path d="M156.61,143.79c-.29.55.22.64.58.81s.47,0,.72-.33l-1.14-.09Z" fill="#075b5d"/><path d="M192.19,136.09a.4.4,0,0,0,.11.27C192.38,136.23,192.34,136.12,192.19,136.09Z" fill="#075b5d"/><path d="M258.81,179.57c.28-.28,0-.27,0-.51s0-.55-.15-.6-.45-.11-.48-.26.18-.32.14-.51-.42-.25-.42-.42-.12-.17-.32-.33,0-.21-.32-.28-.37,0-.5-.2c-.25-.34-.63-.46-.93-.75a7.76,7.76,0,0,1-.88-.8c-.28-.4-.2-.61-.73-.67-.16,0-1-.32-1-.2s.5,1,.61,1.08.77.32.79.77.61.41.73.87l.22.82c.05.19.23.12.35.25a5.81,5.81,0,0,1,.64,1.39,3.51,3.51,0,0,0,.69.87c.46.51.93,1,1.44,1.49.28-.7.54-1.41.8-2.13A.45.45,0,0,0,258.81,179.57Z" fill="#075b5d"/><path d="M211.37,153.35c0-.23-.44-.31-.64-.28a1.06,1.06,0,0,1-.89-.24.92.92,0,0,0-.14.31A4.65,4.65,0,0,0,211.37,153.35Z" fill="#075b5d"/><path d="M216.08,153.44c-.16-.29.13-.42.31-.58-.2.09-.49.3-.7.29s-.59-.11-.69.07C214.69,153.83,216,153.47,216.08,153.44Z" fill="#075b5d"/><path d="M259.5,178.92c-.18-.27-.25,0-.38.17a.31.31,0,0,0,.29.07s.06,0,.08.08l.15-.43a.2.2,0,0,0-.17-.06C259.48,178.81,259.49,178.87,259.5,178.92Z" fill="#075b5d"/><path d="M201,148.33a2.38,2.38,0,0,0,.14-1.21c-.18,0,0,.18-.12.31a2.21,2.21,0,0,1-.39.33C200.39,147.95,200.79,148.34,201,148.33Z" fill="#075b5d"/><path d="M208.77,134c.18-.32.55-.4.84-.58a1.34,1.34,0,0,0-1,0A.47.47,0,0,1,208.77,134Z" fill="#075b5d"/><path d="M201.79,136.36c-.05-.22-.24-.16-.42-.06,0,.15.28.5.43.46A.21.21,0,0,0,201.79,136.36Z" fill="#075b5d"/><path d="M206.91,121.52l.37-.12.52-.25C207.55,121,207.1,121.28,206.91,121.52Z" fill="#075b5d"/><path d="M197.6,149.82c-.22-.42-.37-.21-.69,0l.37.29Z" fill="#075b5d"/><path d="M145.7,112.61c.25.28.39-.07.56.07s.15.3.07.62l1.08-.33c.11,0,.16-.24.26-.28s.14.16.28.11.38-.07.37-.19,0-.42-.11-.49-.24-.2-.44-.09-.23.21-.39,0,.53-.68.64-.79c.36-.31-.21-.48,0-.63s.62.21.84.14a1.29,1.29,0,0,0,.82-.61l-.62-.33,1.08-.14c0-.45-.91-.48-1.2-.56h1.25c.09-.46-.91-.38-1.31-.38q-2,1.92-3.76,4C145.31,112.91,145.68,113,145.7,112.61Z" fill="#075b5d"/><path d="M143.09,115.22c.2.27.71.38.82,0,.1.41.67.15,1,.1,0-.15-.05-.31-.08-.46.39,0,.18.42.46.52a1.27,1.27,0,0,0,.68.13c.15,0,.85,0,.89-.2.1-.35.22-.32.54-.43a.93.93,0,0,0-.53-.21l.45-.33a2.18,2.18,0,0,0-2.06-.63c-.32.11-.59-.06-.93.06l-.09,0q-.7.84-1.37,1.7h.28C143.09,115.41,143.12,115.3,143.09,115.22Z" fill="#075b5d"/><path d="M155.75,209.63l.57-1.23c.1-.21-.27-.59-.32-.81a4.88,4.88,0,0,1,0-1c.63.31,1,.49,1.57.07.13-.09,0-.46.11-.68s0-.52-.07-.9a2.66,2.66,0,0,0,1.47,0c.61-.17,1.12-.15,1.5-.71.13-.19.47-.53.52-.77a3.73,3.73,0,0,0-.21-1c-.11-.54-1.14-.6-1-1.22.28.09,2.09.87,2.22.7l1.72-2.22,1.88-2.42c.15-.19.11-.6.14-.84s0-1.33.17-1.44l2.27-1.56c.25-.17.94-.07,1.23-.09s.45-.45.62-.71c.39-.6,1.18-1.38,1.23-2.14.08-1.15.16-2.29.25-3.44a2.28,2.28,0,0,1,.59-1.11l1.62-2.33c.44-.64.42-.62.24-1.42-.09-.37-.17-.74-.26-1.11,0-.09-.79-.1-.9-.11a10.43,10.43,0,0,0-2-1.44l-2.48-.9-2.48-.9c-.14-.05-.35-.45-.44-.58l-1.16-1.52c-.38-.5-.86-1.5-1.46-1.65s-1.75-.17-2.26-.66l-2.41-2.31a3,3,0,0,0-1.55-.55l-3.09-.72c-.39-.09-1.11-.44-1.51-.29l-1.3.47c-.16.06-.76.16-.85.32-.31.52-1.11,1.4-1.08,2a2.27,2.27,0,0,0-1.1-.86c-.54-.16-.8,0-1.31.26-.83.34-1.93-1.14-1.82-2.06,0-.19.18-.36.22-.55s.1-.67.16-1a.92.92,0,0,0-.66-1,2.91,2.91,0,0,0-.75-.11c-.2,0-.35.15-.56.12a8.14,8.14,0,0,1-1.48-.12c.15-.14.52-.54.41-.76s.28-.9-.06-.91a1.55,1.55,0,0,1,.18-.3.51.51,0,0,0,.13.46,4.22,4.22,0,0,1,.21-.79l-.1.07,0,0c.07,0,.12-.13.19-.19-.18,0-.14-.08-.22-.12.16,0,.45-.66.55-.87.23-.55-.5-.4-.75-.43a3.41,3.41,0,0,0-1,.2c-.45.18-.41.68-.54,1.1a.88.88,0,0,1-.36.49c-.08.07.05.2,0,.25a1.25,1.25,0,0,1-.28.13c-.08,0-.21-.17-.37-.16a2,2,0,0,0-.59.14l-.66.25c-.1,0-.27-.24-.38-.28-.54-.16-.66-.5-1-1a4.23,4.23,0,0,1-.69-2.57,4.43,4.43,0,0,1,.27-1.18,2,2,0,0,0,.15-.52c0-.22-.3-.43-.3-.65,0-.7,1.17-1.56,1.65-1.76.3-.13.79-.48,1.09-.36s.4.22.58.16.42.08.68.28.34-.17.49.14c0-.12.07-.18,0-.34.16.1.5.19.41.41a.18.18,0,0,0,.23-.22c0-.06-.35-.18-.42-.21.63-.3-.21-.4-.44-.43.32-.26,1.42.1,1.48-.39.1.57.66.12,1,.21a2.67,2.67,0,0,1,.58.38c.19.13.41,0,.61-.09.38-.12.55.32.88.54s0,.78.14,1.14l.13-.11c-.07.28,0,.42.16.66a3.91,3.91,0,0,1,.27.66s.37.35.43.44c.2.28.34.05.51-.12s.14-1,.05-1.33a11.16,11.16,0,0,0-.61-1.65,1.66,1.66,0,0,1-.09-1.2,2.11,2.11,0,0,1,1.05-1.2,1.8,1.8,0,0,0,.43-.49c.15-.18.42-.13.5-.25s.27-.52.42-.61.22.12.32.06l.39-.21c-.19-.11-.35.14-.46-.14.13,0,.18-.07.29-.1-.07,0-.12-.11-.19-.15.13,0,.6,0,.62-.17.06-.34-.34-.26-.56-.26.26-.08.45-.06.51-.36s-.23-.26-.29-.48.13-.49.06-.62-.37-.22-.48-.39a1.19,1.19,0,0,1,.44.23c-.12-.56-.26-.78.2-1.11.19-.14,0,.27,0,.3a2.66,2.66,0,0,0-.14.62c.28-.08.21.21.35.29a1.62,1.62,0,0,0-.18.59l.06,0a6.35,6.35,0,0,1,.48-.94c.14-.29-.25-.71-.27-1,.09.26.47.41.34.63.2-.17,1-1.19.43-1.25.13-.23.51-.15.73-.17a1.53,1.53,0,0,0,.67-.26c-.1,0-.19,0-.29,0l.11-.09c-.35.05-.63.23-1,.27a2.23,2.23,0,0,1,1.33-.41c.18,0,.14-.37.26-.34s.52.2.75,0a.89.89,0,0,0-.16-.19l.06.15c-.78.08-.21-1-.09-1.28s.09-.36.29-.44.45-.15.6-.47l.12.12c.13-.27,1.14-.05,1-.65.13,0,.34.06.43,0s.18,0,.33-.09.6-.53.89-.45a.87.87,0,0,0-.2.39c.21-.15.52-.06.77-.05-.19.17-.32.42-.53.24s0-.28-.22-.12-1.24.7-.86,1.25c.11,0,.29.29.47.11s.49-.64.74-.84.17.21.33.07a1.33,1.33,0,0,1,.41-.2l1.1-.45c-.07-.06-.1-.17-.18-.23a1.54,1.54,0,0,0,.88-.24c.22-.1-.15-.49-.4-.29.08-.28.28-.58-.07-.71-.18.28-.72.78-.45,1.12a.61.61,0,0,1-.27.08l0-.21c-.39.28-.83.1-1.28-.12l.1-.08c-.31-.07-.74-.4-.59-.81-.09,0-.21,0-.29,0a.92.92,0,0,0,.35-.54.88.88,0,0,0-.53,0s-.3-.31-.41-.34c.29-.2.49.18.74,0s.73-.37.34-.63l.2.08c-.38-.95-1.82-.14-2.35.12-.77.38-1.19,1.19-2,1.57a8.44,8.44,0,0,0,1-1.24,5,5,0,0,1,.68-.73c.15-.11.71-.17.75-.37.15-.77.75-.57,1.32-.61a11.32,11.32,0,0,1,1.91,0,1.44,1.44,0,0,0,1.45-.49,1.4,1.4,0,0,1,.62-.5c.29-.09.54,0,.79-.1a2,2,0,0,0,.72-.44c.22-.33-.11-.43,0-.72s.26-.65,0-.74-.58-.31-.79.08c-.17-.22.14-.2,0-.48s-.44-.24-.62-.23a.38.38,0,0,0,.27.15,1.79,1.79,0,0,0-.75.21c-.09,0,0,.14-.18.19a.65.65,0,0,0-.37.24c-.13.18-.22-.32,0-.4s.71-.1.86-.36c-.21.06-.46.21-.66.13a6.34,6.34,0,0,1,1-.28c.58-.09.05-.34-.21-.52a1.65,1.65,0,0,0-1-.3c-.25,0-.07-.21-.18-.4a2.24,2.24,0,0,0-.5-.4c-.05,0-.36-.23-.37-.3s.27-.41.26-.58-.51-.87-.67-1.15c-.29-.5-.69-1.74-1.3-1.77q0-.21.09-.42c-.26-.06-.65.46-.6.72s-.18.7-.34,1c-.06-.07-.18-.08-.25-.15-.29,1.57-1.69-1-2.08.19-.23-.21.19-.51.34-.69-.08,0-.17,0-.25,0a1.47,1.47,0,0,0,0-.84c-.05-.31,0-.38.2-.65a1.28,1.28,0,0,0-.78-.24c-.37.06-.56-.2-.65-.54s-.53-.43-.7-.55c-.35-.25-.45-.45-.83-.27-.6.28-1.16-.25-1.77-.17-.33,0-.54.15-.44.48a1.39,1.39,0,0,1,0,1.13c-.09.29.09.63.17.91.15.52.12.48-.28.83s-.26.29,0,.69a5.44,5.44,0,0,0,.69.74,1.89,1.89,0,0,1,0,1.85c-.31.45-1.18.77-1.63,1.07.13.21.45.53.49.77l.23,1.37c.07.43-.8,1.37-1.2.87s-1.13-1.06-1.1-1.77c0-.51,0-1,.06-1.54,0-.15-.7-.14-.83-.16l-1.11-.12c-.25,0-.65-.45-.86-.6a7.18,7.18,0,0,0-1.94-1c-.24-.09-.54-.27-.8-.21-.5.11-.61.3-.8-.22-.11-.28-.23-1-.44-1.22s-.75-.18-1-.24c.14-.64.27-1.28.4-1.91a5.14,5.14,0,0,1,.88-1.52c.06-.09.25-.51.37-.5a1.42,1.42,0,0,0,.85-.14c.31-.14,0-.42-.16-.52a.82.82,0,0,0-.81-.11c.06,0,.09-.11.14-.16l-.73-.34c.37.1.74.19,1.11.3.58.18.62.16,1.14-.21.17-.12.36,0,.55,0s.35-.14.5-.21.5-.81.64-1.06a4.47,4.47,0,0,1-1.27-.16l-1.39-.7a3.88,3.88,0,0,1,1.81.32c.39.21.52.38.9.17a2,2,0,0,0,.57-.71l-.47-.28c.13-.3.49-.19.74-.2s0,.29.14.31l.51.12-.06-.2.5.26-.32-.73c.21.2.4.54.66.38a3.74,3.74,0,0,0,1-.58c.3-.39.18-.59-.1-.85a2.55,2.55,0,0,1-.52-.88c.18,0,.58,0,.71-.11s-.1-.44.08-.76a1.16,1.16,0,0,1-.82-.49c-.16-.18-.78-.16-1-.2s-.56-.16-.64.23.12.55.33.88c-.52.23-.53.2-.53.82,0,.13-.26.28-.34.36s-.14.29-.16.52c-.08.84-1.79-.71-1-1.13,0,.07,0,.15,0,.23.38-.12.18-.47.12-.78s-.54-.37-.69-.47-.34.38-.35.51a1.37,1.37,0,0,1-.33.75c-.32-.2-.26-.29-.17-.64s-.05-.37-.32-.59l.39-.27c-.27-.13-.49-.35-.75-.17s-.47,0-.75-.11l.83-.56c-.13-.16-.39-.38-.58-.6q-.43.67-.85,1.35c.14,0,.26,0,.27.24a1.25,1.25,0,0,0-.49.12l-.24.4a.86.86,0,0,0,0,.15l.53-.25c0,.2.14.4,0,.54s-.37.46-.66.51c-.68.11-.48.6-.3,1.16a5.64,5.64,0,0,1-.58-.35,67,67,0,0,0-8.45,32.67c0,.74,0,1.48,0,2.21l.25.32c.07.09.29.28.26.4s-.14.37,0,.46l1.2,1.12a3.54,3.54,0,0,1,.59.71c.16.25.76.88.66,1.19-.14.49-.35.7,0,1l1.11,1.13a2.17,2.17,0,0,0,.66.27l1.71.69c.71.29,1.47.83,2.21.6.33-.1.71-.39,1-.12l1.25,1.24c.48.47,1.48.51,2.08.68.78.22,1.12.79,1.67,1.43.22.25.13.67.31.94s.78.6,1.08.82l.43.33c.08.06.18-.1.31-.07s.73.53.83.25c.22.51.2.46.67.26-.05-.1-.29-.38-.21-.46a2.55,2.55,0,0,1,.48-.39c.24-.13.24-.15.48,0s.35.14.25.54.66.63.59,1c0,.13.06.48,0,.51-.18.18,0,.32,0,.57.16,1.1-.36,1.56-1,2.34l-.82,1.05a3.83,3.83,0,0,0-.28,1.15c-.14.57-.64,1.59-.34,2.15l1.44,2.69,1.74,3.26a2.81,2.81,0,0,0,.9,1.21l1.41,1c.24.17.78.4,1,.66a4.28,4.28,0,0,1,.15,1.25,9.07,9.07,0,0,1,.17,1.41,12.43,12.43,0,0,1-.31,1.64l-.7,3.67-1.14,6c-.15.81-.25,1.64-.33,2.47q2.16,2,4.49,3.78a.54.54,0,0,1,.15-.07C155.5,210,155.57,210,155.75,209.63Zm-8.12-62.34a4.37,4.37,0,0,1-1.2.7c-.48.17-.71.45-1.26.39l.09-.12-.41-.11a4.71,4.71,0,0,1,.51-.79c0,.19.07.08.16.23a.46.46,0,0,0-.36.35c.27.13.39-.06.58-.22a.71.71,0,0,1,.7-.26c.25,0,1.09-.2,1.09-.45C147.65,147.09,147.63,147.16,147.63,147.3Zm-.22-.8c.35-.08.77-.28,1.11-.13s.74-.34,1-.45l-.39.34c.46.19-.44,1-.87.56S146.67,147.45,147.4,146.5Zm-7-3.22.82-.36c.22-.1.09-.4.41-.45a1.76,1.76,0,0,1-.08.22c.19-.08.16-.31.34-.41a.61.61,0,0,1-.11.31c.19-.12.39-.25.17-.44a1.31,1.31,0,0,1,.62.2c.17.07.37-.21.53,0,.3.47.3.73.9.63-.15.42.09.27.18.55,0,.1-.12.17,0,.28s.14.17.08.28.77.36.92.39c.41.08.89.1,1.28.18s.45.73.74,1c-.27-.15-.18.13-.2.13s-.43-.16-.58,0c0-.07,0-.06-.1-.11s.05-.1.09-.18c-.27,0-.12-.37-.44-.21.44.21.13.55,0,.85,0,.14,0,.42-.06.52l-.42.47c0-.2,0-.85-.3-.86s-.57.42-.62.23.23-.38.27-.4c.2-.13.15-.46,0-.65a.33.33,0,0,1,.1,0c-.08-.34-.35-.25-.54-.45s-.74-.24-.46.13c-.33,0-.26.34-.43.52,0-.11,0-.23,0-.34-.17.38-.61.47-.5,1.08a2,2,0,0,1-.07,1.45c-.5,1-.76-.29-.79-.8a3.32,3.32,0,0,1,.22-1c.06-.24.29-.58.25-.81-.2.13-.32.6-.56.55a2.94,2.94,0,0,1,.62-1.06c0,.05,0,.11,0,.17s.16-.08.24-.14l-.1.14.06,0a.73.73,0,0,1,1.12-.2c.09-.25.31-.12.52-.1-.12-.11-.17-.34-.3-.4s-.42,0-.34-.28a8.46,8.46,0,0,1-1.1.28c-.2-.11-.33,0-.48-.22s-.34-.19-.55-.07a.78.78,0,0,1,.46-.5c-.45-.35-1.32.87-1.92.55l.07-.16c-.25.08-.5.25-.75.12ZM136,139.5c-.12-.25-.73-.83-.23-.94-.43-.11-.52,0-.36-.58.09-.34.5-.14.71,0-.28-.2-.28-.31-.09-.65l.14.11a.37.37,0,0,0-.25.28c.13,0,.15,0,.23-.11l.06,0c-.27.15.34,1.47.46,1.79a1.91,1.91,0,0,0,.33.68c.16.14,0,.4.07.63,0,0-.11,0-.16-.06,0,.14-.15.45-.23.19a.65.65,0,0,1,.19-.74,1,1,0,0,0-.22.12c0-.1.2-.36.11-.4s-.23.06-.29.17c0-.19.08-.44-.11-.52a.21.21,0,0,1-.06.11c0-.07,0-.13,0-.19-.15.09-.13,0-.16.22Z" fill="#075b5d"/><path d="M140.86,118.6c0,.11.09.81.16.82.66.07,1.09,0,1.56.5l-1.43-.12a2.12,2.12,0,0,0,.9.84c.27.16.4-.05.62-.08.5,0,.14.09.41.34a1.59,1.59,0,0,0,.68.18,5.12,5.12,0,0,1,1.5.08l.45.17c.09,0,.15-.2.23-.19s.29.34.53.25l-.55-.52a3.33,3.33,0,0,0,1.92.2c-.14-.3-.18-.45-.49-.54.39-.36.35.21.63.34.1,0,.35-.11.38,0s.06.31.09.46c.33-.35.93.43,1.2.65-.51.15-.61.07-.61.65l.7-.26c.31-.12.28-.15.46.16s.73.28,1,.72l.48.88c.08.14-.09.21-.19.31l-1.13,1.14c.12.09.6.33.51.56s-.72.21-.83.24a3.74,3.74,0,0,1-1.41-.1c.06.31-.35.39-.49.64s.22.58.42.57.68.06.92-.17.53,0,.81,0c0-.09.05-.2,0-.29.19,0,.31.08.31.29.49-.32.48,0,.79.46.17.27.5.24.78.39l-.49.25a1.33,1.33,0,0,0,.78.29l-.1.16.93.24c.13,0,.12.31.34.37l1.83.47c0-.29.13-.4-.1-.56l-.68-.48c-.14-.1-.48-.07-.57-.22l-.37-.65.65.29c0-.1-.05-.22-.1-.32l1.12.7c.2.13.55.58.68.54l-.14-.38c.06,0,.16,0,.23.07.14-.33-.33-.42-.14-.74l.31.41a2.88,2.88,0,0,0-.1-.81c-.13-.21-.38-.12-.44-.4s0-.42-.32-.56-.42-.28-.5.11l-.24-.74c-.1-.29-.16-.17-.41-.07l-.17-.52.51.07c0-.33-.38-.31-.17-.62s.3-.18.52-.05.38.49.59.54.48-.17.63-.23c.11.37-.25.41-.49.52a2.92,2.92,0,0,0,1.18.95,2.59,2.59,0,0,0,0-1.06c.45.31.63.07,1.1-.18l-.47-.23c.14-.17.45,0,.65,0,0-.44.21-.7-.2-.88a3,3,0,0,0-1,0l.26-.41c-.4-.06-.59,0-.87-.35a1.39,1.39,0,0,0-.67-.49c-.66-.25-1.32-.5-2-.8l.55-.07-.08-.52.78.16c-.15-.42-.12-.41-.52-.34a1.22,1.22,0,0,1-.62-.16,1.14,1.14,0,0,1,.9-.23c0-.33-.34-.48-.56-.63-.05.33-.38.4-.62.52.09-.34-.17-.29-.4-.32.29-.09.78-.09.88-.45-.26-.13-1.54-1-1.69-.61s-.56.58-.7.21c-.05-.16.54-.42.68-.5-.17-.55-.87-.47-1.26-.33-.23.08-.79-.81-1-1a1.94,1.94,0,0,0-1.26-.49c-.18,0-.59,0-.73.12s-.42.5-.53.43c-.39-.24-.36-.26-.69.08s-.45.19-.27-.13.25-.38.06-.76-.23-.24-.39-.45-.08-.53-.34-.55a1.89,1.89,0,0,0-.68,0,7.08,7.08,0,0,1-1.39.48l.13-.53a2.68,2.68,0,0,0-1.72.21,2,2,0,0,0-.42.24l-.59.8,0,.07C141.11,117.9,140.83,118.37,140.86,118.6Z" fill="#075b5d"/><path d="M207.65,132c0-.07,0-.14,0-.2h.1C207.67,131.35,207.14,131.64,207.65,132Z" fill="#075b5d"/><path d="M129.13,161.81c0-.19-.17-.4-.32-.54,0,.27,0,.54.05.81C129,162.1,129.1,162,129.13,161.81Z" fill="#075b5d"/><path d="M145.87,145l-.08.09.06,0c.1-.13.15-.18.1-.32l-.07.09a.25.25,0,0,0-.39-.15c-.21.09-.29-.11-.5,0l.17,0C145.36,144.88,145.67,145.08,145.87,145Z" fill="#075b5d"/><path d="M140.42,143.87l-.07.16c.6.32,1.46-.9,1.92-.55a.78.78,0,0,0-.46.5c.21-.12.41-.13.55.07s.28.1.48.22a8.46,8.46,0,0,0,1.1-.28c-.08.27.17.2.34.28s.19.28.3.4c-.21,0-.43-.16-.52.1a.73.73,0,0,0-1.12.2l-.06,0,.1-.14c-.08.06-.16.06-.24.14s0-.11,0-.17a2.94,2.94,0,0,0-.62,1.06c.25.05.36-.42.56-.55,0,.23-.19.57-.25.81a3.32,3.32,0,0,0-.22,1c0,.51.29,1.82.79.8a2,2,0,0,0,.07-1.45c-.11-.61.33-.7.5-1.08,0,.11,0,.24,0,.34.17-.18.1-.49.43-.52-.28-.37.29-.3.46-.13s.46.11.54.45a.33.33,0,0,0-.1,0c.11.19.17.52,0,.65,0,0-.3.3-.27.4s.51-.24.62-.23.26.66.3.86l.42-.47c.09-.1,0-.38.06-.52.1-.3.41-.64,0-.85.32-.16.17.25.44.21,0,.08,0,.11-.09.18s.07,0,.1.11c.15-.14.42.06.58,0s-.07-.28.2-.13c-.3-.27-.27-.89-.74-1s-.88-.1-1.28-.18c-.15,0-1-.27-.92-.39s0-.19-.08-.28.08-.18,0-.28c-.09-.29-.33-.13-.18-.55-.6.1-.6-.16-.9-.63-.16-.25-.36,0-.53,0a1.31,1.31,0,0,0-.62-.2c.22.19,0,.32-.17.44a.61.61,0,0,0,.11-.31c-.18.1-.15.33-.34.41a1.76,1.76,0,0,0,.08-.22c-.32.06-.18.36-.41.45l-.82.36-.73.71C139.92,144.12,140.17,144,140.42,143.87Zm5.07.84a.25.25,0,0,1,.39.15l.07-.09c0,.14,0,.19-.1.32l-.06,0,.08-.09c-.2.13-.5-.07-.7-.16l-.17,0C145.2,144.6,145.28,144.8,145.49,144.71Zm-.55,0s0,.06,0,.08a.7.7,0,0,1-.31-.07l.12-.11Zm-.28-.21-.06.12-.13-.13S144.53,144.39,144.66,144.48Z" fill="#075b5d"/><path d="M144.66,144.48c-.13-.09-.15,0-.18,0l.13.13Z" fill="#075b5d"/><path d="M144.95,144.76s0-.05,0-.08l-.18-.1-.12.11A.7.7,0,0,0,144.95,144.76Z" fill="#075b5d"/><path d="M200.64,149.25c0,.09-.15.26-.17.36s.15.13.14.18c0,.28-.28.31-.05.53s.37.19.39-.1.26,0,.3-.31.08-.62.11-.93c.08-.63-.64-.25-.81-.14l-.19-.07C200.26,149.12,200.59,149,200.64,149.25Z" fill="#075b5d"/><path d="M224.61,106.63l-.87.58a3.85,3.85,0,0,0,1.43.23L225,107l1.71-.4c-.31-.21-.52-.39-.9-.29a2.18,2.18,0,0,1-1.07.16,3.47,3.47,0,0,0-2,.28l.79.21Z" fill="#075b5d"/><path d="M227.05,119.5a2.08,2.08,0,0,0,1.36.71c.47,0,1.44.33,1.85,0-.65-.45-1.18-.83-1.21-1.75,0-.72.67-1.33,1.07-1.8.24-.29.46-.6.69-.9a4,4,0,0,1,1-.62,6.35,6.35,0,0,1,1.49-1c.72-.22,1.44-.43,2.15-.67.36-.12,1.79-.38,1.85-1s-1.4-.44-1.67-.23a5,5,0,0,1-2,.78,4.19,4.19,0,0,0-1.7.3,6,6,0,0,0-1.62.68,15.41,15.41,0,0,0-1.28,1.21l-.84.93c-.22.24-.09.4,0,.73,0,.13-.58.47-.69.55-.39.28,0,.3-.22.67s-.54.15-.57.51S226.73,119.14,227.05,119.5Z" fill="#075b5d"/><path d="M228.35,107.13c-.67-.25-.69-.21-1.27.26l.82.11Z" fill="#075b5d"/><path d="M230.56,106.27a3.65,3.65,0,0,0-1.22-.28c-.6,0-.81-.05-1.21.43l1.18.31A2.44,2.44,0,0,0,230.56,106.27Z" fill="#075b5d"/><path d="M230.89,105.54l-.48-.42,1-.24c-.54-.1-.75-.21-1.2.11s-.71.5-1.08.73l1,.14Z" fill="#075b5d"/><path d="M205,123.14a.92.92,0,0,0-.22,0,.9.9,0,0,0,0,.31l.57-.59C205.22,122.81,205.09,122.94,205,123.14Z" fill="#075b5d"/><path d="M208,120.8a.71.71,0,0,0-.28,0l.06.18C208,121.12,208.07,121,208,120.8Z" fill="#075b5d"/><path d="M208.5,120.9a1.94,1.94,0,0,0,1.36-.73c-.27,0-.28.24-.49.35a2.13,2.13,0,0,1-.7.07C208.79,120.76,208.68,120.86,208.5,120.9Z" fill="#075b5d"/><path d="M209.33,120.47c.14-.13.28-.2.29-.4-.2.11-.16.23-.41.16a1,1,0,0,0-.5,0C208.8,120.58,209.06,120.48,209.33,120.47Z" fill="#075b5d"/><path d="M231.22,120.52l-.34.21c.1.25.86.88,1.13.65S231.34,120.62,231.22,120.52Z" fill="#075b5d"/><path d="M238.11,116.73c-.38,0-.29.21-.33.62l1-.18A.6.6,0,0,0,238.11,116.73Z" fill="#075b5d"/><path d="M224.92,122.49c.2.19.79-.33.94-.44a1.39,1.39,0,0,0-.76-.39C224.65,121.85,224.52,122.1,224.92,122.49Z" fill="#075b5d"/><path d="M206.9,134.54c-.2-.22,0-.35.12-.54-.6-.15-.66.46-.63.94A1.2,1.2,0,0,1,206.9,134.54Z" fill="#075b5d"/><path d="M202.39,136.64c.25,0,.2.2.26.45,0-.29,0-.6.35-.63-.07,0-.11-.15-.19-.2.83-.17-.52-.92-.12-.13-.18,0-.24-.1-.15-.27a.55.55,0,0,0-.2,0,.25.25,0,0,1-.15.32C202.13,136.35,202.18,136.65,202.39,136.64Z" fill="#075b5d"/><path d="M231.73,107.62c-.13-.28-.41-.1-.63,0a2.8,2.8,0,0,0,.29.22Z" fill="#075b5d"/><path d="M230.88,106.87c-.15,0-1.72.07-1.57.5s1.21.1,1.59,0c-.06-.05-.09-.15-.15-.21l.57-.09Z" fill="#075b5d"/><path d="M231.54,106.91c.22,0,.34-.06.48.12s.86-.14,1.08-.38-.31-.71-.6-.63a5.79,5.79,0,0,0-1.27.47C231.32,106.69,231.32,106.92,231.54,106.91Z" fill="#075b5d"/><path d="M233.64,106.6l1.2-.27c.37-.08.25-.24.23-.64-.14,0-.47,0-.59,0s-.12.37-.23.43c-.31.18-.63-.28-.87.18A1.85,1.85,0,0,0,233.64,106.6Z" fill="#075b5d"/><path d="M213.85,205.67c-27.1-5.24-46-28.44-53-54.19-5.39-20-3-41.91,10.17-57.31a67.31,67.31,0,1,0,72.22,110.25A64.76,64.76,0,0,1,213.85,205.67Z" fill="#6dc3da" opacity="0.6" style="mix-blend-mode:multiply"/><path d="M203.18,51.66c0,.4-4,7.85-1.9,11s15.09,1.11,15.09,1.11" fill="#ff7219"/><path d="M219.08,45.4c.29.62,3.93,10.33,8,14.09s7.6,1.72,8,7.59-4.4,8.87-1.74,11.78.88,10.67-7.15,12.14-16.8-19-16.79-20.31" fill="#ff7219"/><path d="M185,88.25s-4.13,9-6.07,11.38-5.82,6.53-5.34,7.26a4.25,4.25,0,0,0,3.64,1.33c1.7-.12,4.61-5.46,4.37-4.61s-1.09,5.49-.12,4.62,1.09-5.11,2-6.32,9.65-13.66,9.65-13.66" fill="#ffd0b0"/><path d="M164.89,173.53,161.1,171s.16-3.6,1.65-4.13S164.89,173.53,164.89,173.53Z" fill="#6b2215"/><path d="M161,151.41s-4.84,15.49-5.55,16.31-9.18,7.2-10,8.64,7.28,1.55,10.45,1.19,6.21-1.5,6.47-2.64-.19-7.17.92-6.89,1.6,5.51,1.6,5.51l2.9-1.23,3.26-21.45" fill="#6b2215"/><path d="M179.57,179.48,175.79,177s.16-3.6,1.65-4.13S179.57,179.48,179.57,179.48Z" fill="#6b2215"/><path d="M175.7,157.36s-4.84,15.49-5.55,16.31-9.18,7.2-10,8.64,7.28,1.55,10.45,1.19,6.21-1.5,6.47-2.64-.19-7.17.92-6.89,1.6,5.51,1.6,5.51l2.9-1.23,3.26-21.45" fill="#6b2215"/><path d="M210.47,85.57c1.52,1.29-6.31,17.27-8,26.62s-23.78,14.59-23.78,14.59L172.61,165a81.19,81.19,0,0,1-16.25-2.33s6.28-44.48,8.59-49.34,35.44-23.85,35.44-23.85" fill="#b7b3ae"/><path d="M216.17,88.48c1.52,1.29,6.32,11.81,1.59,25.4-3.12,9-22.69,16.38-22.69,16.38L185.6,167s-6,3.1-14.18.53c0,0,3.36-41.74,5.67-46.6s27.23-23,27.23-23" fill="#b7b3ae"/><line x1="166.58" y1="90.31" x2="167.84" y2="88.92" fill="#fff7f0"/><path d="M209.14,95.16s-13,8.66-14.45,9.16-9.41,3.86-8.18,4a32.19,32.19,0,0,0,4.13,0s-5.15,5-4.26,6.34,4.43,1.83,6,1.37,4.71-5.07,5.36-5.54,17.69-9.07,17.69-9.07" fill="#ffd0b0"/><path d="M216,61.51a25.54,25.54,0,0,0-12.63-1.79,10.25,10.25,0,0,0-5.68,2.45c-2,1.9-2.87,4.77-4,7.25a109.08,109.08,0,0,1-5.61,10.4,74.5,74.5,0,0,1-5.84,9.4l6.54,4.91,9.87-11.53,14.71,7.6-13.1,6.68c-1.1,2,8.46,8.14,8.46,8.14s14.67-1.51,17.71-16.27C230.78,67.81,216,61.52,216,61.51Z" fill="#68e1fd" class="target-color"/><path d="M198.26,77.27s-.47,13.33.31,14.79,14.81,7.57,14.81,7.57l8.82-10.92Z" fill="#68e1fd" class="target-color"/><path d="M203.23,48.33s-.81,11.77,4,13.31,7.65-4.31,7.65-4.31,1.41-7.9-.07-9.65S206,45.13,203.23,48.33Z" fill="#ffd0b0"/><path d="M206.07,41.44a10.56,10.56,0,0,0-3.14,2.41,7.27,7.27,0,0,0-2.08,5.22,1.58,1.58,0,0,0,.71,1.19,2.24,2.24,0,0,0,1.26.2l1.74.09,4,.21a10.1,10.1,0,0,1,2.08.11s3,6.95,2.18,9.57c0,0,3.95-.74,6-6.47,1.4-4,1.44-9.81-2.63-12.27A11.21,11.21,0,0,0,206.07,41.44Z" fill="#ff7219"/><path d="M199.35,73.05q-.09,9.23.21,18.45c0,.7-1.07.69-1.09,0q-.3-9.22-.21-18.45A.54.54,0,0,1,199.35,73.05Z" fill="#246d5f"/><path d="M200.51,96.51a24.76,24.76,0,0,0,14.1-17.14c.16-.68,1.2-.38,1,.3A25.77,25.77,0,0,1,201,97.46C200.41,97.74,199.87,96.8,200.51,96.51Z" fill="#246d5f"/><path d="M171.64,165s3.19-41.22,5.46-44.05,13.55-12.59,13.55-12.59-14.25,7.84-15.64,11.84-6,44.1-6,44.1Z" fill="#6d665e"/><polyline points="195.21 120.82 212 110.95 182.11 91.44 166.24 97.73" fill="#3129a3"/><path d="M195.21,119.14c.27-1.26-8.11-24.86-8.11-24.86L152.54,74.64l10.56,26.9,32.11,19.29Z" fill="#68e1fd" class="target-color"/><ellipse cx="173.93" cy="100.99" rx="2.07" ry="4.09" transform="translate(-26.5 84.31) rotate(-25.38)" fill="#3129a3"/><polyline points="329.92 97.77 333.25 72.52 333.25 95.34" fill="#6a9546"/><path d="M325.8,77.92c9.58,5.45,6.19,24.2,5.08,29.21-.17.79-.29,1.24-.29,1.24" fill="#6a9546"/><path d="M314.68,82.15,329,94.48l-.35-9.34s1.06-7.67-6.81-8.48S314.68,82.15,314.68,82.15Z" fill="#6a9546"/><path d="M332.5,185.84a10.16,10.16,0,0,1-6.82-3.86c4.54-28.5,1.41-83,1.41-83L331,98.5c7.43,21.38,9.52,75.6,9.87,86.37C338.44,186.14,335.13,186.23,332.5,185.84Z" fill="#d8876a"/><path d="M350,77.83c11.77-.52,19.47,12.52,19.47,12.52L331.13,105l-1.59-9.51" fill="#85b23b"/><path d="M332.38,93.48S338.26,78.35,350,77.83" fill="#85b23b"/><path d="M372.55,102.34q-2.07,0-4.13.09l-2.65-5.18,1,5.24c-3.76.14-7.51.33-11.26.54l-3.38.21a15,15,0,0,0-1.56-4.49c-.16-.22,0,2.27.1,4.59a110.45,110.45,0,0,0-19.6,2.92l.65-2s2.46-11.93,22.59-16.58,32.79,15.12,32.79,15.12l-.4,0C382.06,102.1,377.28,102.28,372.55,102.34Z" fill="#6a9546"/><path d="M325.8,77.92c-11.09-6.31-14.61,6.53-14.61,6.53" fill="#6a9546"/><path d="M331.13,105s2.75-9.85-10.76-19.72-28.59-1-28.59-1l9.34,7.48L308,88.93l-3.8,5,7.95,5.33s5.13-3.42,6.82-4.37c.38-.22-3.51,6.25-3.51,6.25l15.16,7.26Z" fill="#85b23b"/><path d="M321.89,107.68l-.47-4.39-1.27,4.83c-3.93,1-7.8,2.2-11.69,3.47l-1.08-3.86-.31,4.31c-2.1.68-4.19,1.36-6.23,2.11l-.81-4.79-.73,5.37a41.07,41.07,0,0,0-7.17,3.54c-.77-10.24,9.67-22.44,21.07-24C324.75,92.78,331.13,105,331.13,105l-3,1.38C326,106.74,323.95,107.18,321.89,107.68Z" fill="#6a9546"/><path d="M353.24,110.7l.62-2.39-1,2.24a85.94,85.94,0,0,0-8.65-2.63l.14-3-1,2.78a109,109,0,0,0-12.63-2.21c.81-1.29,4.29-6,13-7.56,9.56-1.72,17.62,9.31,17.81,16l-1.16-.18A73.29,73.29,0,0,0,353.24,110.7Z" fill="#85b23b"/><polyline points="61.71 107.66 64.27 88.25 64.27 105.79" fill="#6a9546"/><path d="M58.54,92.4c7.36,4.19,4.76,18.6,3.91,22.46-.13.61-.22,1-.22,1" fill="#6a9546"/><path d="M50,95.66l11,9.48-.27-7.18s.81-5.9-5.24-6.52S50,95.66,50,95.66Z" fill="#6a9546"/><path d="M63.69,175.38a7.81,7.81,0,0,1-5.24-3c3.49-21.91,1.09-63.8,1.09-63.8l3-.39c5.71,16.44,7.32,58.13,7.59,66.41A11,11,0,0,1,63.69,175.38Z" fill="#d8876a"/><path d="M77.18,92.33c9.05-.4,15,9.63,15,9.63l-29.5,11.26-1.23-7.31" fill="#85b23b"/><path d="M63.6,104.36s4.53-11.63,13.58-12" fill="#85b23b"/><path d="M94.49,111.18l-3.18.07-2-4,.78,4c-2.89.1-5.78.26-8.66.42l-2.6.16a11.54,11.54,0,0,0-1.2-3.45,18.19,18.19,0,0,0,.08,3.53A84.92,84.92,0,0,0,62.6,114.2l.5-1.53S65,103.49,80.47,99.92s25.22,11.63,25.22,11.63l-.3,0A62.5,62.5,0,0,0,94.49,111.18Z" fill="#6a9546"/><path d="M58.54,92.4c-8.53-4.85-11.23,5-11.23,5" fill="#6a9546"/><path d="M62.64,113.21s2.11-7.58-8.27-15.16-22-.81-22-.81L39.57,103l5.26-2.13-2.92,3.82,6.11,4.1s3.95-2.63,5.24-3.36c.29-.17-2.7,4.81-2.7,4.81l11.66,5.59Z" fill="#85b23b"/><path d="M55.54,115.28l-.36-3.38-1,3.71c-3,.78-6,1.69-9,2.67l-.83-3-.24,3.32c-1.61.52-3.22,1-4.79,1.62l-.62-3.68-.56,4.13a31.58,31.58,0,0,0-5.52,2.72c-.6-7.87,7.44-17.25,16.2-18.42s13.8,8.21,13.8,8.21l-2.32,1.06C58.71,114.56,57.12,114.9,55.54,115.28Z" fill="#6a9546"/><path d="M79.64,117.6l.47-1.84-.79,1.72a66.08,66.08,0,0,0-6.65-2l.11-2.3L72,115.31a83.8,83.8,0,0,0-9.71-1.7c.62-1,3.3-4.6,10-5.81C79.65,106.48,85.84,115,86,120.09L85.1,120A56.35,56.35,0,0,0,79.64,117.6Z" fill="#85b23b"/></g></g></svg>