<svg id="Layer_2" data-name="Layer 2" xmlns="http://www.w3.org/2000/svg" xmlns:xlink="http://www.w3.org/1999/xlink" viewBox="0 0 400 300" data-imageid="share-5" imageName="Landing Page" class="illustrations_image" style="width: 214px;"><defs><linearGradient id="linear-gradient" x1="283.5" y1="234.25" x2="300.16" y2="210.55" gradientUnits="userSpaceOnUse"><stop offset="0" stop-color="#fff" stop-opacity="0"/><stop offset="1" stop-color="#d43500"/></linearGradient></defs><title>HA</title><path d="M203.45,291.79l147.5-87.17c4.7-2.64,8.72-7,4.15-9.8l-148-85.31c-2.22-1.38-5.59-2.28-7.85-1L44.38,198.4c-4.7,2.73-5.54,10.34-.84,13.07L184,291.65A19.61,19.61,0,0,0,203.45,291.79Z" fill="#ff666d"/><path d="M182.56,156.18,204,166.5a4.93,4.93,0,0,1,.35,8.7l-50.79,29.63a4.93,4.93,0,0,1-6.63-1.59L134.57,184" fill="#56403d"/><path d="M66,106.56,236.88,8.1a7.71,7.71,0,0,1,11.56,6.68V117.2a6.41,6.41,0,0,1-3.2,5.55L63.07,227.9a4.14,4.14,0,0,1-6.2-3.58v-102A18.2,18.2,0,0,1,66,106.56Z" fill="#68e1fd" class="target-color"/><path d="M236.86,15.84,71.17,111.18a11.62,11.62,0,0,0-5.82,10.07V198a4.2,4.2,0,0,0,6.28,3.64l169-97a4.14,4.14,0,0,0,2.08-3.59V19.22A3.89,3.89,0,0,0,236.86,15.84Z" fill="#fff"/><ellipse cx="167.92" cy="156.6" rx="4.12" ry="3.6" transform="translate(-17.62 291.87) rotate(-79.1)" fill="#ab643c"/><path d="M174.49,142.64a51.14,51.14,0,0,1,19.22-26.16c10.87-7.42,22.61-6.86,25.1-16.32,2.82-10.75,10.78-25.41,23.89-29.06v29.23a6.26,6.26,0,0,1-3.17,5.45Z" fill="#3d44ae"/><path d="M65.34,150s20.07-8.59,23.75-24.1c2.34-9.84,7.13-21.46,17-25.95,3-1.38,6.22-2.08,8.85-4.22a37.89,37.89,0,0,0,6.23-6.89,71.06,71.06,0,0,0,6.24-10l-59.23,34a5.57,5.57,0,0,0-2.8,4.83Z" fill="#3f46ae"/><path d="M242.91,68.23c0-.26,0-.52,0-.79-8.69.9-13.48,8.82-16.84,16.31-4.69,10.47-10.43,21.31-22.13,25-5,1.59-10.06,2.06-14.48,5.14a33,33,0,0,0-8.47,9.17c-4.93,7.51-7.79,16.46-13.36,23.45l.88-.32a22.26,22.26,0,0,1,2-1c.24-.11.47-.19.7-.27a124.13,124.13,0,0,0,7.35-13.47c2.35-4.66,5-9.38,8.71-13.09,5-4.93,10.82-5.71,17.2-7.66,8.06-2.46,13.94-8.52,18.2-15.59,5.27-8.75,8.28-24.34,20.24-25.66Z" fill="#ffb3a6"/><path d="M138.38,72.31a11.72,11.72,0,0,1-2.24,1.33,35.92,35.92,0,0,1-15.56,19.13c-7.54,4.43-16.64,6.1-23.36,11.94C90,111,87.48,121.64,83.44,130c-4.28,8.85-9.81,17.15-18.32,22.18a21.73,21.73,0,0,1,.19,2.21c7.85-4.33,13.49-11.4,17.75-19.25,5.38-9.91,8-23.9,17.68-30.62,7.69-5.32,17.29-6.91,24.75-12.67A38.22,38.22,0,0,0,138.77,72Z" fill="#ffb3a6"/><path d="M84.38,179.35v.25a4.36,4.36,0,0,0,6.48,3.81l34.27-19.05a4.36,4.36,0,0,0,2.24-3.81h0a4.36,4.36,0,0,0-6.46-3.82l-34.27,18.8A4.36,4.36,0,0,0,84.38,179.35Z" fill="#ffb3a6"/><path d="M131.64,124.83,83.82,152.06A1.13,1.13,0,0,0,85,154l47.82-27.23a1.13,1.13,0,0,0-1.14-1.94Z" fill="#b3b3b3"/><path d="M131.64,131.89,83.82,159.13A1.13,1.13,0,0,0,85,161.07l47.82-27.23a1.13,1.13,0,0,0-1.14-1.94Z" fill="#b3b3b3"/><path d="M131.64,139.08,83.82,166.32A1.13,1.13,0,0,0,85,168.26L132.77,141a1.13,1.13,0,0,0-1.14-1.94Z" fill="#b3b3b3"/><ellipse cx="197.65" cy="78.11" rx="17.95" ry="11.53" transform="translate(39.98 220.61) rotate(-63.67)" fill="none" stroke="#a2c609" stroke-miterlimit="10" stroke-width="2"/><ellipse cx="174.15" cy="93.25" rx="20.19" ry="14.48" transform="translate(13.33 207.97) rotate(-63.67)" fill="#c5e0fe"/><path d="M174.15,93.25l10-17.51s-6.63-5.23-16.59,2.76Z" fill="#f9aa43"/><path d="M174.15,93.25l-13.67-4.92s1.58-4.68,7.06-9.83Z" fill="#768cfb"/><path d="M146.12,78.88l11.64-7.08c1.65-1,.14-3.6-1.51-2.59L144.6,76.29c-1.65,1-.14,3.6,1.51,2.59Z" fill="#e6e6e6"/><path d="M192.58,51.47l11.64-7.08c1.65-1,.14-3.6-1.51-2.59l-11.64,7.08c-1.65,1-.14,3.6,1.51,2.59Z" fill="#e6e6e6"/><path d="M218,38.29l11.64-7.08c1.65-1,.14-3.6-1.51-2.59L216.48,35.7c-1.65,1-.14,3.6,1.51,2.59Z" fill="#e6e6e6"/><path d="M168.07,65.91l11.64-7.08c1.65-1,.14-3.6-1.51-2.59l-11.64,7.08c-1.65,1-.14,3.6,1.51,2.59Z" fill="#e6e6e6"/><path d="M193.92,279.3V255.62l21.19-11.84v23.49Z" fill="#b24f28"/><path d="M193.92,255.62l-20.62-11.84s-.57,23.87,0,24.25,20.62,11.27,20.62,11.27Z" fill="#c96336"/><polygon points="173.29 243.78 193.92 231.18 215.11 243.78 193.92 255.62 173.29 243.78" fill="#db7d58"/><polygon points="181.15 238.99 202.62 250.76 202.62 263.12 208.79 260 208.79 247.31 187.32 235.21 181.15 238.99" fill="#fdedcb"/><path d="M239.08,108.11s2.9-.51,3.6-1.46,0-1.48,0-1.48,2.85-1.35,2.42-2.29-2.83-3.26-4.37-3.26-6.52,5.06-6.52,5.06" fill="#eead97"/><path d="M235.5,236.83a1.1,1.1,0,0,1-1.12,1c-1,.08-10.62-4.05-13,1.55a1.59,1.59,0,0,0,.63,1.94,38,38,0,0,0,15.8,5.74,8.89,8.89,0,0,0,5.69-.72l-.45-10.56Z" fill="#c24327"/><path d="M258.72,231.94s-9-5.86-10.55-2.14c-1.21,2.87,9.53,11.22,13.48,11.88s4.49-3.49,4.49-3.49l-.13-6.81" fill="#c24327"/><path d="M241.13,146.65s-9,19.38-8.84,89.38c0,0,1.83,4.84,14.83,1.51L252.4,175l2.28,57.68s6.11,4.53,15.6-.91c0,0-2.13-77.17-7.32-91" fill="#333856"/><path d="M263.39,143.11c2.25-9.53,6.89-34.14,1.92-37.89-4.33-3.27-14.42.28-22.13,5.49-6.32,4.27-3.74,29.14-2.65,37.77C248.91,149.51,256.72,148.05,263.39,143.11Z" fill="#c24327"/><path d="M265.15,105.17s3.16,1.56,4.39,7,3.3,19.28.05,23-8.82-2-9.23-2.39" fill="#c24327"/><path d="M246.88,108.54s-11.69,6.08-12.07,6.21,5.51-4.51,5.51-4.51-.67-8.21-6.77-6.28c0,0-19.65,15.09-8.71,24.56,5.23,4.52,22-2.67,22-2.67" fill="#c24327"/><path d="M244.48,91.31s-.22,12.65,3.31,13a6.5,6.5,0,0,0,6.91-3.6" fill="#eead97"/><path d="M249.59,102.69v6s3.23,1.24,7.75-1.77V102" fill="#eead97"/><path d="M245.12,93.65s-4.3-4.47-1.49-8.28,6-1.82,6-1.82.66-1.66,4-2,4.63,3,6,3.81,3.48,3.26,3.64,5.27-2.81,13.26-6.29,14.09S248.93,106.89,245.12,93.65Z" fill="#c24327"/><path d="M278.28,210a81.4,81.4,0,0,1,8.14,4.7c4.15,2.76,10.34,4.92,14.17,8.1l29.82-17.15-40.24-6.49L275,208.09Q276.68,209,278.28,210Z" opacity="0.32" fill="url(#linear-gradient)"/><path d="M309,218.43V194.16L287.28,182V206.1Z" fill="#68e1fd" class="target-color"/><path d="M309,194.16,330.15,182s.59,24.47,0,24.86S309,218.43,309,218.43Z" fill="#68e1fd" class="target-color"/><polygon points="330.15 182.02 309.01 169.1 287.28 182.02 309.01 194.16 330.15 182.02" fill="#68e1fd" class="target-color"/><polygon points="287.28 182.02 279.42 168.39 301.69 155.3 309.01 169.1 287.28 182.02" fill="#68e1fd" class="target-color"/><path d="M309,194.16,330.15,182s.59,24.47,0,24.86S309,218.43,309,218.43Z" fill="#606060" opacity="0.49"/><polygon points="330.41 181.59 309.27 168.67 287.54 181.59 309.27 193.73 330.41 181.59" fill="#606060" opacity="0.8"/><polygon points="330.15 182.02 335.89 169.77 312.5 182.51 309.01 194.16 330.15 182.02" fill="#68e1fd" class="target-color"/></svg>